%TF.GenerationSoftware,KiCad,Pcbnew,10.0.4*%
%TF.CreationDate,2026-07-29T22:39:24+02:00*%
%TF.ProjectId,Bluepill-QuadFC-Carrier,426c7565-7069-46c6-9c2d-517561644643,rev?*%
%TF.SameCoordinates,Original*%
%TF.FileFunction,Other,User*%
%FSLAX46Y46*%
G04 Gerber Fmt 4.6, Leading zero omitted, Abs format (unit mm)*
G04 Created by KiCad (PCBNEW 10.0.4) date 2026-07-29 22:39:24*
%MOMM*%
%LPD*%
G01*
G04 APERTURE LIST*
%ADD10C,0.050000*%
G04 APERTURE END LIST*
%TO.C,LED1*%
D10*
X54060000Y-28790000D02*
X60490000Y-28790000D01*
X60490000Y-35210000D01*
X54060000Y-35210000D01*
X54060000Y-28790000D01*
%TO.C,J_M2*%
X67230000Y-60230000D02*
X70770000Y-60230000D01*
X70770000Y-68850000D01*
X67230000Y-68850000D01*
X67230000Y-60230000D01*
%TO.C,J_BP2*%
X49660000Y-8230000D02*
X53200000Y-8230000D01*
X49660000Y-60030000D02*
X49660000Y-8230000D01*
X53200000Y-8230000D02*
X53200000Y-60030000D01*
X53200000Y-60030000D02*
X49660000Y-60030000D01*
%TO.C,J_RX*%
X71230000Y-28230000D02*
X74770000Y-28230000D01*
X74770000Y-44470000D01*
X71230000Y-44470000D01*
X71230000Y-28230000D01*
%TO.C,J_M4*%
X9230000Y-7230000D02*
X12770000Y-7230000D01*
X12770000Y-15850000D01*
X9230000Y-15850000D01*
X9230000Y-7230000D01*
%TO.C,R_SDA*%
X54950000Y-18500000D02*
X64670000Y-18500000D01*
X64670000Y-21500000D01*
X54950000Y-21500000D01*
X54950000Y-18500000D01*
%TO.C,C_BULK*%
X11000000Y-54000000D02*
G75*
G02*
X2500000Y-54000000I-4250000J0D01*
G01*
X2500000Y-54000000D02*
G75*
G02*
X11000000Y-54000000I4250000J0D01*
G01*
%TO.C,J_BP1*%
X26800000Y-8230000D02*
X30340000Y-8230000D01*
X26800000Y-60030000D02*
X26800000Y-8230000D01*
X30340000Y-8230000D02*
X30340000Y-60030000D01*
X30340000Y-60030000D02*
X26800000Y-60030000D01*
%TO.C,C_DEC*%
X12950000Y-52950000D02*
X17550000Y-52950000D01*
X17550000Y-55050000D01*
X12950000Y-55050000D01*
X12950000Y-52950000D01*
%TO.C,D_PWR*%
X2650000Y-44400000D02*
X15510000Y-44400000D01*
X15510000Y-47600000D01*
X2650000Y-47600000D01*
X2650000Y-44400000D01*
%TO.C,J_PWR*%
X-40000Y-30290000D02*
X11130000Y-30290000D01*
X11130000Y-41100000D01*
X-40000Y-41100000D01*
X-40000Y-30290000D01*
%TO.C,J_M3*%
X9230000Y-60230000D02*
X12770000Y-60230000D01*
X12770000Y-68850000D01*
X9230000Y-68850000D01*
X9230000Y-60230000D01*
%TO.C,BZ*%
X18230000Y-44230000D02*
X21770000Y-44230000D01*
X21770000Y-50320000D01*
X18230000Y-50320000D01*
X18230000Y-44230000D01*
%TO.C,R_LED*%
X54950000Y-24500000D02*
X64670000Y-24500000D01*
X64670000Y-27500000D01*
X54950000Y-27500000D01*
X54950000Y-24500000D01*
%TO.C,J_IMU*%
X38230000Y-50230000D02*
X41770000Y-50230000D01*
X38230000Y-71550000D02*
X38230000Y-50230000D01*
X41770000Y-50230000D02*
X41770000Y-71550000D01*
X41770000Y-71550000D02*
X38230000Y-71550000D01*
%TO.C,J_M1*%
X67230000Y-7230000D02*
X70770000Y-7230000D01*
X70770000Y-15850000D01*
X67230000Y-15850000D01*
X67230000Y-7230000D01*
%TO.C,R_SCL*%
X54950000Y-12500000D02*
X64670000Y-12500000D01*
X64670000Y-15500000D01*
X54950000Y-15500000D01*
X54950000Y-12500000D01*
%TD*%
M02*
