%TF.GenerationSoftware,KiCad,Pcbnew,10.0.4*%
%TF.CreationDate,2026-07-29T22:39:24+02:00*%
%TF.ProjectId,Bluepill-QuadFC-Carrier,426c7565-7069-46c6-9c2d-517561644643,rev?*%
%TF.SameCoordinates,Original*%
%TF.FileFunction,Legend,Top*%
%TF.FilePolarity,Positive*%
%FSLAX46Y46*%
G04 Gerber Fmt 4.6, Leading zero omitted, Abs format (unit mm)*
G04 Created by KiCad (PCBNEW 10.0.4) date 2026-07-29 22:39:24*
%MOMM*%
%LPD*%
G01*
G04 APERTURE LIST*
%ADD10C,0.150000*%
%ADD11C,0.158750*%
%ADD12C,0.120000*%
G04 APERTURE END LIST*
D10*
X56150952Y-28494819D02*
X55674762Y-28494819D01*
X55674762Y-28494819D02*
X55674762Y-27494819D01*
X56484286Y-27971009D02*
X56817619Y-27971009D01*
X56960476Y-28494819D02*
X56484286Y-28494819D01*
X56484286Y-28494819D02*
X56484286Y-27494819D01*
X56484286Y-27494819D02*
X56960476Y-27494819D01*
X57389048Y-28494819D02*
X57389048Y-27494819D01*
X57389048Y-27494819D02*
X57627143Y-27494819D01*
X57627143Y-27494819D02*
X57770000Y-27542438D01*
X57770000Y-27542438D02*
X57865238Y-27637676D01*
X57865238Y-27637676D02*
X57912857Y-27732914D01*
X57912857Y-27732914D02*
X57960476Y-27923390D01*
X57960476Y-27923390D02*
X57960476Y-28066247D01*
X57960476Y-28066247D02*
X57912857Y-28256723D01*
X57912857Y-28256723D02*
X57865238Y-28351961D01*
X57865238Y-28351961D02*
X57770000Y-28447200D01*
X57770000Y-28447200D02*
X57627143Y-28494819D01*
X57627143Y-28494819D02*
X57389048Y-28494819D01*
X58912857Y-28494819D02*
X58341429Y-28494819D01*
X58627143Y-28494819D02*
X58627143Y-27494819D01*
X58627143Y-27494819D02*
X58531905Y-27637676D01*
X58531905Y-27637676D02*
X58436667Y-27732914D01*
X58436667Y-27732914D02*
X58341429Y-27780533D01*
X67714285Y-59074819D02*
X67714285Y-59789104D01*
X67714285Y-59789104D02*
X67666666Y-59931961D01*
X67666666Y-59931961D02*
X67571428Y-60027200D01*
X67571428Y-60027200D02*
X67428571Y-60074819D01*
X67428571Y-60074819D02*
X67333333Y-60074819D01*
X67952381Y-60170057D02*
X68714285Y-60170057D01*
X68952381Y-60074819D02*
X68952381Y-59074819D01*
X68952381Y-59074819D02*
X69285714Y-59789104D01*
X69285714Y-59789104D02*
X69619047Y-59074819D01*
X69619047Y-59074819D02*
X69619047Y-60074819D01*
X70047619Y-59170057D02*
X70095238Y-59122438D01*
X70095238Y-59122438D02*
X70190476Y-59074819D01*
X70190476Y-59074819D02*
X70428571Y-59074819D01*
X70428571Y-59074819D02*
X70523809Y-59122438D01*
X70523809Y-59122438D02*
X70571428Y-59170057D01*
X70571428Y-59170057D02*
X70619047Y-59265295D01*
X70619047Y-59265295D02*
X70619047Y-59360533D01*
X70619047Y-59360533D02*
X70571428Y-59503390D01*
X70571428Y-59503390D02*
X70000000Y-60074819D01*
X70000000Y-60074819D02*
X70619047Y-60074819D01*
X49715714Y-6684819D02*
X49715714Y-7399104D01*
X49715714Y-7399104D02*
X49668095Y-7541961D01*
X49668095Y-7541961D02*
X49572857Y-7637200D01*
X49572857Y-7637200D02*
X49430000Y-7684819D01*
X49430000Y-7684819D02*
X49334762Y-7684819D01*
X49953810Y-7780057D02*
X50715714Y-7780057D01*
X51287143Y-7161009D02*
X51430000Y-7208628D01*
X51430000Y-7208628D02*
X51477619Y-7256247D01*
X51477619Y-7256247D02*
X51525238Y-7351485D01*
X51525238Y-7351485D02*
X51525238Y-7494342D01*
X51525238Y-7494342D02*
X51477619Y-7589580D01*
X51477619Y-7589580D02*
X51430000Y-7637200D01*
X51430000Y-7637200D02*
X51334762Y-7684819D01*
X51334762Y-7684819D02*
X50953810Y-7684819D01*
X50953810Y-7684819D02*
X50953810Y-6684819D01*
X50953810Y-6684819D02*
X51287143Y-6684819D01*
X51287143Y-6684819D02*
X51382381Y-6732438D01*
X51382381Y-6732438D02*
X51430000Y-6780057D01*
X51430000Y-6780057D02*
X51477619Y-6875295D01*
X51477619Y-6875295D02*
X51477619Y-6970533D01*
X51477619Y-6970533D02*
X51430000Y-7065771D01*
X51430000Y-7065771D02*
X51382381Y-7113390D01*
X51382381Y-7113390D02*
X51287143Y-7161009D01*
X51287143Y-7161009D02*
X50953810Y-7161009D01*
X51953810Y-7684819D02*
X51953810Y-6684819D01*
X51953810Y-6684819D02*
X52334762Y-6684819D01*
X52334762Y-6684819D02*
X52430000Y-6732438D01*
X52430000Y-6732438D02*
X52477619Y-6780057D01*
X52477619Y-6780057D02*
X52525238Y-6875295D01*
X52525238Y-6875295D02*
X52525238Y-7018152D01*
X52525238Y-7018152D02*
X52477619Y-7113390D01*
X52477619Y-7113390D02*
X52430000Y-7161009D01*
X52430000Y-7161009D02*
X52334762Y-7208628D01*
X52334762Y-7208628D02*
X51953810Y-7208628D01*
X52906191Y-6780057D02*
X52953810Y-6732438D01*
X52953810Y-6732438D02*
X53049048Y-6684819D01*
X53049048Y-6684819D02*
X53287143Y-6684819D01*
X53287143Y-6684819D02*
X53382381Y-6732438D01*
X53382381Y-6732438D02*
X53430000Y-6780057D01*
X53430000Y-6780057D02*
X53477619Y-6875295D01*
X53477619Y-6875295D02*
X53477619Y-6970533D01*
X53477619Y-6970533D02*
X53430000Y-7113390D01*
X53430000Y-7113390D02*
X52858572Y-7684819D01*
X52858572Y-7684819D02*
X53477619Y-7684819D01*
X71785714Y-27074819D02*
X71785714Y-27789104D01*
X71785714Y-27789104D02*
X71738095Y-27931961D01*
X71738095Y-27931961D02*
X71642857Y-28027200D01*
X71642857Y-28027200D02*
X71500000Y-28074819D01*
X71500000Y-28074819D02*
X71404762Y-28074819D01*
X72023810Y-28170057D02*
X72785714Y-28170057D01*
X73595238Y-28074819D02*
X73261905Y-27598628D01*
X73023810Y-28074819D02*
X73023810Y-27074819D01*
X73023810Y-27074819D02*
X73404762Y-27074819D01*
X73404762Y-27074819D02*
X73500000Y-27122438D01*
X73500000Y-27122438D02*
X73547619Y-27170057D01*
X73547619Y-27170057D02*
X73595238Y-27265295D01*
X73595238Y-27265295D02*
X73595238Y-27408152D01*
X73595238Y-27408152D02*
X73547619Y-27503390D01*
X73547619Y-27503390D02*
X73500000Y-27551009D01*
X73500000Y-27551009D02*
X73404762Y-27598628D01*
X73404762Y-27598628D02*
X73023810Y-27598628D01*
X73928572Y-27074819D02*
X74595238Y-28074819D01*
X74595238Y-27074819D02*
X73928572Y-28074819D01*
X9714285Y-6074819D02*
X9714285Y-6789104D01*
X9714285Y-6789104D02*
X9666666Y-6931961D01*
X9666666Y-6931961D02*
X9571428Y-7027200D01*
X9571428Y-7027200D02*
X9428571Y-7074819D01*
X9428571Y-7074819D02*
X9333333Y-7074819D01*
X9952381Y-7170057D02*
X10714285Y-7170057D01*
X10952381Y-7074819D02*
X10952381Y-6074819D01*
X10952381Y-6074819D02*
X11285714Y-6789104D01*
X11285714Y-6789104D02*
X11619047Y-6074819D01*
X11619047Y-6074819D02*
X11619047Y-7074819D01*
X12523809Y-6408152D02*
X12523809Y-7074819D01*
X12285714Y-6027200D02*
X12047619Y-6741485D01*
X12047619Y-6741485D02*
X12666666Y-6741485D01*
D11*
X73306666Y-75579271D02*
X73306666Y-74309271D01*
X73306666Y-74309271D02*
X73730000Y-75216414D01*
X73730000Y-75216414D02*
X74153333Y-74309271D01*
X74153333Y-74309271D02*
X74153333Y-75579271D01*
X74758095Y-75579271D02*
X74758095Y-74309271D01*
X74758095Y-74914033D02*
X75483810Y-74914033D01*
X75483810Y-75579271D02*
X75483810Y-74309271D01*
X75967619Y-74309271D02*
X76753810Y-74309271D01*
X76753810Y-74309271D02*
X76330476Y-74793080D01*
X76330476Y-74793080D02*
X76511905Y-74793080D01*
X76511905Y-74793080D02*
X76632857Y-74853556D01*
X76632857Y-74853556D02*
X76693333Y-74914033D01*
X76693333Y-74914033D02*
X76753810Y-75034985D01*
X76753810Y-75034985D02*
X76753810Y-75337366D01*
X76753810Y-75337366D02*
X76693333Y-75458318D01*
X76693333Y-75458318D02*
X76632857Y-75518795D01*
X76632857Y-75518795D02*
X76511905Y-75579271D01*
X76511905Y-75579271D02*
X76149048Y-75579271D01*
X76149048Y-75579271D02*
X76028095Y-75518795D01*
X76028095Y-75518795D02*
X75967619Y-75458318D01*
D10*
X58333809Y-18084819D02*
X58000476Y-17608628D01*
X57762381Y-18084819D02*
X57762381Y-17084819D01*
X57762381Y-17084819D02*
X58143333Y-17084819D01*
X58143333Y-17084819D02*
X58238571Y-17132438D01*
X58238571Y-17132438D02*
X58286190Y-17180057D01*
X58286190Y-17180057D02*
X58333809Y-17275295D01*
X58333809Y-17275295D02*
X58333809Y-17418152D01*
X58333809Y-17418152D02*
X58286190Y-17513390D01*
X58286190Y-17513390D02*
X58238571Y-17561009D01*
X58238571Y-17561009D02*
X58143333Y-17608628D01*
X58143333Y-17608628D02*
X57762381Y-17608628D01*
X58524286Y-18180057D02*
X59286190Y-18180057D01*
X59476667Y-18037200D02*
X59619524Y-18084819D01*
X59619524Y-18084819D02*
X59857619Y-18084819D01*
X59857619Y-18084819D02*
X59952857Y-18037200D01*
X59952857Y-18037200D02*
X60000476Y-17989580D01*
X60000476Y-17989580D02*
X60048095Y-17894342D01*
X60048095Y-17894342D02*
X60048095Y-17799104D01*
X60048095Y-17799104D02*
X60000476Y-17703866D01*
X60000476Y-17703866D02*
X59952857Y-17656247D01*
X59952857Y-17656247D02*
X59857619Y-17608628D01*
X59857619Y-17608628D02*
X59667143Y-17561009D01*
X59667143Y-17561009D02*
X59571905Y-17513390D01*
X59571905Y-17513390D02*
X59524286Y-17465771D01*
X59524286Y-17465771D02*
X59476667Y-17370533D01*
X59476667Y-17370533D02*
X59476667Y-17275295D01*
X59476667Y-17275295D02*
X59524286Y-17180057D01*
X59524286Y-17180057D02*
X59571905Y-17132438D01*
X59571905Y-17132438D02*
X59667143Y-17084819D01*
X59667143Y-17084819D02*
X59905238Y-17084819D01*
X59905238Y-17084819D02*
X60048095Y-17132438D01*
X60476667Y-18084819D02*
X60476667Y-17084819D01*
X60476667Y-17084819D02*
X60714762Y-17084819D01*
X60714762Y-17084819D02*
X60857619Y-17132438D01*
X60857619Y-17132438D02*
X60952857Y-17227676D01*
X60952857Y-17227676D02*
X61000476Y-17322914D01*
X61000476Y-17322914D02*
X61048095Y-17513390D01*
X61048095Y-17513390D02*
X61048095Y-17656247D01*
X61048095Y-17656247D02*
X61000476Y-17846723D01*
X61000476Y-17846723D02*
X60952857Y-17941961D01*
X60952857Y-17941961D02*
X60857619Y-18037200D01*
X60857619Y-18037200D02*
X60714762Y-18084819D01*
X60714762Y-18084819D02*
X60476667Y-18084819D01*
X61429048Y-17799104D02*
X61905238Y-17799104D01*
X61333810Y-18084819D02*
X61667143Y-17084819D01*
X61667143Y-17084819D02*
X62000476Y-18084819D01*
X4749999Y-49109580D02*
X4702380Y-49157200D01*
X4702380Y-49157200D02*
X4559523Y-49204819D01*
X4559523Y-49204819D02*
X4464285Y-49204819D01*
X4464285Y-49204819D02*
X4321428Y-49157200D01*
X4321428Y-49157200D02*
X4226190Y-49061961D01*
X4226190Y-49061961D02*
X4178571Y-48966723D01*
X4178571Y-48966723D02*
X4130952Y-48776247D01*
X4130952Y-48776247D02*
X4130952Y-48633390D01*
X4130952Y-48633390D02*
X4178571Y-48442914D01*
X4178571Y-48442914D02*
X4226190Y-48347676D01*
X4226190Y-48347676D02*
X4321428Y-48252438D01*
X4321428Y-48252438D02*
X4464285Y-48204819D01*
X4464285Y-48204819D02*
X4559523Y-48204819D01*
X4559523Y-48204819D02*
X4702380Y-48252438D01*
X4702380Y-48252438D02*
X4749999Y-48300057D01*
X4940476Y-49300057D02*
X5702380Y-49300057D01*
X6273809Y-48681009D02*
X6416666Y-48728628D01*
X6416666Y-48728628D02*
X6464285Y-48776247D01*
X6464285Y-48776247D02*
X6511904Y-48871485D01*
X6511904Y-48871485D02*
X6511904Y-49014342D01*
X6511904Y-49014342D02*
X6464285Y-49109580D01*
X6464285Y-49109580D02*
X6416666Y-49157200D01*
X6416666Y-49157200D02*
X6321428Y-49204819D01*
X6321428Y-49204819D02*
X5940476Y-49204819D01*
X5940476Y-49204819D02*
X5940476Y-48204819D01*
X5940476Y-48204819D02*
X6273809Y-48204819D01*
X6273809Y-48204819D02*
X6369047Y-48252438D01*
X6369047Y-48252438D02*
X6416666Y-48300057D01*
X6416666Y-48300057D02*
X6464285Y-48395295D01*
X6464285Y-48395295D02*
X6464285Y-48490533D01*
X6464285Y-48490533D02*
X6416666Y-48585771D01*
X6416666Y-48585771D02*
X6369047Y-48633390D01*
X6369047Y-48633390D02*
X6273809Y-48681009D01*
X6273809Y-48681009D02*
X5940476Y-48681009D01*
X6940476Y-48204819D02*
X6940476Y-49014342D01*
X6940476Y-49014342D02*
X6988095Y-49109580D01*
X6988095Y-49109580D02*
X7035714Y-49157200D01*
X7035714Y-49157200D02*
X7130952Y-49204819D01*
X7130952Y-49204819D02*
X7321428Y-49204819D01*
X7321428Y-49204819D02*
X7416666Y-49157200D01*
X7416666Y-49157200D02*
X7464285Y-49109580D01*
X7464285Y-49109580D02*
X7511904Y-49014342D01*
X7511904Y-49014342D02*
X7511904Y-48204819D01*
X8464285Y-49204819D02*
X7988095Y-49204819D01*
X7988095Y-49204819D02*
X7988095Y-48204819D01*
X8797619Y-49204819D02*
X8797619Y-48204819D01*
X9369047Y-49204819D02*
X8940476Y-48633390D01*
X9369047Y-48204819D02*
X8797619Y-48776247D01*
D11*
X3306666Y-75579271D02*
X3306666Y-74309271D01*
X3306666Y-74309271D02*
X3730000Y-75216414D01*
X3730000Y-75216414D02*
X4153333Y-74309271D01*
X4153333Y-74309271D02*
X4153333Y-75579271D01*
X4758095Y-75579271D02*
X4758095Y-74309271D01*
X4758095Y-74914033D02*
X5483810Y-74914033D01*
X5483810Y-75579271D02*
X5483810Y-74309271D01*
X6632857Y-74732604D02*
X6632857Y-75579271D01*
X6330476Y-74248795D02*
X6028095Y-75155937D01*
X6028095Y-75155937D02*
X6814286Y-75155937D01*
X3306666Y-5579271D02*
X3306666Y-4309271D01*
X3306666Y-4309271D02*
X3730000Y-5216414D01*
X3730000Y-5216414D02*
X4153333Y-4309271D01*
X4153333Y-4309271D02*
X4153333Y-5579271D01*
X4758095Y-5579271D02*
X4758095Y-4309271D01*
X4758095Y-4914033D02*
X5483810Y-4914033D01*
X5483810Y-5579271D02*
X5483810Y-4309271D01*
X6753810Y-5579271D02*
X6028095Y-5579271D01*
X6390952Y-5579271D02*
X6390952Y-4309271D01*
X6390952Y-4309271D02*
X6270000Y-4490699D01*
X6270000Y-4490699D02*
X6149048Y-4611652D01*
X6149048Y-4611652D02*
X6028095Y-4672128D01*
D10*
X26855714Y-6684819D02*
X26855714Y-7399104D01*
X26855714Y-7399104D02*
X26808095Y-7541961D01*
X26808095Y-7541961D02*
X26712857Y-7637200D01*
X26712857Y-7637200D02*
X26570000Y-7684819D01*
X26570000Y-7684819D02*
X26474762Y-7684819D01*
X27093810Y-7780057D02*
X27855714Y-7780057D01*
X28427143Y-7161009D02*
X28570000Y-7208628D01*
X28570000Y-7208628D02*
X28617619Y-7256247D01*
X28617619Y-7256247D02*
X28665238Y-7351485D01*
X28665238Y-7351485D02*
X28665238Y-7494342D01*
X28665238Y-7494342D02*
X28617619Y-7589580D01*
X28617619Y-7589580D02*
X28570000Y-7637200D01*
X28570000Y-7637200D02*
X28474762Y-7684819D01*
X28474762Y-7684819D02*
X28093810Y-7684819D01*
X28093810Y-7684819D02*
X28093810Y-6684819D01*
X28093810Y-6684819D02*
X28427143Y-6684819D01*
X28427143Y-6684819D02*
X28522381Y-6732438D01*
X28522381Y-6732438D02*
X28570000Y-6780057D01*
X28570000Y-6780057D02*
X28617619Y-6875295D01*
X28617619Y-6875295D02*
X28617619Y-6970533D01*
X28617619Y-6970533D02*
X28570000Y-7065771D01*
X28570000Y-7065771D02*
X28522381Y-7113390D01*
X28522381Y-7113390D02*
X28427143Y-7161009D01*
X28427143Y-7161009D02*
X28093810Y-7161009D01*
X29093810Y-7684819D02*
X29093810Y-6684819D01*
X29093810Y-6684819D02*
X29474762Y-6684819D01*
X29474762Y-6684819D02*
X29570000Y-6732438D01*
X29570000Y-6732438D02*
X29617619Y-6780057D01*
X29617619Y-6780057D02*
X29665238Y-6875295D01*
X29665238Y-6875295D02*
X29665238Y-7018152D01*
X29665238Y-7018152D02*
X29617619Y-7113390D01*
X29617619Y-7113390D02*
X29570000Y-7161009D01*
X29570000Y-7161009D02*
X29474762Y-7208628D01*
X29474762Y-7208628D02*
X29093810Y-7208628D01*
X30617619Y-7684819D02*
X30046191Y-7684819D01*
X30331905Y-7684819D02*
X30331905Y-6684819D01*
X30331905Y-6684819D02*
X30236667Y-6827676D01*
X30236667Y-6827676D02*
X30141429Y-6922914D01*
X30141429Y-6922914D02*
X30046191Y-6970533D01*
X13726190Y-52309580D02*
X13678571Y-52357200D01*
X13678571Y-52357200D02*
X13535714Y-52404819D01*
X13535714Y-52404819D02*
X13440476Y-52404819D01*
X13440476Y-52404819D02*
X13297619Y-52357200D01*
X13297619Y-52357200D02*
X13202381Y-52261961D01*
X13202381Y-52261961D02*
X13154762Y-52166723D01*
X13154762Y-52166723D02*
X13107143Y-51976247D01*
X13107143Y-51976247D02*
X13107143Y-51833390D01*
X13107143Y-51833390D02*
X13154762Y-51642914D01*
X13154762Y-51642914D02*
X13202381Y-51547676D01*
X13202381Y-51547676D02*
X13297619Y-51452438D01*
X13297619Y-51452438D02*
X13440476Y-51404819D01*
X13440476Y-51404819D02*
X13535714Y-51404819D01*
X13535714Y-51404819D02*
X13678571Y-51452438D01*
X13678571Y-51452438D02*
X13726190Y-51500057D01*
X13916667Y-52500057D02*
X14678571Y-52500057D01*
X14916667Y-52404819D02*
X14916667Y-51404819D01*
X14916667Y-51404819D02*
X15154762Y-51404819D01*
X15154762Y-51404819D02*
X15297619Y-51452438D01*
X15297619Y-51452438D02*
X15392857Y-51547676D01*
X15392857Y-51547676D02*
X15440476Y-51642914D01*
X15440476Y-51642914D02*
X15488095Y-51833390D01*
X15488095Y-51833390D02*
X15488095Y-51976247D01*
X15488095Y-51976247D02*
X15440476Y-52166723D01*
X15440476Y-52166723D02*
X15392857Y-52261961D01*
X15392857Y-52261961D02*
X15297619Y-52357200D01*
X15297619Y-52357200D02*
X15154762Y-52404819D01*
X15154762Y-52404819D02*
X14916667Y-52404819D01*
X15916667Y-51881009D02*
X16250000Y-51881009D01*
X16392857Y-52404819D02*
X15916667Y-52404819D01*
X15916667Y-52404819D02*
X15916667Y-51404819D01*
X15916667Y-51404819D02*
X16392857Y-51404819D01*
X17392857Y-52309580D02*
X17345238Y-52357200D01*
X17345238Y-52357200D02*
X17202381Y-52404819D01*
X17202381Y-52404819D02*
X17107143Y-52404819D01*
X17107143Y-52404819D02*
X16964286Y-52357200D01*
X16964286Y-52357200D02*
X16869048Y-52261961D01*
X16869048Y-52261961D02*
X16821429Y-52166723D01*
X16821429Y-52166723D02*
X16773810Y-51976247D01*
X16773810Y-51976247D02*
X16773810Y-51833390D01*
X16773810Y-51833390D02*
X16821429Y-51642914D01*
X16821429Y-51642914D02*
X16869048Y-51547676D01*
X16869048Y-51547676D02*
X16964286Y-51452438D01*
X16964286Y-51452438D02*
X17107143Y-51404819D01*
X17107143Y-51404819D02*
X17202381Y-51404819D01*
X17202381Y-51404819D02*
X17345238Y-51452438D01*
X17345238Y-51452438D02*
X17392857Y-51500057D01*
X6865714Y-43984819D02*
X6865714Y-42984819D01*
X6865714Y-42984819D02*
X7103809Y-42984819D01*
X7103809Y-42984819D02*
X7246666Y-43032438D01*
X7246666Y-43032438D02*
X7341904Y-43127676D01*
X7341904Y-43127676D02*
X7389523Y-43222914D01*
X7389523Y-43222914D02*
X7437142Y-43413390D01*
X7437142Y-43413390D02*
X7437142Y-43556247D01*
X7437142Y-43556247D02*
X7389523Y-43746723D01*
X7389523Y-43746723D02*
X7341904Y-43841961D01*
X7341904Y-43841961D02*
X7246666Y-43937200D01*
X7246666Y-43937200D02*
X7103809Y-43984819D01*
X7103809Y-43984819D02*
X6865714Y-43984819D01*
X7627619Y-44080057D02*
X8389523Y-44080057D01*
X8627619Y-43984819D02*
X8627619Y-42984819D01*
X8627619Y-42984819D02*
X9008571Y-42984819D01*
X9008571Y-42984819D02*
X9103809Y-43032438D01*
X9103809Y-43032438D02*
X9151428Y-43080057D01*
X9151428Y-43080057D02*
X9199047Y-43175295D01*
X9199047Y-43175295D02*
X9199047Y-43318152D01*
X9199047Y-43318152D02*
X9151428Y-43413390D01*
X9151428Y-43413390D02*
X9103809Y-43461009D01*
X9103809Y-43461009D02*
X9008571Y-43508628D01*
X9008571Y-43508628D02*
X8627619Y-43508628D01*
X9532381Y-42984819D02*
X9770476Y-43984819D01*
X9770476Y-43984819D02*
X9960952Y-43270533D01*
X9960952Y-43270533D02*
X10151428Y-43984819D01*
X10151428Y-43984819D02*
X10389524Y-42984819D01*
X11341904Y-43984819D02*
X11008571Y-43508628D01*
X10770476Y-43984819D02*
X10770476Y-42984819D01*
X10770476Y-42984819D02*
X11151428Y-42984819D01*
X11151428Y-42984819D02*
X11246666Y-43032438D01*
X11246666Y-43032438D02*
X11294285Y-43080057D01*
X11294285Y-43080057D02*
X11341904Y-43175295D01*
X11341904Y-43175295D02*
X11341904Y-43318152D01*
X11341904Y-43318152D02*
X11294285Y-43413390D01*
X11294285Y-43413390D02*
X11246666Y-43461009D01*
X11246666Y-43461009D02*
X11151428Y-43508628D01*
X11151428Y-43508628D02*
X10770476Y-43508628D01*
X3738095Y-44354819D02*
X3738095Y-43354819D01*
X4309523Y-44354819D02*
X3880952Y-43783390D01*
X4309523Y-43354819D02*
X3738095Y-43926247D01*
D11*
X73306666Y-5579271D02*
X73306666Y-4309271D01*
X73306666Y-4309271D02*
X73730000Y-5216414D01*
X73730000Y-5216414D02*
X74153333Y-4309271D01*
X74153333Y-4309271D02*
X74153333Y-5579271D01*
X74758095Y-5579271D02*
X74758095Y-4309271D01*
X74758095Y-4914033D02*
X75483810Y-4914033D01*
X75483810Y-5579271D02*
X75483810Y-4309271D01*
X76028095Y-4430223D02*
X76088571Y-4369747D01*
X76088571Y-4369747D02*
X76209524Y-4309271D01*
X76209524Y-4309271D02*
X76511905Y-4309271D01*
X76511905Y-4309271D02*
X76632857Y-4369747D01*
X76632857Y-4369747D02*
X76693333Y-4430223D01*
X76693333Y-4430223D02*
X76753810Y-4551175D01*
X76753810Y-4551175D02*
X76753810Y-4672128D01*
X76753810Y-4672128D02*
X76693333Y-4853556D01*
X76693333Y-4853556D02*
X75967619Y-5579271D01*
X75967619Y-5579271D02*
X76753810Y-5579271D01*
D10*
X3730476Y-29134819D02*
X3730476Y-29849104D01*
X3730476Y-29849104D02*
X3682857Y-29991961D01*
X3682857Y-29991961D02*
X3587619Y-30087200D01*
X3587619Y-30087200D02*
X3444762Y-30134819D01*
X3444762Y-30134819D02*
X3349524Y-30134819D01*
X3968572Y-30230057D02*
X4730476Y-30230057D01*
X4968572Y-30134819D02*
X4968572Y-29134819D01*
X4968572Y-29134819D02*
X5349524Y-29134819D01*
X5349524Y-29134819D02*
X5444762Y-29182438D01*
X5444762Y-29182438D02*
X5492381Y-29230057D01*
X5492381Y-29230057D02*
X5540000Y-29325295D01*
X5540000Y-29325295D02*
X5540000Y-29468152D01*
X5540000Y-29468152D02*
X5492381Y-29563390D01*
X5492381Y-29563390D02*
X5444762Y-29611009D01*
X5444762Y-29611009D02*
X5349524Y-29658628D01*
X5349524Y-29658628D02*
X4968572Y-29658628D01*
X5873334Y-29134819D02*
X6111429Y-30134819D01*
X6111429Y-30134819D02*
X6301905Y-29420533D01*
X6301905Y-29420533D02*
X6492381Y-30134819D01*
X6492381Y-30134819D02*
X6730477Y-29134819D01*
X7682857Y-30134819D02*
X7349524Y-29658628D01*
X7111429Y-30134819D02*
X7111429Y-29134819D01*
X7111429Y-29134819D02*
X7492381Y-29134819D01*
X7492381Y-29134819D02*
X7587619Y-29182438D01*
X7587619Y-29182438D02*
X7635238Y-29230057D01*
X7635238Y-29230057D02*
X7682857Y-29325295D01*
X7682857Y-29325295D02*
X7682857Y-29468152D01*
X7682857Y-29468152D02*
X7635238Y-29563390D01*
X7635238Y-29563390D02*
X7587619Y-29611009D01*
X7587619Y-29611009D02*
X7492381Y-29658628D01*
X7492381Y-29658628D02*
X7111429Y-29658628D01*
X9714285Y-59074819D02*
X9714285Y-59789104D01*
X9714285Y-59789104D02*
X9666666Y-59931961D01*
X9666666Y-59931961D02*
X9571428Y-60027200D01*
X9571428Y-60027200D02*
X9428571Y-60074819D01*
X9428571Y-60074819D02*
X9333333Y-60074819D01*
X9952381Y-60170057D02*
X10714285Y-60170057D01*
X10952381Y-60074819D02*
X10952381Y-59074819D01*
X10952381Y-59074819D02*
X11285714Y-59789104D01*
X11285714Y-59789104D02*
X11619047Y-59074819D01*
X11619047Y-59074819D02*
X11619047Y-60074819D01*
X12000000Y-59074819D02*
X12619047Y-59074819D01*
X12619047Y-59074819D02*
X12285714Y-59455771D01*
X12285714Y-59455771D02*
X12428571Y-59455771D01*
X12428571Y-59455771D02*
X12523809Y-59503390D01*
X12523809Y-59503390D02*
X12571428Y-59551009D01*
X12571428Y-59551009D02*
X12619047Y-59646247D01*
X12619047Y-59646247D02*
X12619047Y-59884342D01*
X12619047Y-59884342D02*
X12571428Y-59979580D01*
X12571428Y-59979580D02*
X12523809Y-60027200D01*
X12523809Y-60027200D02*
X12428571Y-60074819D01*
X12428571Y-60074819D02*
X12142857Y-60074819D01*
X12142857Y-60074819D02*
X12047619Y-60027200D01*
X12047619Y-60027200D02*
X12000000Y-59979580D01*
X19595238Y-43551009D02*
X19738095Y-43598628D01*
X19738095Y-43598628D02*
X19785714Y-43646247D01*
X19785714Y-43646247D02*
X19833333Y-43741485D01*
X19833333Y-43741485D02*
X19833333Y-43884342D01*
X19833333Y-43884342D02*
X19785714Y-43979580D01*
X19785714Y-43979580D02*
X19738095Y-44027200D01*
X19738095Y-44027200D02*
X19642857Y-44074819D01*
X19642857Y-44074819D02*
X19261905Y-44074819D01*
X19261905Y-44074819D02*
X19261905Y-43074819D01*
X19261905Y-43074819D02*
X19595238Y-43074819D01*
X19595238Y-43074819D02*
X19690476Y-43122438D01*
X19690476Y-43122438D02*
X19738095Y-43170057D01*
X19738095Y-43170057D02*
X19785714Y-43265295D01*
X19785714Y-43265295D02*
X19785714Y-43360533D01*
X19785714Y-43360533D02*
X19738095Y-43455771D01*
X19738095Y-43455771D02*
X19690476Y-43503390D01*
X19690476Y-43503390D02*
X19595238Y-43551009D01*
X19595238Y-43551009D02*
X19261905Y-43551009D01*
X20166667Y-43074819D02*
X20833333Y-43074819D01*
X20833333Y-43074819D02*
X20166667Y-44074819D01*
X20166667Y-44074819D02*
X20833333Y-44074819D01*
X58381428Y-24084819D02*
X58048095Y-23608628D01*
X57810000Y-24084819D02*
X57810000Y-23084819D01*
X57810000Y-23084819D02*
X58190952Y-23084819D01*
X58190952Y-23084819D02*
X58286190Y-23132438D01*
X58286190Y-23132438D02*
X58333809Y-23180057D01*
X58333809Y-23180057D02*
X58381428Y-23275295D01*
X58381428Y-23275295D02*
X58381428Y-23418152D01*
X58381428Y-23418152D02*
X58333809Y-23513390D01*
X58333809Y-23513390D02*
X58286190Y-23561009D01*
X58286190Y-23561009D02*
X58190952Y-23608628D01*
X58190952Y-23608628D02*
X57810000Y-23608628D01*
X58571905Y-24180057D02*
X59333809Y-24180057D01*
X60048095Y-24084819D02*
X59571905Y-24084819D01*
X59571905Y-24084819D02*
X59571905Y-23084819D01*
X60381429Y-23561009D02*
X60714762Y-23561009D01*
X60857619Y-24084819D02*
X60381429Y-24084819D01*
X60381429Y-24084819D02*
X60381429Y-23084819D01*
X60381429Y-23084819D02*
X60857619Y-23084819D01*
X61286191Y-24084819D02*
X61286191Y-23084819D01*
X61286191Y-23084819D02*
X61524286Y-23084819D01*
X61524286Y-23084819D02*
X61667143Y-23132438D01*
X61667143Y-23132438D02*
X61762381Y-23227676D01*
X61762381Y-23227676D02*
X61810000Y-23322914D01*
X61810000Y-23322914D02*
X61857619Y-23513390D01*
X61857619Y-23513390D02*
X61857619Y-23656247D01*
X61857619Y-23656247D02*
X61810000Y-23846723D01*
X61810000Y-23846723D02*
X61762381Y-23941961D01*
X61762381Y-23941961D02*
X61667143Y-24037200D01*
X61667143Y-24037200D02*
X61524286Y-24084819D01*
X61524286Y-24084819D02*
X61286191Y-24084819D01*
X38428571Y-48684819D02*
X38428571Y-49399104D01*
X38428571Y-49399104D02*
X38380952Y-49541961D01*
X38380952Y-49541961D02*
X38285714Y-49637200D01*
X38285714Y-49637200D02*
X38142857Y-49684819D01*
X38142857Y-49684819D02*
X38047619Y-49684819D01*
X38666667Y-49780057D02*
X39428571Y-49780057D01*
X39666667Y-49684819D02*
X39666667Y-48684819D01*
X40142857Y-49684819D02*
X40142857Y-48684819D01*
X40142857Y-48684819D02*
X40476190Y-49399104D01*
X40476190Y-49399104D02*
X40809523Y-48684819D01*
X40809523Y-48684819D02*
X40809523Y-49684819D01*
X41285714Y-48684819D02*
X41285714Y-49494342D01*
X41285714Y-49494342D02*
X41333333Y-49589580D01*
X41333333Y-49589580D02*
X41380952Y-49637200D01*
X41380952Y-49637200D02*
X41476190Y-49684819D01*
X41476190Y-49684819D02*
X41666666Y-49684819D01*
X41666666Y-49684819D02*
X41761904Y-49637200D01*
X41761904Y-49637200D02*
X41809523Y-49589580D01*
X41809523Y-49589580D02*
X41857142Y-49494342D01*
X41857142Y-49494342D02*
X41857142Y-48684819D01*
X67714285Y-6074819D02*
X67714285Y-6789104D01*
X67714285Y-6789104D02*
X67666666Y-6931961D01*
X67666666Y-6931961D02*
X67571428Y-7027200D01*
X67571428Y-7027200D02*
X67428571Y-7074819D01*
X67428571Y-7074819D02*
X67333333Y-7074819D01*
X67952381Y-7170057D02*
X68714285Y-7170057D01*
X68952381Y-7074819D02*
X68952381Y-6074819D01*
X68952381Y-6074819D02*
X69285714Y-6789104D01*
X69285714Y-6789104D02*
X69619047Y-6074819D01*
X69619047Y-6074819D02*
X69619047Y-7074819D01*
X70619047Y-7074819D02*
X70047619Y-7074819D01*
X70333333Y-7074819D02*
X70333333Y-6074819D01*
X70333333Y-6074819D02*
X70238095Y-6217676D01*
X70238095Y-6217676D02*
X70142857Y-6312914D01*
X70142857Y-6312914D02*
X70047619Y-6360533D01*
X58357618Y-12084819D02*
X58024285Y-11608628D01*
X57786190Y-12084819D02*
X57786190Y-11084819D01*
X57786190Y-11084819D02*
X58167142Y-11084819D01*
X58167142Y-11084819D02*
X58262380Y-11132438D01*
X58262380Y-11132438D02*
X58309999Y-11180057D01*
X58309999Y-11180057D02*
X58357618Y-11275295D01*
X58357618Y-11275295D02*
X58357618Y-11418152D01*
X58357618Y-11418152D02*
X58309999Y-11513390D01*
X58309999Y-11513390D02*
X58262380Y-11561009D01*
X58262380Y-11561009D02*
X58167142Y-11608628D01*
X58167142Y-11608628D02*
X57786190Y-11608628D01*
X58548095Y-12180057D02*
X59309999Y-12180057D01*
X59500476Y-12037200D02*
X59643333Y-12084819D01*
X59643333Y-12084819D02*
X59881428Y-12084819D01*
X59881428Y-12084819D02*
X59976666Y-12037200D01*
X59976666Y-12037200D02*
X60024285Y-11989580D01*
X60024285Y-11989580D02*
X60071904Y-11894342D01*
X60071904Y-11894342D02*
X60071904Y-11799104D01*
X60071904Y-11799104D02*
X60024285Y-11703866D01*
X60024285Y-11703866D02*
X59976666Y-11656247D01*
X59976666Y-11656247D02*
X59881428Y-11608628D01*
X59881428Y-11608628D02*
X59690952Y-11561009D01*
X59690952Y-11561009D02*
X59595714Y-11513390D01*
X59595714Y-11513390D02*
X59548095Y-11465771D01*
X59548095Y-11465771D02*
X59500476Y-11370533D01*
X59500476Y-11370533D02*
X59500476Y-11275295D01*
X59500476Y-11275295D02*
X59548095Y-11180057D01*
X59548095Y-11180057D02*
X59595714Y-11132438D01*
X59595714Y-11132438D02*
X59690952Y-11084819D01*
X59690952Y-11084819D02*
X59929047Y-11084819D01*
X59929047Y-11084819D02*
X60071904Y-11132438D01*
X61071904Y-11989580D02*
X61024285Y-12037200D01*
X61024285Y-12037200D02*
X60881428Y-12084819D01*
X60881428Y-12084819D02*
X60786190Y-12084819D01*
X60786190Y-12084819D02*
X60643333Y-12037200D01*
X60643333Y-12037200D02*
X60548095Y-11941961D01*
X60548095Y-11941961D02*
X60500476Y-11846723D01*
X60500476Y-11846723D02*
X60452857Y-11656247D01*
X60452857Y-11656247D02*
X60452857Y-11513390D01*
X60452857Y-11513390D02*
X60500476Y-11322914D01*
X60500476Y-11322914D02*
X60548095Y-11227676D01*
X60548095Y-11227676D02*
X60643333Y-11132438D01*
X60643333Y-11132438D02*
X60786190Y-11084819D01*
X60786190Y-11084819D02*
X60881428Y-11084819D01*
X60881428Y-11084819D02*
X61024285Y-11132438D01*
X61024285Y-11132438D02*
X61071904Y-11180057D01*
X61976666Y-12084819D02*
X61500476Y-12084819D01*
X61500476Y-12084819D02*
X61500476Y-11084819D01*
%TO.C,LED1*%
D12*
X54710000Y-30455000D02*
X54710000Y-33545000D01*
X54710000Y-30455170D02*
G75*
G02*
X60260000Y-32000000I2560000J-1544830D01*
G01*
X60260000Y-32000000D02*
G75*
G02*
X54710000Y-33544830I-2990000J0D01*
G01*
X59770000Y-32000000D02*
G75*
G02*
X54770000Y-32000000I-2500000J0D01*
G01*
X54770000Y-32000000D02*
G75*
G02*
X59770000Y-32000000I2500000J0D01*
G01*
%TO.C,J_M2*%
X67620000Y-60620000D02*
X69000000Y-60620000D01*
X67620000Y-62000000D02*
X67620000Y-60620000D01*
X67620000Y-63270000D02*
X67620000Y-68460000D01*
X67620000Y-63270000D02*
X70380000Y-63270000D01*
X67620000Y-68460000D02*
X70380000Y-68460000D01*
X70380000Y-63270000D02*
X70380000Y-68460000D01*
%TO.C,J_BP2*%
X50100000Y-11270000D02*
X50100000Y-59590000D01*
X50100000Y-11270000D02*
X52760000Y-11270000D01*
X50100000Y-59590000D02*
X52760000Y-59590000D01*
X51430000Y-8670000D02*
X52760000Y-8670000D01*
X52760000Y-8670000D02*
X52760000Y-10000000D01*
X52760000Y-11270000D02*
X52760000Y-59590000D01*
%TO.C,J_RX*%
X71620000Y-28620000D02*
X73000000Y-28620000D01*
X71620000Y-30000000D02*
X71620000Y-28620000D01*
X71620000Y-31270000D02*
X71620000Y-44080000D01*
X71620000Y-31270000D02*
X74380000Y-31270000D01*
X71620000Y-44080000D02*
X74380000Y-44080000D01*
X74380000Y-31270000D02*
X74380000Y-44080000D01*
%TO.C,J_M4*%
X9620000Y-7620000D02*
X11000000Y-7620000D01*
X9620000Y-9000000D02*
X9620000Y-7620000D01*
X9620000Y-10270000D02*
X9620000Y-15460000D01*
X9620000Y-10270000D02*
X12380000Y-10270000D01*
X9620000Y-15460000D02*
X12380000Y-15460000D01*
X12380000Y-10270000D02*
X12380000Y-15460000D01*
%TO.C,R_SDA*%
X56540000Y-18630000D02*
X63080000Y-18630000D01*
X56540000Y-18960000D02*
X56540000Y-18630000D01*
X56540000Y-21040000D02*
X56540000Y-21370000D01*
X56540000Y-21370000D02*
X63080000Y-21370000D01*
X63080000Y-18630000D02*
X63080000Y-18960000D01*
X63080000Y-21370000D02*
X63080000Y-21040000D01*
%TO.C,C_BULK*%
X2340302Y-51685000D02*
X3140302Y-51685000D01*
X2740302Y-51285000D02*
X2740302Y-52085000D01*
X6750000Y-49920000D02*
X6750000Y-58080000D01*
X6790000Y-49920000D02*
X6790000Y-58080000D01*
X6830000Y-49921000D02*
X6830000Y-58079000D01*
X6870000Y-49922000D02*
X6870000Y-58078000D01*
X6910000Y-49923000D02*
X6910000Y-58077000D01*
X6950000Y-49925000D02*
X6950000Y-58075000D01*
X6990000Y-49927000D02*
X6990000Y-58073000D01*
X7030000Y-49930000D02*
X7030000Y-58070000D01*
X7070000Y-49932000D02*
X7070000Y-58068000D01*
X7110000Y-49936000D02*
X7110000Y-58064000D01*
X7150000Y-49939000D02*
X7150000Y-58061000D01*
X7190000Y-49944000D02*
X7190000Y-58056000D01*
X7230000Y-49948000D02*
X7230000Y-58052000D01*
X7270000Y-49953000D02*
X7270000Y-58047000D01*
X7310000Y-49958000D02*
X7310000Y-58042000D01*
X7350000Y-49964000D02*
X7350000Y-58036000D01*
X7390000Y-49970000D02*
X7390000Y-58030000D01*
X7430000Y-49977000D02*
X7430000Y-58023000D01*
X7470000Y-49983000D02*
X7470000Y-52960000D01*
X7470000Y-55040000D02*
X7470000Y-58017000D01*
X7510000Y-49991000D02*
X7510000Y-52960000D01*
X7510000Y-55040000D02*
X7510000Y-58009000D01*
X7550000Y-49998000D02*
X7550000Y-52960000D01*
X7550000Y-55040000D02*
X7550000Y-58002000D01*
X7590000Y-50007000D02*
X7590000Y-52960000D01*
X7590000Y-55040000D02*
X7590000Y-57993000D01*
X7630000Y-50015000D02*
X7630000Y-52960000D01*
X7630000Y-55040000D02*
X7630000Y-57985000D01*
X7670000Y-50024000D02*
X7670000Y-52960000D01*
X7670000Y-55040000D02*
X7670000Y-57976000D01*
X7710000Y-50033000D02*
X7710000Y-52960000D01*
X7710000Y-55040000D02*
X7710000Y-57967000D01*
X7750000Y-50043000D02*
X7750000Y-52960000D01*
X7750000Y-55040000D02*
X7750000Y-57957000D01*
X7790000Y-50053000D02*
X7790000Y-52960000D01*
X7790000Y-55040000D02*
X7790000Y-57947000D01*
X7830000Y-50064000D02*
X7830000Y-52960000D01*
X7830000Y-55040000D02*
X7830000Y-57936000D01*
X7870000Y-50075000D02*
X7870000Y-52960000D01*
X7870000Y-55040000D02*
X7870000Y-57925000D01*
X7910000Y-50087000D02*
X7910000Y-52960000D01*
X7910000Y-55040000D02*
X7910000Y-57913000D01*
X7950000Y-50099000D02*
X7950000Y-52960000D01*
X7950000Y-55040000D02*
X7950000Y-57901000D01*
X7990000Y-50111000D02*
X7990000Y-52960000D01*
X7990000Y-55040000D02*
X7990000Y-57889000D01*
X8030000Y-50124000D02*
X8030000Y-52960000D01*
X8030000Y-55040000D02*
X8030000Y-57876000D01*
X8070000Y-50137000D02*
X8070000Y-52960000D01*
X8070000Y-55040000D02*
X8070000Y-57863000D01*
X8110000Y-50151000D02*
X8110000Y-52960000D01*
X8110000Y-55040000D02*
X8110000Y-57849000D01*
X8150000Y-50165000D02*
X8150000Y-52960000D01*
X8150000Y-55040000D02*
X8150000Y-57835000D01*
X8190000Y-50180000D02*
X8190000Y-52960000D01*
X8190000Y-55040000D02*
X8190000Y-57820000D01*
X8230000Y-50195000D02*
X8230000Y-52960000D01*
X8230000Y-55040000D02*
X8230000Y-57805000D01*
X8270000Y-50211000D02*
X8270000Y-52960000D01*
X8270000Y-55040000D02*
X8270000Y-57789000D01*
X8310000Y-50227000D02*
X8310000Y-52960000D01*
X8310000Y-55040000D02*
X8310000Y-57773000D01*
X8350000Y-50243000D02*
X8350000Y-52960000D01*
X8350000Y-55040000D02*
X8350000Y-57757000D01*
X8390000Y-50260000D02*
X8390000Y-52960000D01*
X8390000Y-55040000D02*
X8390000Y-57740000D01*
X8430000Y-50278000D02*
X8430000Y-52960000D01*
X8430000Y-55040000D02*
X8430000Y-57722000D01*
X8470000Y-50296000D02*
X8470000Y-52960000D01*
X8470000Y-55040000D02*
X8470000Y-57704000D01*
X8510000Y-50315000D02*
X8510000Y-52960000D01*
X8510000Y-55040000D02*
X8510000Y-57685000D01*
X8550000Y-50334000D02*
X8550000Y-52960000D01*
X8550000Y-55040000D02*
X8550000Y-57666000D01*
X8590000Y-50354000D02*
X8590000Y-52960000D01*
X8590000Y-55040000D02*
X8590000Y-57646000D01*
X8630000Y-50374000D02*
X8630000Y-52960000D01*
X8630000Y-55040000D02*
X8630000Y-57626000D01*
X8670000Y-50395000D02*
X8670000Y-52960000D01*
X8670000Y-55040000D02*
X8670000Y-57605000D01*
X8710000Y-50416000D02*
X8710000Y-52960000D01*
X8710000Y-55040000D02*
X8710000Y-57584000D01*
X8750000Y-50438000D02*
X8750000Y-52960000D01*
X8750000Y-55040000D02*
X8750000Y-57562000D01*
X8790000Y-50461000D02*
X8790000Y-52960000D01*
X8790000Y-55040000D02*
X8790000Y-57539000D01*
X8830000Y-50484000D02*
X8830000Y-52960000D01*
X8830000Y-55040000D02*
X8830000Y-57516000D01*
X8870000Y-50507000D02*
X8870000Y-52960000D01*
X8870000Y-55040000D02*
X8870000Y-57493000D01*
X8910000Y-50532000D02*
X8910000Y-52960000D01*
X8910000Y-55040000D02*
X8910000Y-57468000D01*
X8950000Y-50557000D02*
X8950000Y-52960000D01*
X8950000Y-55040000D02*
X8950000Y-57443000D01*
X8990000Y-50582000D02*
X8990000Y-52960000D01*
X8990000Y-55040000D02*
X8990000Y-57418000D01*
X9030000Y-50608000D02*
X9030000Y-52960000D01*
X9030000Y-55040000D02*
X9030000Y-57392000D01*
X9070000Y-50635000D02*
X9070000Y-52960000D01*
X9070000Y-55040000D02*
X9070000Y-57365000D01*
X9110000Y-50663000D02*
X9110000Y-52960000D01*
X9110000Y-55040000D02*
X9110000Y-57337000D01*
X9150000Y-50691000D02*
X9150000Y-52960000D01*
X9150000Y-55040000D02*
X9150000Y-57309000D01*
X9190000Y-50720000D02*
X9190000Y-52960000D01*
X9190000Y-55040000D02*
X9190000Y-57280000D01*
X9230000Y-50750000D02*
X9230000Y-52960000D01*
X9230000Y-55040000D02*
X9230000Y-57250000D01*
X9270000Y-50781000D02*
X9270000Y-52960000D01*
X9270000Y-55040000D02*
X9270000Y-57219000D01*
X9310000Y-50812000D02*
X9310000Y-52960000D01*
X9310000Y-55040000D02*
X9310000Y-57188000D01*
X9350000Y-50844000D02*
X9350000Y-52960000D01*
X9350000Y-55040000D02*
X9350000Y-57156000D01*
X9390000Y-50877000D02*
X9390000Y-52960000D01*
X9390000Y-55040000D02*
X9390000Y-57123000D01*
X9430000Y-50911000D02*
X9430000Y-52960000D01*
X9430000Y-55040000D02*
X9430000Y-57089000D01*
X9470000Y-50945000D02*
X9470000Y-52960000D01*
X9470000Y-55040000D02*
X9470000Y-57055000D01*
X9510000Y-50981000D02*
X9510000Y-52960000D01*
X9510000Y-55040000D02*
X9510000Y-57019000D01*
X9550000Y-51018000D02*
X9550000Y-56982000D01*
X9590000Y-51055000D02*
X9590000Y-56945000D01*
X9630000Y-51094000D02*
X9630000Y-56906000D01*
X9670000Y-51133000D02*
X9670000Y-56867000D01*
X9710000Y-51174000D02*
X9710000Y-56826000D01*
X9750000Y-51216000D02*
X9750000Y-56784000D01*
X9790000Y-51259000D02*
X9790000Y-56741000D01*
X9830000Y-51304000D02*
X9830000Y-56696000D01*
X9870000Y-51349000D02*
X9870000Y-56651000D01*
X9910000Y-51396000D02*
X9910000Y-56604000D01*
X9950000Y-51445000D02*
X9950000Y-56555000D01*
X9990000Y-51495000D02*
X9990000Y-56505000D01*
X10030000Y-51547000D02*
X10030000Y-56453000D01*
X10070000Y-51600000D02*
X10070000Y-56400000D01*
X10110000Y-51656000D02*
X10110000Y-56344000D01*
X10150000Y-51713000D02*
X10150000Y-56287000D01*
X10190000Y-51773000D02*
X10190000Y-56227000D01*
X10230000Y-51835000D02*
X10230000Y-56165000D01*
X10270000Y-51899000D02*
X10270000Y-56101000D01*
X10310000Y-51966000D02*
X10310000Y-56034000D01*
X10350000Y-52036000D02*
X10350000Y-55964000D01*
X10390000Y-52110000D02*
X10390000Y-55890000D01*
X10430000Y-52187000D02*
X10430000Y-55813000D01*
X10470000Y-52269000D02*
X10470000Y-55731000D01*
X10510000Y-52356000D02*
X10510000Y-55644000D01*
X10550000Y-52448000D02*
X10550000Y-55552000D01*
X10590000Y-52547000D02*
X10590000Y-55453000D01*
X10630000Y-52654000D02*
X10630000Y-55346000D01*
X10670000Y-52772000D02*
X10670000Y-55228000D01*
X10710000Y-52903000D02*
X10710000Y-55097000D01*
X10750000Y-53053000D02*
X10750000Y-54947000D01*
X10790000Y-53232000D02*
X10790000Y-54768000D01*
X10830000Y-53467000D02*
X10830000Y-54533000D01*
X10870000Y-54000000D02*
G75*
G02*
X2630000Y-54000000I-4120000J0D01*
G01*
X2630000Y-54000000D02*
G75*
G02*
X10870000Y-54000000I4120000J0D01*
G01*
%TO.C,J_BP1*%
X27240000Y-11270000D02*
X27240000Y-59590000D01*
X27240000Y-11270000D02*
X29900000Y-11270000D01*
X27240000Y-59590000D02*
X29900000Y-59590000D01*
X28570000Y-8670000D02*
X29900000Y-8670000D01*
X29900000Y-8670000D02*
X29900000Y-10000000D01*
X29900000Y-11270000D02*
X29900000Y-59590000D01*
%TO.C,C_DEC*%
X14485000Y-53080000D02*
X16015000Y-53080000D01*
X16015000Y-54920000D02*
X14485000Y-54920000D01*
%TO.C,D_PWR*%
X5340000Y-46000000D02*
X6360000Y-46000000D01*
X7140000Y-44530000D02*
X7140000Y-47470000D01*
X7260000Y-44530000D02*
X7260000Y-47470000D01*
X7380000Y-44530000D02*
X7380000Y-47470000D01*
X12820000Y-46000000D02*
X11800000Y-46000000D01*
X6360000Y-44530000D02*
X11800000Y-44530000D01*
X11800000Y-47470000D01*
X6360000Y-47470000D01*
X6360000Y-44530000D01*
%TO.C,J_PWR*%
X340000Y-30680000D02*
X10740000Y-30680000D01*
X340000Y-33700000D02*
X10740000Y-33700000D01*
X340000Y-38600000D02*
X10740000Y-38600000D01*
X340000Y-40100000D02*
X10740000Y-40100000D01*
X340000Y-40720000D02*
X340000Y-30680000D01*
X2700000Y-40720000D02*
X340000Y-40720000D01*
X10740000Y-30680000D02*
X10740000Y-40720000D01*
X10740000Y-40720000D02*
X3300000Y-40720000D01*
X3000000Y-40720000D02*
X3440000Y-41330000D01*
X2560000Y-41330000D01*
X3000000Y-40720000D01*
G36*
X3440000Y-41330000D02*
G01*
X2560000Y-41330000D01*
X3000000Y-40720000D01*
X3440000Y-41330000D01*
G37*
%TO.C,J_M3*%
X9620000Y-60620000D02*
X11000000Y-60620000D01*
X9620000Y-62000000D02*
X9620000Y-60620000D01*
X9620000Y-63270000D02*
X9620000Y-68460000D01*
X9620000Y-63270000D02*
X12380000Y-63270000D01*
X9620000Y-68460000D02*
X12380000Y-68460000D01*
X12380000Y-63270000D02*
X12380000Y-68460000D01*
%TO.C,BZ*%
X18620000Y-44620000D02*
X20000000Y-44620000D01*
X18620000Y-46000000D02*
X18620000Y-44620000D01*
X18620000Y-47270000D02*
X18620000Y-49920000D01*
X18620000Y-47270000D02*
X21380000Y-47270000D01*
X18620000Y-49920000D02*
X21380000Y-49920000D01*
X21380000Y-47270000D02*
X21380000Y-49920000D01*
%TO.C,R_LED*%
X56540000Y-24630000D02*
X63080000Y-24630000D01*
X56540000Y-24960000D02*
X56540000Y-24630000D01*
X56540000Y-27040000D02*
X56540000Y-27370000D01*
X56540000Y-27370000D02*
X63080000Y-27370000D01*
X63080000Y-24630000D02*
X63080000Y-24960000D01*
X63080000Y-27370000D02*
X63080000Y-27040000D01*
%TO.C,J_IMU*%
X38670000Y-53270000D02*
X38670000Y-71110000D01*
X38670000Y-53270000D02*
X41330000Y-53270000D01*
X38670000Y-71110000D02*
X41330000Y-71110000D01*
X40000000Y-50670000D02*
X41330000Y-50670000D01*
X41330000Y-50670000D02*
X41330000Y-52000000D01*
X41330000Y-53270000D02*
X41330000Y-71110000D01*
%TO.C,J_M1*%
X67620000Y-7620000D02*
X69000000Y-7620000D01*
X67620000Y-9000000D02*
X67620000Y-7620000D01*
X67620000Y-10270000D02*
X67620000Y-15460000D01*
X67620000Y-10270000D02*
X70380000Y-10270000D01*
X67620000Y-15460000D02*
X70380000Y-15460000D01*
X70380000Y-10270000D02*
X70380000Y-15460000D01*
%TO.C,R_SCL*%
X56540000Y-12630000D02*
X63080000Y-12630000D01*
X56540000Y-12960000D02*
X56540000Y-12630000D01*
X56540000Y-15040000D02*
X56540000Y-15370000D01*
X56540000Y-15370000D02*
X63080000Y-15370000D01*
X63080000Y-12630000D02*
X63080000Y-12960000D01*
X63080000Y-15370000D02*
X63080000Y-15040000D01*
%TD*%
M02*
