M48
; DRILL file KiCad 10.0.4 date 2026-07-29T22:39:24
; FORMAT={-:-/ absolute / metric / decimal}
; #@! TF.CreationDate,2026-07-29T22:39:24+02:00
; #@! TF.GenerationSoftware,Kicad,Pcbnew,10.0.4
; #@! TF.FileFunction,MixedPlating,1,4
FMAT,2
METRIC
; #@! TA.AperFunction,Plated,PTH,ViaDrill
T1C0.300
; #@! TA.AperFunction,Plated,PTH,ComponentDrill
T2C0.800
; #@! TA.AperFunction,Plated,PTH,ComponentDrill
T3C0.900
; #@! TA.AperFunction,Plated,PTH,ComponentDrill
T4C1.000
; #@! TA.AperFunction,Plated,PTH,ComponentDrill
T5C1.100
; #@! TA.AperFunction,Plated,PTH,ComponentDrill
T6C1.300
; #@! TA.AperFunction,NonPlated,NPTH,ComponentDrill
T7C3.200
%
G90
G05
T1
X10.296Y-28.118
X30.901Y-49.16
X42.783Y-36.841
X46.327Y-51.228
X46.581Y-58.638
X49.105Y-55.052
T2
X5.0Y-54.0
X8.5Y-54.0
X14.0Y-54.0
X16.5Y-54.0
X56.0Y-14.0
X56.0Y-20.0
X56.0Y-26.0
X63.62Y-14.0
X63.62Y-20.0
X63.62Y-26.0
T3
X56.0Y-32.0
X58.54Y-32.0
T4
X11.0Y-9.0
X11.0Y-11.54
X11.0Y-14.08
X11.0Y-62.0
X11.0Y-64.54
X11.0Y-67.08
X20.0Y-46.0
X20.0Y-48.54
X28.57Y-10.0
X28.57Y-12.54
X28.57Y-15.08
X28.57Y-17.62
X28.57Y-20.16
X28.57Y-22.7
X28.57Y-25.24
X28.57Y-27.78
X28.57Y-30.32
X28.57Y-32.86
X28.57Y-35.4
X28.57Y-37.94
X28.57Y-40.48
X28.57Y-43.02
X28.57Y-45.56
X28.57Y-48.1
X28.57Y-50.64
X28.57Y-53.18
X28.57Y-55.72
X28.57Y-58.26
X40.0Y-52.0
X40.0Y-54.54
X40.0Y-57.08
X40.0Y-59.62
X40.0Y-62.16
X40.0Y-64.7
X40.0Y-67.24
X40.0Y-69.78
X51.43Y-10.0
X51.43Y-12.54
X51.43Y-15.08
X51.43Y-17.62
X51.43Y-20.16
X51.43Y-22.7
X51.43Y-25.24
X51.43Y-27.78
X51.43Y-30.32
X51.43Y-32.86
X51.43Y-35.4
X51.43Y-37.94
X51.43Y-40.48
X51.43Y-43.02
X51.43Y-45.56
X51.43Y-48.1
X51.43Y-50.64
X51.43Y-53.18
X51.43Y-55.72
X51.43Y-58.26
X69.0Y-9.0
X69.0Y-11.54
X69.0Y-14.08
X69.0Y-62.0
X69.0Y-64.54
X69.0Y-67.08
X73.0Y-30.0
X73.0Y-32.54
X73.0Y-35.08
X73.0Y-37.62
X73.0Y-40.16
X73.0Y-42.7
T5
X4.0Y-46.0
X14.16Y-46.0
T6
X3.0Y-36.0
X8.08Y-36.0
T7
X5.0Y-5.0
X5.0Y-75.0
X75.0Y-5.0
X75.0Y-75.0
M30
