%TF.GenerationSoftware,KiCad,Pcbnew,10.0.4*%
%TF.CreationDate,2026-07-29T22:39:24+02:00*%
%TF.ProjectId,Bluepill-QuadFC-Carrier,426c7565-7069-46c6-9c2d-517561644643,rev?*%
%TF.SameCoordinates,Original*%
%TF.FileFunction,AssemblyDrawing,Top*%
%FSLAX46Y46*%
G04 Gerber Fmt 4.6, Leading zero omitted, Abs format (unit mm)*
G04 Created by KiCad (PCBNEW 10.0.4) date 2026-07-29 22:39:24*
%MOMM*%
%LPD*%
G01*
G04 APERTURE LIST*
%ADD10C,0.150000*%
%ADD11C,0.120000*%
%ADD12C,0.158750*%
%ADD13C,0.090000*%
%ADD14C,0.100000*%
G04 APERTURE END LIST*
D10*
X54793809Y-36367200D02*
X54936666Y-36414819D01*
X54936666Y-36414819D02*
X55174761Y-36414819D01*
X55174761Y-36414819D02*
X55269999Y-36367200D01*
X55269999Y-36367200D02*
X55317618Y-36319580D01*
X55317618Y-36319580D02*
X55365237Y-36224342D01*
X55365237Y-36224342D02*
X55365237Y-36129104D01*
X55365237Y-36129104D02*
X55317618Y-36033866D01*
X55317618Y-36033866D02*
X55269999Y-35986247D01*
X55269999Y-35986247D02*
X55174761Y-35938628D01*
X55174761Y-35938628D02*
X54984285Y-35891009D01*
X54984285Y-35891009D02*
X54889047Y-35843390D01*
X54889047Y-35843390D02*
X54841428Y-35795771D01*
X54841428Y-35795771D02*
X54793809Y-35700533D01*
X54793809Y-35700533D02*
X54793809Y-35605295D01*
X54793809Y-35605295D02*
X54841428Y-35510057D01*
X54841428Y-35510057D02*
X54889047Y-35462438D01*
X54889047Y-35462438D02*
X54984285Y-35414819D01*
X54984285Y-35414819D02*
X55222380Y-35414819D01*
X55222380Y-35414819D02*
X55365237Y-35462438D01*
X55650952Y-35414819D02*
X56222380Y-35414819D01*
X55936666Y-36414819D02*
X55936666Y-35414819D01*
X56508095Y-36129104D02*
X56984285Y-36129104D01*
X56412857Y-36414819D02*
X56746190Y-35414819D01*
X56746190Y-35414819D02*
X57079523Y-36414819D01*
X57270000Y-35414819D02*
X57841428Y-35414819D01*
X57555714Y-36414819D02*
X57555714Y-35414819D01*
X58174762Y-35414819D02*
X58174762Y-36224342D01*
X58174762Y-36224342D02*
X58222381Y-36319580D01*
X58222381Y-36319580D02*
X58270000Y-36367200D01*
X58270000Y-36367200D02*
X58365238Y-36414819D01*
X58365238Y-36414819D02*
X58555714Y-36414819D01*
X58555714Y-36414819D02*
X58650952Y-36367200D01*
X58650952Y-36367200D02*
X58698571Y-36319580D01*
X58698571Y-36319580D02*
X58746190Y-36224342D01*
X58746190Y-36224342D02*
X58746190Y-35414819D01*
X59174762Y-36367200D02*
X59317619Y-36414819D01*
X59317619Y-36414819D02*
X59555714Y-36414819D01*
X59555714Y-36414819D02*
X59650952Y-36367200D01*
X59650952Y-36367200D02*
X59698571Y-36319580D01*
X59698571Y-36319580D02*
X59746190Y-36224342D01*
X59746190Y-36224342D02*
X59746190Y-36129104D01*
X59746190Y-36129104D02*
X59698571Y-36033866D01*
X59698571Y-36033866D02*
X59650952Y-35986247D01*
X59650952Y-35986247D02*
X59555714Y-35938628D01*
X59555714Y-35938628D02*
X59365238Y-35891009D01*
X59365238Y-35891009D02*
X59270000Y-35843390D01*
X59270000Y-35843390D02*
X59222381Y-35795771D01*
X59222381Y-35795771D02*
X59174762Y-35700533D01*
X59174762Y-35700533D02*
X59174762Y-35605295D01*
X59174762Y-35605295D02*
X59222381Y-35510057D01*
X59222381Y-35510057D02*
X59270000Y-35462438D01*
X59270000Y-35462438D02*
X59365238Y-35414819D01*
X59365238Y-35414819D02*
X59603333Y-35414819D01*
X59603333Y-35414819D02*
X59746190Y-35462438D01*
D11*
X56374761Y-32363855D02*
X55993809Y-32363855D01*
X55993809Y-32363855D02*
X55993809Y-31563855D01*
X56641428Y-31944807D02*
X56908094Y-31944807D01*
X57022380Y-32363855D02*
X56641428Y-32363855D01*
X56641428Y-32363855D02*
X56641428Y-31563855D01*
X56641428Y-31563855D02*
X57022380Y-31563855D01*
X57365238Y-32363855D02*
X57365238Y-31563855D01*
X57365238Y-31563855D02*
X57555714Y-31563855D01*
X57555714Y-31563855D02*
X57670000Y-31601950D01*
X57670000Y-31601950D02*
X57746190Y-31678140D01*
X57746190Y-31678140D02*
X57784285Y-31754331D01*
X57784285Y-31754331D02*
X57822381Y-31906712D01*
X57822381Y-31906712D02*
X57822381Y-32020998D01*
X57822381Y-32020998D02*
X57784285Y-32173379D01*
X57784285Y-32173379D02*
X57746190Y-32249569D01*
X57746190Y-32249569D02*
X57670000Y-32325760D01*
X57670000Y-32325760D02*
X57555714Y-32363855D01*
X57555714Y-32363855D02*
X57365238Y-32363855D01*
X58584285Y-32363855D02*
X58127142Y-32363855D01*
X58355714Y-32363855D02*
X58355714Y-31563855D01*
X58355714Y-31563855D02*
X58279523Y-31678140D01*
X58279523Y-31678140D02*
X58203333Y-31754331D01*
X58203333Y-31754331D02*
X58127142Y-31792426D01*
D10*
X66380952Y-69391009D02*
X66714285Y-69391009D01*
X66857142Y-69914819D02*
X66380952Y-69914819D01*
X66380952Y-69914819D02*
X66380952Y-68914819D01*
X66380952Y-68914819D02*
X66857142Y-68914819D01*
X67238095Y-69867200D02*
X67380952Y-69914819D01*
X67380952Y-69914819D02*
X67619047Y-69914819D01*
X67619047Y-69914819D02*
X67714285Y-69867200D01*
X67714285Y-69867200D02*
X67761904Y-69819580D01*
X67761904Y-69819580D02*
X67809523Y-69724342D01*
X67809523Y-69724342D02*
X67809523Y-69629104D01*
X67809523Y-69629104D02*
X67761904Y-69533866D01*
X67761904Y-69533866D02*
X67714285Y-69486247D01*
X67714285Y-69486247D02*
X67619047Y-69438628D01*
X67619047Y-69438628D02*
X67428571Y-69391009D01*
X67428571Y-69391009D02*
X67333333Y-69343390D01*
X67333333Y-69343390D02*
X67285714Y-69295771D01*
X67285714Y-69295771D02*
X67238095Y-69200533D01*
X67238095Y-69200533D02*
X67238095Y-69105295D01*
X67238095Y-69105295D02*
X67285714Y-69010057D01*
X67285714Y-69010057D02*
X67333333Y-68962438D01*
X67333333Y-68962438D02*
X67428571Y-68914819D01*
X67428571Y-68914819D02*
X67666666Y-68914819D01*
X67666666Y-68914819D02*
X67809523Y-68962438D01*
X68809523Y-69819580D02*
X68761904Y-69867200D01*
X68761904Y-69867200D02*
X68619047Y-69914819D01*
X68619047Y-69914819D02*
X68523809Y-69914819D01*
X68523809Y-69914819D02*
X68380952Y-69867200D01*
X68380952Y-69867200D02*
X68285714Y-69771961D01*
X68285714Y-69771961D02*
X68238095Y-69676723D01*
X68238095Y-69676723D02*
X68190476Y-69486247D01*
X68190476Y-69486247D02*
X68190476Y-69343390D01*
X68190476Y-69343390D02*
X68238095Y-69152914D01*
X68238095Y-69152914D02*
X68285714Y-69057676D01*
X68285714Y-69057676D02*
X68380952Y-68962438D01*
X68380952Y-68962438D02*
X68523809Y-68914819D01*
X68523809Y-68914819D02*
X68619047Y-68914819D01*
X68619047Y-68914819D02*
X68761904Y-68962438D01*
X68761904Y-68962438D02*
X68809523Y-69010057D01*
X69000000Y-70010057D02*
X69761904Y-70010057D01*
X70000000Y-69914819D02*
X70000000Y-68914819D01*
X70000000Y-68914819D02*
X70333333Y-69629104D01*
X70333333Y-69629104D02*
X70666666Y-68914819D01*
X70666666Y-68914819D02*
X70666666Y-69914819D01*
X71095238Y-69010057D02*
X71142857Y-68962438D01*
X71142857Y-68962438D02*
X71238095Y-68914819D01*
X71238095Y-68914819D02*
X71476190Y-68914819D01*
X71476190Y-68914819D02*
X71571428Y-68962438D01*
X71571428Y-68962438D02*
X71619047Y-69010057D01*
X71619047Y-69010057D02*
X71666666Y-69105295D01*
X71666666Y-69105295D02*
X71666666Y-69200533D01*
X71666666Y-69200533D02*
X71619047Y-69343390D01*
X71619047Y-69343390D02*
X71047619Y-69914819D01*
X71047619Y-69914819D02*
X71666666Y-69914819D01*
X68454819Y-65825714D02*
X69169104Y-65825714D01*
X69169104Y-65825714D02*
X69311961Y-65873333D01*
X69311961Y-65873333D02*
X69407200Y-65968571D01*
X69407200Y-65968571D02*
X69454819Y-66111428D01*
X69454819Y-66111428D02*
X69454819Y-66206666D01*
X69550057Y-65587619D02*
X69550057Y-64825714D01*
X69454819Y-64587618D02*
X68454819Y-64587618D01*
X68454819Y-64587618D02*
X69169104Y-64254285D01*
X69169104Y-64254285D02*
X68454819Y-63920952D01*
X68454819Y-63920952D02*
X69454819Y-63920952D01*
X68550057Y-63492380D02*
X68502438Y-63444761D01*
X68502438Y-63444761D02*
X68454819Y-63349523D01*
X68454819Y-63349523D02*
X68454819Y-63111428D01*
X68454819Y-63111428D02*
X68502438Y-63016190D01*
X68502438Y-63016190D02*
X68550057Y-62968571D01*
X68550057Y-62968571D02*
X68645295Y-62920952D01*
X68645295Y-62920952D02*
X68740533Y-62920952D01*
X68740533Y-62920952D02*
X68883390Y-62968571D01*
X68883390Y-62968571D02*
X69454819Y-63539999D01*
X69454819Y-63539999D02*
X69454819Y-62920952D01*
X48263332Y-60961009D02*
X48406189Y-61008628D01*
X48406189Y-61008628D02*
X48453808Y-61056247D01*
X48453808Y-61056247D02*
X48501427Y-61151485D01*
X48501427Y-61151485D02*
X48501427Y-61294342D01*
X48501427Y-61294342D02*
X48453808Y-61389580D01*
X48453808Y-61389580D02*
X48406189Y-61437200D01*
X48406189Y-61437200D02*
X48310951Y-61484819D01*
X48310951Y-61484819D02*
X47929999Y-61484819D01*
X47929999Y-61484819D02*
X47929999Y-60484819D01*
X47929999Y-60484819D02*
X48263332Y-60484819D01*
X48263332Y-60484819D02*
X48358570Y-60532438D01*
X48358570Y-60532438D02*
X48406189Y-60580057D01*
X48406189Y-60580057D02*
X48453808Y-60675295D01*
X48453808Y-60675295D02*
X48453808Y-60770533D01*
X48453808Y-60770533D02*
X48406189Y-60865771D01*
X48406189Y-60865771D02*
X48358570Y-60913390D01*
X48358570Y-60913390D02*
X48263332Y-60961009D01*
X48263332Y-60961009D02*
X47929999Y-60961009D01*
X49072856Y-61484819D02*
X48977618Y-61437200D01*
X48977618Y-61437200D02*
X48929999Y-61341961D01*
X48929999Y-61341961D02*
X48929999Y-60484819D01*
X49882380Y-60818152D02*
X49882380Y-61484819D01*
X49453809Y-60818152D02*
X49453809Y-61341961D01*
X49453809Y-61341961D02*
X49501428Y-61437200D01*
X49501428Y-61437200D02*
X49596666Y-61484819D01*
X49596666Y-61484819D02*
X49739523Y-61484819D01*
X49739523Y-61484819D02*
X49834761Y-61437200D01*
X49834761Y-61437200D02*
X49882380Y-61389580D01*
X50739523Y-61437200D02*
X50644285Y-61484819D01*
X50644285Y-61484819D02*
X50453809Y-61484819D01*
X50453809Y-61484819D02*
X50358571Y-61437200D01*
X50358571Y-61437200D02*
X50310952Y-61341961D01*
X50310952Y-61341961D02*
X50310952Y-60961009D01*
X50310952Y-60961009D02*
X50358571Y-60865771D01*
X50358571Y-60865771D02*
X50453809Y-60818152D01*
X50453809Y-60818152D02*
X50644285Y-60818152D01*
X50644285Y-60818152D02*
X50739523Y-60865771D01*
X50739523Y-60865771D02*
X50787142Y-60961009D01*
X50787142Y-60961009D02*
X50787142Y-61056247D01*
X50787142Y-61056247D02*
X50310952Y-61151485D01*
X51215714Y-60818152D02*
X51215714Y-61818152D01*
X51215714Y-60865771D02*
X51310952Y-60818152D01*
X51310952Y-60818152D02*
X51501428Y-60818152D01*
X51501428Y-60818152D02*
X51596666Y-60865771D01*
X51596666Y-60865771D02*
X51644285Y-60913390D01*
X51644285Y-60913390D02*
X51691904Y-61008628D01*
X51691904Y-61008628D02*
X51691904Y-61294342D01*
X51691904Y-61294342D02*
X51644285Y-61389580D01*
X51644285Y-61389580D02*
X51596666Y-61437200D01*
X51596666Y-61437200D02*
X51501428Y-61484819D01*
X51501428Y-61484819D02*
X51310952Y-61484819D01*
X51310952Y-61484819D02*
X51215714Y-61437200D01*
X52120476Y-61484819D02*
X52120476Y-60818152D01*
X52120476Y-60484819D02*
X52072857Y-60532438D01*
X52072857Y-60532438D02*
X52120476Y-60580057D01*
X52120476Y-60580057D02*
X52168095Y-60532438D01*
X52168095Y-60532438D02*
X52120476Y-60484819D01*
X52120476Y-60484819D02*
X52120476Y-60580057D01*
X52739523Y-61484819D02*
X52644285Y-61437200D01*
X52644285Y-61437200D02*
X52596666Y-61341961D01*
X52596666Y-61341961D02*
X52596666Y-60484819D01*
X53263333Y-61484819D02*
X53168095Y-61437200D01*
X53168095Y-61437200D02*
X53120476Y-61341961D01*
X53120476Y-61341961D02*
X53120476Y-60484819D01*
X53406191Y-61580057D02*
X54168095Y-61580057D01*
X54977619Y-61484819D02*
X54644286Y-61008628D01*
X54406191Y-61484819D02*
X54406191Y-60484819D01*
X54406191Y-60484819D02*
X54787143Y-60484819D01*
X54787143Y-60484819D02*
X54882381Y-60532438D01*
X54882381Y-60532438D02*
X54930000Y-60580057D01*
X54930000Y-60580057D02*
X54977619Y-60675295D01*
X54977619Y-60675295D02*
X54977619Y-60818152D01*
X54977619Y-60818152D02*
X54930000Y-60913390D01*
X54930000Y-60913390D02*
X54882381Y-60961009D01*
X54882381Y-60961009D02*
X54787143Y-61008628D01*
X54787143Y-61008628D02*
X54406191Y-61008628D01*
X50884819Y-35844285D02*
X51599104Y-35844285D01*
X51599104Y-35844285D02*
X51741961Y-35891904D01*
X51741961Y-35891904D02*
X51837200Y-35987142D01*
X51837200Y-35987142D02*
X51884819Y-36129999D01*
X51884819Y-36129999D02*
X51884819Y-36225237D01*
X51980057Y-35606190D02*
X51980057Y-34844285D01*
X51361009Y-34272856D02*
X51408628Y-34129999D01*
X51408628Y-34129999D02*
X51456247Y-34082380D01*
X51456247Y-34082380D02*
X51551485Y-34034761D01*
X51551485Y-34034761D02*
X51694342Y-34034761D01*
X51694342Y-34034761D02*
X51789580Y-34082380D01*
X51789580Y-34082380D02*
X51837200Y-34129999D01*
X51837200Y-34129999D02*
X51884819Y-34225237D01*
X51884819Y-34225237D02*
X51884819Y-34606189D01*
X51884819Y-34606189D02*
X50884819Y-34606189D01*
X50884819Y-34606189D02*
X50884819Y-34272856D01*
X50884819Y-34272856D02*
X50932438Y-34177618D01*
X50932438Y-34177618D02*
X50980057Y-34129999D01*
X50980057Y-34129999D02*
X51075295Y-34082380D01*
X51075295Y-34082380D02*
X51170533Y-34082380D01*
X51170533Y-34082380D02*
X51265771Y-34129999D01*
X51265771Y-34129999D02*
X51313390Y-34177618D01*
X51313390Y-34177618D02*
X51361009Y-34272856D01*
X51361009Y-34272856D02*
X51361009Y-34606189D01*
X51884819Y-33606189D02*
X50884819Y-33606189D01*
X50884819Y-33606189D02*
X50884819Y-33225237D01*
X50884819Y-33225237D02*
X50932438Y-33129999D01*
X50932438Y-33129999D02*
X50980057Y-33082380D01*
X50980057Y-33082380D02*
X51075295Y-33034761D01*
X51075295Y-33034761D02*
X51218152Y-33034761D01*
X51218152Y-33034761D02*
X51313390Y-33082380D01*
X51313390Y-33082380D02*
X51361009Y-33129999D01*
X51361009Y-33129999D02*
X51408628Y-33225237D01*
X51408628Y-33225237D02*
X51408628Y-33606189D01*
X50980057Y-32653808D02*
X50932438Y-32606189D01*
X50932438Y-32606189D02*
X50884819Y-32510951D01*
X50884819Y-32510951D02*
X50884819Y-32272856D01*
X50884819Y-32272856D02*
X50932438Y-32177618D01*
X50932438Y-32177618D02*
X50980057Y-32129999D01*
X50980057Y-32129999D02*
X51075295Y-32082380D01*
X51075295Y-32082380D02*
X51170533Y-32082380D01*
X51170533Y-32082380D02*
X51313390Y-32129999D01*
X51313390Y-32129999D02*
X51884819Y-32701427D01*
X51884819Y-32701427D02*
X51884819Y-32082380D01*
X71452380Y-45534819D02*
X71119047Y-45058628D01*
X70880952Y-45534819D02*
X70880952Y-44534819D01*
X70880952Y-44534819D02*
X71261904Y-44534819D01*
X71261904Y-44534819D02*
X71357142Y-44582438D01*
X71357142Y-44582438D02*
X71404761Y-44630057D01*
X71404761Y-44630057D02*
X71452380Y-44725295D01*
X71452380Y-44725295D02*
X71452380Y-44868152D01*
X71452380Y-44868152D02*
X71404761Y-44963390D01*
X71404761Y-44963390D02*
X71357142Y-45011009D01*
X71357142Y-45011009D02*
X71261904Y-45058628D01*
X71261904Y-45058628D02*
X70880952Y-45058628D01*
X72452380Y-45439580D02*
X72404761Y-45487200D01*
X72404761Y-45487200D02*
X72261904Y-45534819D01*
X72261904Y-45534819D02*
X72166666Y-45534819D01*
X72166666Y-45534819D02*
X72023809Y-45487200D01*
X72023809Y-45487200D02*
X71928571Y-45391961D01*
X71928571Y-45391961D02*
X71880952Y-45296723D01*
X71880952Y-45296723D02*
X71833333Y-45106247D01*
X71833333Y-45106247D02*
X71833333Y-44963390D01*
X71833333Y-44963390D02*
X71880952Y-44772914D01*
X71880952Y-44772914D02*
X71928571Y-44677676D01*
X71928571Y-44677676D02*
X72023809Y-44582438D01*
X72023809Y-44582438D02*
X72166666Y-44534819D01*
X72166666Y-44534819D02*
X72261904Y-44534819D01*
X72261904Y-44534819D02*
X72404761Y-44582438D01*
X72404761Y-44582438D02*
X72452380Y-44630057D01*
X72642857Y-45630057D02*
X73404761Y-45630057D01*
X74214285Y-45534819D02*
X73880952Y-45058628D01*
X73642857Y-45534819D02*
X73642857Y-44534819D01*
X73642857Y-44534819D02*
X74023809Y-44534819D01*
X74023809Y-44534819D02*
X74119047Y-44582438D01*
X74119047Y-44582438D02*
X74166666Y-44630057D01*
X74166666Y-44630057D02*
X74214285Y-44725295D01*
X74214285Y-44725295D02*
X74214285Y-44868152D01*
X74214285Y-44868152D02*
X74166666Y-44963390D01*
X74166666Y-44963390D02*
X74119047Y-45011009D01*
X74119047Y-45011009D02*
X74023809Y-45058628D01*
X74023809Y-45058628D02*
X73642857Y-45058628D01*
X74547619Y-44534819D02*
X75214285Y-45534819D01*
X75214285Y-44534819D02*
X74547619Y-45534819D01*
X72454819Y-37564285D02*
X73169104Y-37564285D01*
X73169104Y-37564285D02*
X73311961Y-37611904D01*
X73311961Y-37611904D02*
X73407200Y-37707142D01*
X73407200Y-37707142D02*
X73454819Y-37849999D01*
X73454819Y-37849999D02*
X73454819Y-37945237D01*
X73550057Y-37326190D02*
X73550057Y-36564285D01*
X73454819Y-35754761D02*
X72978628Y-36088094D01*
X73454819Y-36326189D02*
X72454819Y-36326189D01*
X72454819Y-36326189D02*
X72454819Y-35945237D01*
X72454819Y-35945237D02*
X72502438Y-35849999D01*
X72502438Y-35849999D02*
X72550057Y-35802380D01*
X72550057Y-35802380D02*
X72645295Y-35754761D01*
X72645295Y-35754761D02*
X72788152Y-35754761D01*
X72788152Y-35754761D02*
X72883390Y-35802380D01*
X72883390Y-35802380D02*
X72931009Y-35849999D01*
X72931009Y-35849999D02*
X72978628Y-35945237D01*
X72978628Y-35945237D02*
X72978628Y-36326189D01*
X72454819Y-35421427D02*
X73454819Y-34754761D01*
X72454819Y-34754761D02*
X73454819Y-35421427D01*
X8380952Y-16391009D02*
X8714285Y-16391009D01*
X8857142Y-16914819D02*
X8380952Y-16914819D01*
X8380952Y-16914819D02*
X8380952Y-15914819D01*
X8380952Y-15914819D02*
X8857142Y-15914819D01*
X9238095Y-16867200D02*
X9380952Y-16914819D01*
X9380952Y-16914819D02*
X9619047Y-16914819D01*
X9619047Y-16914819D02*
X9714285Y-16867200D01*
X9714285Y-16867200D02*
X9761904Y-16819580D01*
X9761904Y-16819580D02*
X9809523Y-16724342D01*
X9809523Y-16724342D02*
X9809523Y-16629104D01*
X9809523Y-16629104D02*
X9761904Y-16533866D01*
X9761904Y-16533866D02*
X9714285Y-16486247D01*
X9714285Y-16486247D02*
X9619047Y-16438628D01*
X9619047Y-16438628D02*
X9428571Y-16391009D01*
X9428571Y-16391009D02*
X9333333Y-16343390D01*
X9333333Y-16343390D02*
X9285714Y-16295771D01*
X9285714Y-16295771D02*
X9238095Y-16200533D01*
X9238095Y-16200533D02*
X9238095Y-16105295D01*
X9238095Y-16105295D02*
X9285714Y-16010057D01*
X9285714Y-16010057D02*
X9333333Y-15962438D01*
X9333333Y-15962438D02*
X9428571Y-15914819D01*
X9428571Y-15914819D02*
X9666666Y-15914819D01*
X9666666Y-15914819D02*
X9809523Y-15962438D01*
X10809523Y-16819580D02*
X10761904Y-16867200D01*
X10761904Y-16867200D02*
X10619047Y-16914819D01*
X10619047Y-16914819D02*
X10523809Y-16914819D01*
X10523809Y-16914819D02*
X10380952Y-16867200D01*
X10380952Y-16867200D02*
X10285714Y-16771961D01*
X10285714Y-16771961D02*
X10238095Y-16676723D01*
X10238095Y-16676723D02*
X10190476Y-16486247D01*
X10190476Y-16486247D02*
X10190476Y-16343390D01*
X10190476Y-16343390D02*
X10238095Y-16152914D01*
X10238095Y-16152914D02*
X10285714Y-16057676D01*
X10285714Y-16057676D02*
X10380952Y-15962438D01*
X10380952Y-15962438D02*
X10523809Y-15914819D01*
X10523809Y-15914819D02*
X10619047Y-15914819D01*
X10619047Y-15914819D02*
X10761904Y-15962438D01*
X10761904Y-15962438D02*
X10809523Y-16010057D01*
X11000000Y-17010057D02*
X11761904Y-17010057D01*
X12000000Y-16914819D02*
X12000000Y-15914819D01*
X12000000Y-15914819D02*
X12333333Y-16629104D01*
X12333333Y-16629104D02*
X12666666Y-15914819D01*
X12666666Y-15914819D02*
X12666666Y-16914819D01*
X13571428Y-16248152D02*
X13571428Y-16914819D01*
X13333333Y-15867200D02*
X13095238Y-16581485D01*
X13095238Y-16581485D02*
X13714285Y-16581485D01*
X10454819Y-12825714D02*
X11169104Y-12825714D01*
X11169104Y-12825714D02*
X11311961Y-12873333D01*
X11311961Y-12873333D02*
X11407200Y-12968571D01*
X11407200Y-12968571D02*
X11454819Y-13111428D01*
X11454819Y-13111428D02*
X11454819Y-13206666D01*
X11550057Y-12587619D02*
X11550057Y-11825714D01*
X11454819Y-11587618D02*
X10454819Y-11587618D01*
X10454819Y-11587618D02*
X11169104Y-11254285D01*
X11169104Y-11254285D02*
X10454819Y-10920952D01*
X10454819Y-10920952D02*
X11454819Y-10920952D01*
X10788152Y-10016190D02*
X11454819Y-10016190D01*
X10407200Y-10254285D02*
X11121485Y-10492380D01*
X11121485Y-10492380D02*
X11121485Y-9873333D01*
D12*
X65233094Y-75579271D02*
X65233094Y-74309271D01*
X65233094Y-74309271D02*
X65656428Y-75216414D01*
X65656428Y-75216414D02*
X66079761Y-74309271D01*
X66079761Y-74309271D02*
X66079761Y-75579271D01*
X66865952Y-75579271D02*
X66745000Y-75518795D01*
X66745000Y-75518795D02*
X66684523Y-75458318D01*
X66684523Y-75458318D02*
X66624047Y-75337366D01*
X66624047Y-75337366D02*
X66624047Y-74974509D01*
X66624047Y-74974509D02*
X66684523Y-74853556D01*
X66684523Y-74853556D02*
X66745000Y-74793080D01*
X66745000Y-74793080D02*
X66865952Y-74732604D01*
X66865952Y-74732604D02*
X67047381Y-74732604D01*
X67047381Y-74732604D02*
X67168333Y-74793080D01*
X67168333Y-74793080D02*
X67228809Y-74853556D01*
X67228809Y-74853556D02*
X67289285Y-74974509D01*
X67289285Y-74974509D02*
X67289285Y-75337366D01*
X67289285Y-75337366D02*
X67228809Y-75458318D01*
X67228809Y-75458318D02*
X67168333Y-75518795D01*
X67168333Y-75518795D02*
X67047381Y-75579271D01*
X67047381Y-75579271D02*
X66865952Y-75579271D01*
X68377857Y-74732604D02*
X68377857Y-75579271D01*
X67833571Y-74732604D02*
X67833571Y-75397842D01*
X67833571Y-75397842D02*
X67894048Y-75518795D01*
X67894048Y-75518795D02*
X68015000Y-75579271D01*
X68015000Y-75579271D02*
X68196429Y-75579271D01*
X68196429Y-75579271D02*
X68317381Y-75518795D01*
X68317381Y-75518795D02*
X68377857Y-75458318D01*
X68982619Y-74732604D02*
X68982619Y-75579271D01*
X68982619Y-74853556D02*
X69043096Y-74793080D01*
X69043096Y-74793080D02*
X69164048Y-74732604D01*
X69164048Y-74732604D02*
X69345477Y-74732604D01*
X69345477Y-74732604D02*
X69466429Y-74793080D01*
X69466429Y-74793080D02*
X69526905Y-74914033D01*
X69526905Y-74914033D02*
X69526905Y-75579271D01*
X69950239Y-74732604D02*
X70434048Y-74732604D01*
X70131667Y-74309271D02*
X70131667Y-75397842D01*
X70131667Y-75397842D02*
X70192144Y-75518795D01*
X70192144Y-75518795D02*
X70313096Y-75579271D01*
X70313096Y-75579271D02*
X70434048Y-75579271D01*
X70857381Y-75579271D02*
X70857381Y-74732604D01*
X70857381Y-74309271D02*
X70796905Y-74369747D01*
X70796905Y-74369747D02*
X70857381Y-74430223D01*
X70857381Y-74430223D02*
X70917858Y-74369747D01*
X70917858Y-74369747D02*
X70857381Y-74309271D01*
X70857381Y-74309271D02*
X70857381Y-74430223D01*
X71462143Y-74732604D02*
X71462143Y-75579271D01*
X71462143Y-74853556D02*
X71522620Y-74793080D01*
X71522620Y-74793080D02*
X71643572Y-74732604D01*
X71643572Y-74732604D02*
X71825001Y-74732604D01*
X71825001Y-74732604D02*
X71945953Y-74793080D01*
X71945953Y-74793080D02*
X72006429Y-74914033D01*
X72006429Y-74914033D02*
X72006429Y-75579271D01*
X73155477Y-74732604D02*
X73155477Y-75760699D01*
X73155477Y-75760699D02*
X73095001Y-75881652D01*
X73095001Y-75881652D02*
X73034525Y-75942128D01*
X73034525Y-75942128D02*
X72913572Y-76002604D01*
X72913572Y-76002604D02*
X72732144Y-76002604D01*
X72732144Y-76002604D02*
X72611191Y-75942128D01*
X73155477Y-75518795D02*
X73034525Y-75579271D01*
X73034525Y-75579271D02*
X72792620Y-75579271D01*
X72792620Y-75579271D02*
X72671668Y-75518795D01*
X72671668Y-75518795D02*
X72611191Y-75458318D01*
X72611191Y-75458318D02*
X72550715Y-75337366D01*
X72550715Y-75337366D02*
X72550715Y-74974509D01*
X72550715Y-74974509D02*
X72611191Y-74853556D01*
X72611191Y-74853556D02*
X72671668Y-74793080D01*
X72671668Y-74793080D02*
X72792620Y-74732604D01*
X72792620Y-74732604D02*
X73034525Y-74732604D01*
X73034525Y-74732604D02*
X73155477Y-74793080D01*
X73760239Y-75579271D02*
X73760239Y-74309271D01*
X73760239Y-74914033D02*
X74485954Y-74914033D01*
X74485954Y-75579271D02*
X74485954Y-74309271D01*
X75272144Y-75579271D02*
X75151192Y-75518795D01*
X75151192Y-75518795D02*
X75090715Y-75458318D01*
X75090715Y-75458318D02*
X75030239Y-75337366D01*
X75030239Y-75337366D02*
X75030239Y-74974509D01*
X75030239Y-74974509D02*
X75090715Y-74853556D01*
X75090715Y-74853556D02*
X75151192Y-74793080D01*
X75151192Y-74793080D02*
X75272144Y-74732604D01*
X75272144Y-74732604D02*
X75453573Y-74732604D01*
X75453573Y-74732604D02*
X75574525Y-74793080D01*
X75574525Y-74793080D02*
X75635001Y-74853556D01*
X75635001Y-74853556D02*
X75695477Y-74974509D01*
X75695477Y-74974509D02*
X75695477Y-75337366D01*
X75695477Y-75337366D02*
X75635001Y-75458318D01*
X75635001Y-75458318D02*
X75574525Y-75518795D01*
X75574525Y-75518795D02*
X75453573Y-75579271D01*
X75453573Y-75579271D02*
X75272144Y-75579271D01*
X76421192Y-75579271D02*
X76300240Y-75518795D01*
X76300240Y-75518795D02*
X76239763Y-75397842D01*
X76239763Y-75397842D02*
X76239763Y-74309271D01*
X77388811Y-75518795D02*
X77267859Y-75579271D01*
X77267859Y-75579271D02*
X77025954Y-75579271D01*
X77025954Y-75579271D02*
X76905001Y-75518795D01*
X76905001Y-75518795D02*
X76844525Y-75397842D01*
X76844525Y-75397842D02*
X76844525Y-74914033D01*
X76844525Y-74914033D02*
X76905001Y-74793080D01*
X76905001Y-74793080D02*
X77025954Y-74732604D01*
X77025954Y-74732604D02*
X77267859Y-74732604D01*
X77267859Y-74732604D02*
X77388811Y-74793080D01*
X77388811Y-74793080D02*
X77449287Y-74914033D01*
X77449287Y-74914033D02*
X77449287Y-75034985D01*
X77449287Y-75034985D02*
X76844525Y-75155937D01*
X77691192Y-75700223D02*
X78658811Y-75700223D01*
X78840239Y-74309271D02*
X79626430Y-74309271D01*
X79626430Y-74309271D02*
X79203096Y-74793080D01*
X79203096Y-74793080D02*
X79384525Y-74793080D01*
X79384525Y-74793080D02*
X79505477Y-74853556D01*
X79505477Y-74853556D02*
X79565953Y-74914033D01*
X79565953Y-74914033D02*
X79626430Y-75034985D01*
X79626430Y-75034985D02*
X79626430Y-75337366D01*
X79626430Y-75337366D02*
X79565953Y-75458318D01*
X79565953Y-75458318D02*
X79505477Y-75518795D01*
X79505477Y-75518795D02*
X79384525Y-75579271D01*
X79384525Y-75579271D02*
X79021668Y-75579271D01*
X79021668Y-75579271D02*
X78900715Y-75518795D01*
X78900715Y-75518795D02*
X78840239Y-75458318D01*
X80170715Y-75458318D02*
X80231192Y-75518795D01*
X80231192Y-75518795D02*
X80170715Y-75579271D01*
X80170715Y-75579271D02*
X80110239Y-75518795D01*
X80110239Y-75518795D02*
X80170715Y-75458318D01*
X80170715Y-75458318D02*
X80170715Y-75579271D01*
X80715001Y-74430223D02*
X80775477Y-74369747D01*
X80775477Y-74369747D02*
X80896430Y-74309271D01*
X80896430Y-74309271D02*
X81198811Y-74309271D01*
X81198811Y-74309271D02*
X81319763Y-74369747D01*
X81319763Y-74369747D02*
X81380239Y-74430223D01*
X81380239Y-74430223D02*
X81440716Y-74551175D01*
X81440716Y-74551175D02*
X81440716Y-74672128D01*
X81440716Y-74672128D02*
X81380239Y-74853556D01*
X81380239Y-74853556D02*
X80654525Y-75579271D01*
X80654525Y-75579271D02*
X81440716Y-75579271D01*
X81985001Y-75579271D02*
X81985001Y-74732604D01*
X81985001Y-74853556D02*
X82045478Y-74793080D01*
X82045478Y-74793080D02*
X82166430Y-74732604D01*
X82166430Y-74732604D02*
X82347859Y-74732604D01*
X82347859Y-74732604D02*
X82468811Y-74793080D01*
X82468811Y-74793080D02*
X82529287Y-74914033D01*
X82529287Y-74914033D02*
X82529287Y-75579271D01*
X82529287Y-74914033D02*
X82589763Y-74793080D01*
X82589763Y-74793080D02*
X82710716Y-74732604D01*
X82710716Y-74732604D02*
X82892144Y-74732604D01*
X82892144Y-74732604D02*
X83013097Y-74793080D01*
X83013097Y-74793080D02*
X83073573Y-74914033D01*
X83073573Y-74914033D02*
X83073573Y-75579271D01*
X83678334Y-75579271D02*
X83678334Y-74732604D01*
X83678334Y-74853556D02*
X83738811Y-74793080D01*
X83738811Y-74793080D02*
X83859763Y-74732604D01*
X83859763Y-74732604D02*
X84041192Y-74732604D01*
X84041192Y-74732604D02*
X84162144Y-74793080D01*
X84162144Y-74793080D02*
X84222620Y-74914033D01*
X84222620Y-74914033D02*
X84222620Y-75579271D01*
X84222620Y-74914033D02*
X84283096Y-74793080D01*
X84283096Y-74793080D02*
X84404049Y-74732604D01*
X84404049Y-74732604D02*
X84585477Y-74732604D01*
X84585477Y-74732604D02*
X84706430Y-74793080D01*
X84706430Y-74793080D02*
X84766906Y-74914033D01*
X84766906Y-74914033D02*
X84766906Y-75579271D01*
D10*
X58881428Y-22158152D02*
X58881428Y-22824819D01*
X58643333Y-21777200D02*
X58405238Y-22491485D01*
X58405238Y-22491485D02*
X59024285Y-22491485D01*
X59405238Y-22729580D02*
X59452857Y-22777200D01*
X59452857Y-22777200D02*
X59405238Y-22824819D01*
X59405238Y-22824819D02*
X59357619Y-22777200D01*
X59357619Y-22777200D02*
X59405238Y-22729580D01*
X59405238Y-22729580D02*
X59405238Y-22824819D01*
X59786190Y-21824819D02*
X60452856Y-21824819D01*
X60452856Y-21824819D02*
X60024285Y-22824819D01*
X60833809Y-22824819D02*
X60833809Y-21824819D01*
X60929047Y-22443866D02*
X61214761Y-22824819D01*
X61214761Y-22158152D02*
X60833809Y-22539104D01*
X58333809Y-20454819D02*
X58000476Y-19978628D01*
X57762381Y-20454819D02*
X57762381Y-19454819D01*
X57762381Y-19454819D02*
X58143333Y-19454819D01*
X58143333Y-19454819D02*
X58238571Y-19502438D01*
X58238571Y-19502438D02*
X58286190Y-19550057D01*
X58286190Y-19550057D02*
X58333809Y-19645295D01*
X58333809Y-19645295D02*
X58333809Y-19788152D01*
X58333809Y-19788152D02*
X58286190Y-19883390D01*
X58286190Y-19883390D02*
X58238571Y-19931009D01*
X58238571Y-19931009D02*
X58143333Y-19978628D01*
X58143333Y-19978628D02*
X57762381Y-19978628D01*
X58524286Y-20550057D02*
X59286190Y-20550057D01*
X59476667Y-20407200D02*
X59619524Y-20454819D01*
X59619524Y-20454819D02*
X59857619Y-20454819D01*
X59857619Y-20454819D02*
X59952857Y-20407200D01*
X59952857Y-20407200D02*
X60000476Y-20359580D01*
X60000476Y-20359580D02*
X60048095Y-20264342D01*
X60048095Y-20264342D02*
X60048095Y-20169104D01*
X60048095Y-20169104D02*
X60000476Y-20073866D01*
X60000476Y-20073866D02*
X59952857Y-20026247D01*
X59952857Y-20026247D02*
X59857619Y-19978628D01*
X59857619Y-19978628D02*
X59667143Y-19931009D01*
X59667143Y-19931009D02*
X59571905Y-19883390D01*
X59571905Y-19883390D02*
X59524286Y-19835771D01*
X59524286Y-19835771D02*
X59476667Y-19740533D01*
X59476667Y-19740533D02*
X59476667Y-19645295D01*
X59476667Y-19645295D02*
X59524286Y-19550057D01*
X59524286Y-19550057D02*
X59571905Y-19502438D01*
X59571905Y-19502438D02*
X59667143Y-19454819D01*
X59667143Y-19454819D02*
X59905238Y-19454819D01*
X59905238Y-19454819D02*
X60048095Y-19502438D01*
X60476667Y-20454819D02*
X60476667Y-19454819D01*
X60476667Y-19454819D02*
X60714762Y-19454819D01*
X60714762Y-19454819D02*
X60857619Y-19502438D01*
X60857619Y-19502438D02*
X60952857Y-19597676D01*
X60952857Y-19597676D02*
X61000476Y-19692914D01*
X61000476Y-19692914D02*
X61048095Y-19883390D01*
X61048095Y-19883390D02*
X61048095Y-20026247D01*
X61048095Y-20026247D02*
X61000476Y-20216723D01*
X61000476Y-20216723D02*
X60952857Y-20311961D01*
X60952857Y-20311961D02*
X60857619Y-20407200D01*
X60857619Y-20407200D02*
X60714762Y-20454819D01*
X60714762Y-20454819D02*
X60476667Y-20454819D01*
X61429048Y-20169104D02*
X61905238Y-20169104D01*
X61333810Y-20454819D02*
X61667143Y-19454819D01*
X61667143Y-19454819D02*
X62000476Y-20454819D01*
X3202380Y-59038152D02*
X3202380Y-59704819D01*
X2964285Y-58657200D02*
X2726190Y-59371485D01*
X2726190Y-59371485D02*
X3345237Y-59371485D01*
X3630952Y-58704819D02*
X4297618Y-58704819D01*
X4297618Y-58704819D02*
X3869047Y-59704819D01*
X4869047Y-58704819D02*
X4964285Y-58704819D01*
X4964285Y-58704819D02*
X5059523Y-58752438D01*
X5059523Y-58752438D02*
X5107142Y-58800057D01*
X5107142Y-58800057D02*
X5154761Y-58895295D01*
X5154761Y-58895295D02*
X5202380Y-59085771D01*
X5202380Y-59085771D02*
X5202380Y-59323866D01*
X5202380Y-59323866D02*
X5154761Y-59514342D01*
X5154761Y-59514342D02*
X5107142Y-59609580D01*
X5107142Y-59609580D02*
X5059523Y-59657200D01*
X5059523Y-59657200D02*
X4964285Y-59704819D01*
X4964285Y-59704819D02*
X4869047Y-59704819D01*
X4869047Y-59704819D02*
X4773809Y-59657200D01*
X4773809Y-59657200D02*
X4726190Y-59609580D01*
X4726190Y-59609580D02*
X4678571Y-59514342D01*
X4678571Y-59514342D02*
X4630952Y-59323866D01*
X4630952Y-59323866D02*
X4630952Y-59085771D01*
X4630952Y-59085771D02*
X4678571Y-58895295D01*
X4678571Y-58895295D02*
X4726190Y-58800057D01*
X4726190Y-58800057D02*
X4773809Y-58752438D01*
X4773809Y-58752438D02*
X4869047Y-58704819D01*
X6059523Y-59038152D02*
X6059523Y-59704819D01*
X5630952Y-59038152D02*
X5630952Y-59561961D01*
X5630952Y-59561961D02*
X5678571Y-59657200D01*
X5678571Y-59657200D02*
X5773809Y-59704819D01*
X5773809Y-59704819D02*
X5916666Y-59704819D01*
X5916666Y-59704819D02*
X6011904Y-59657200D01*
X6011904Y-59657200D02*
X6059523Y-59609580D01*
X6869047Y-59181009D02*
X6535714Y-59181009D01*
X6535714Y-59704819D02*
X6535714Y-58704819D01*
X6535714Y-58704819D02*
X7011904Y-58704819D01*
X8107142Y-58657200D02*
X7250000Y-59942914D01*
X8964285Y-59704819D02*
X8392857Y-59704819D01*
X8678571Y-59704819D02*
X8678571Y-58704819D01*
X8678571Y-58704819D02*
X8583333Y-58847676D01*
X8583333Y-58847676D02*
X8488095Y-58942914D01*
X8488095Y-58942914D02*
X8392857Y-58990533D01*
X9821428Y-58704819D02*
X9630952Y-58704819D01*
X9630952Y-58704819D02*
X9535714Y-58752438D01*
X9535714Y-58752438D02*
X9488095Y-58800057D01*
X9488095Y-58800057D02*
X9392857Y-58942914D01*
X9392857Y-58942914D02*
X9345238Y-59133390D01*
X9345238Y-59133390D02*
X9345238Y-59514342D01*
X9345238Y-59514342D02*
X9392857Y-59609580D01*
X9392857Y-59609580D02*
X9440476Y-59657200D01*
X9440476Y-59657200D02*
X9535714Y-59704819D01*
X9535714Y-59704819D02*
X9726190Y-59704819D01*
X9726190Y-59704819D02*
X9821428Y-59657200D01*
X9821428Y-59657200D02*
X9869047Y-59609580D01*
X9869047Y-59609580D02*
X9916666Y-59514342D01*
X9916666Y-59514342D02*
X9916666Y-59276247D01*
X9916666Y-59276247D02*
X9869047Y-59181009D01*
X9869047Y-59181009D02*
X9821428Y-59133390D01*
X9821428Y-59133390D02*
X9726190Y-59085771D01*
X9726190Y-59085771D02*
X9535714Y-59085771D01*
X9535714Y-59085771D02*
X9440476Y-59133390D01*
X9440476Y-59133390D02*
X9392857Y-59181009D01*
X9392857Y-59181009D02*
X9345238Y-59276247D01*
X10202381Y-58704819D02*
X10535714Y-59704819D01*
X10535714Y-59704819D02*
X10869047Y-58704819D01*
X4749999Y-54359580D02*
X4702380Y-54407200D01*
X4702380Y-54407200D02*
X4559523Y-54454819D01*
X4559523Y-54454819D02*
X4464285Y-54454819D01*
X4464285Y-54454819D02*
X4321428Y-54407200D01*
X4321428Y-54407200D02*
X4226190Y-54311961D01*
X4226190Y-54311961D02*
X4178571Y-54216723D01*
X4178571Y-54216723D02*
X4130952Y-54026247D01*
X4130952Y-54026247D02*
X4130952Y-53883390D01*
X4130952Y-53883390D02*
X4178571Y-53692914D01*
X4178571Y-53692914D02*
X4226190Y-53597676D01*
X4226190Y-53597676D02*
X4321428Y-53502438D01*
X4321428Y-53502438D02*
X4464285Y-53454819D01*
X4464285Y-53454819D02*
X4559523Y-53454819D01*
X4559523Y-53454819D02*
X4702380Y-53502438D01*
X4702380Y-53502438D02*
X4749999Y-53550057D01*
X4940476Y-54550057D02*
X5702380Y-54550057D01*
X6273809Y-53931009D02*
X6416666Y-53978628D01*
X6416666Y-53978628D02*
X6464285Y-54026247D01*
X6464285Y-54026247D02*
X6511904Y-54121485D01*
X6511904Y-54121485D02*
X6511904Y-54264342D01*
X6511904Y-54264342D02*
X6464285Y-54359580D01*
X6464285Y-54359580D02*
X6416666Y-54407200D01*
X6416666Y-54407200D02*
X6321428Y-54454819D01*
X6321428Y-54454819D02*
X5940476Y-54454819D01*
X5940476Y-54454819D02*
X5940476Y-53454819D01*
X5940476Y-53454819D02*
X6273809Y-53454819D01*
X6273809Y-53454819D02*
X6369047Y-53502438D01*
X6369047Y-53502438D02*
X6416666Y-53550057D01*
X6416666Y-53550057D02*
X6464285Y-53645295D01*
X6464285Y-53645295D02*
X6464285Y-53740533D01*
X6464285Y-53740533D02*
X6416666Y-53835771D01*
X6416666Y-53835771D02*
X6369047Y-53883390D01*
X6369047Y-53883390D02*
X6273809Y-53931009D01*
X6273809Y-53931009D02*
X5940476Y-53931009D01*
X6940476Y-53454819D02*
X6940476Y-54264342D01*
X6940476Y-54264342D02*
X6988095Y-54359580D01*
X6988095Y-54359580D02*
X7035714Y-54407200D01*
X7035714Y-54407200D02*
X7130952Y-54454819D01*
X7130952Y-54454819D02*
X7321428Y-54454819D01*
X7321428Y-54454819D02*
X7416666Y-54407200D01*
X7416666Y-54407200D02*
X7464285Y-54359580D01*
X7464285Y-54359580D02*
X7511904Y-54264342D01*
X7511904Y-54264342D02*
X7511904Y-53454819D01*
X8464285Y-54454819D02*
X7988095Y-54454819D01*
X7988095Y-54454819D02*
X7988095Y-53454819D01*
X8797619Y-54454819D02*
X8797619Y-53454819D01*
X9369047Y-54454819D02*
X8940476Y-53883390D01*
X9369047Y-53454819D02*
X8797619Y-54026247D01*
D12*
X-4766905Y-75579271D02*
X-4766905Y-74309271D01*
X-4766905Y-74309271D02*
X-4343571Y-75216414D01*
X-4343571Y-75216414D02*
X-3920238Y-74309271D01*
X-3920238Y-74309271D02*
X-3920238Y-75579271D01*
X-3134047Y-75579271D02*
X-3254999Y-75518795D01*
X-3254999Y-75518795D02*
X-3315476Y-75458318D01*
X-3315476Y-75458318D02*
X-3375952Y-75337366D01*
X-3375952Y-75337366D02*
X-3375952Y-74974509D01*
X-3375952Y-74974509D02*
X-3315476Y-74853556D01*
X-3315476Y-74853556D02*
X-3254999Y-74793080D01*
X-3254999Y-74793080D02*
X-3134047Y-74732604D01*
X-3134047Y-74732604D02*
X-2952618Y-74732604D01*
X-2952618Y-74732604D02*
X-2831666Y-74793080D01*
X-2831666Y-74793080D02*
X-2771190Y-74853556D01*
X-2771190Y-74853556D02*
X-2710714Y-74974509D01*
X-2710714Y-74974509D02*
X-2710714Y-75337366D01*
X-2710714Y-75337366D02*
X-2771190Y-75458318D01*
X-2771190Y-75458318D02*
X-2831666Y-75518795D01*
X-2831666Y-75518795D02*
X-2952618Y-75579271D01*
X-2952618Y-75579271D02*
X-3134047Y-75579271D01*
X-1622142Y-74732604D02*
X-1622142Y-75579271D01*
X-2166428Y-74732604D02*
X-2166428Y-75397842D01*
X-2166428Y-75397842D02*
X-2105951Y-75518795D01*
X-2105951Y-75518795D02*
X-1984999Y-75579271D01*
X-1984999Y-75579271D02*
X-1803570Y-75579271D01*
X-1803570Y-75579271D02*
X-1682618Y-75518795D01*
X-1682618Y-75518795D02*
X-1622142Y-75458318D01*
X-1017380Y-74732604D02*
X-1017380Y-75579271D01*
X-1017380Y-74853556D02*
X-956903Y-74793080D01*
X-956903Y-74793080D02*
X-835951Y-74732604D01*
X-835951Y-74732604D02*
X-654522Y-74732604D01*
X-654522Y-74732604D02*
X-533570Y-74793080D01*
X-533570Y-74793080D02*
X-473094Y-74914033D01*
X-473094Y-74914033D02*
X-473094Y-75579271D01*
X-49760Y-74732604D02*
X434048Y-74732604D01*
X131667Y-74309271D02*
X131667Y-75397842D01*
X131667Y-75397842D02*
X192144Y-75518795D01*
X192144Y-75518795D02*
X313096Y-75579271D01*
X313096Y-75579271D02*
X434048Y-75579271D01*
X857381Y-75579271D02*
X857381Y-74732604D01*
X857381Y-74309271D02*
X796905Y-74369747D01*
X796905Y-74369747D02*
X857381Y-74430223D01*
X857381Y-74430223D02*
X917858Y-74369747D01*
X917858Y-74369747D02*
X857381Y-74309271D01*
X857381Y-74309271D02*
X857381Y-74430223D01*
X1462143Y-74732604D02*
X1462143Y-75579271D01*
X1462143Y-74853556D02*
X1522620Y-74793080D01*
X1522620Y-74793080D02*
X1643572Y-74732604D01*
X1643572Y-74732604D02*
X1825001Y-74732604D01*
X1825001Y-74732604D02*
X1945953Y-74793080D01*
X1945953Y-74793080D02*
X2006429Y-74914033D01*
X2006429Y-74914033D02*
X2006429Y-75579271D01*
X3155477Y-74732604D02*
X3155477Y-75760699D01*
X3155477Y-75760699D02*
X3095001Y-75881652D01*
X3095001Y-75881652D02*
X3034525Y-75942128D01*
X3034525Y-75942128D02*
X2913572Y-76002604D01*
X2913572Y-76002604D02*
X2732144Y-76002604D01*
X2732144Y-76002604D02*
X2611191Y-75942128D01*
X3155477Y-75518795D02*
X3034525Y-75579271D01*
X3034525Y-75579271D02*
X2792620Y-75579271D01*
X2792620Y-75579271D02*
X2671668Y-75518795D01*
X2671668Y-75518795D02*
X2611191Y-75458318D01*
X2611191Y-75458318D02*
X2550715Y-75337366D01*
X2550715Y-75337366D02*
X2550715Y-74974509D01*
X2550715Y-74974509D02*
X2611191Y-74853556D01*
X2611191Y-74853556D02*
X2671668Y-74793080D01*
X2671668Y-74793080D02*
X2792620Y-74732604D01*
X2792620Y-74732604D02*
X3034525Y-74732604D01*
X3034525Y-74732604D02*
X3155477Y-74793080D01*
X3760239Y-75579271D02*
X3760239Y-74309271D01*
X3760239Y-74914033D02*
X4485954Y-74914033D01*
X4485954Y-75579271D02*
X4485954Y-74309271D01*
X5272144Y-75579271D02*
X5151192Y-75518795D01*
X5151192Y-75518795D02*
X5090715Y-75458318D01*
X5090715Y-75458318D02*
X5030239Y-75337366D01*
X5030239Y-75337366D02*
X5030239Y-74974509D01*
X5030239Y-74974509D02*
X5090715Y-74853556D01*
X5090715Y-74853556D02*
X5151192Y-74793080D01*
X5151192Y-74793080D02*
X5272144Y-74732604D01*
X5272144Y-74732604D02*
X5453573Y-74732604D01*
X5453573Y-74732604D02*
X5574525Y-74793080D01*
X5574525Y-74793080D02*
X5635001Y-74853556D01*
X5635001Y-74853556D02*
X5695477Y-74974509D01*
X5695477Y-74974509D02*
X5695477Y-75337366D01*
X5695477Y-75337366D02*
X5635001Y-75458318D01*
X5635001Y-75458318D02*
X5574525Y-75518795D01*
X5574525Y-75518795D02*
X5453573Y-75579271D01*
X5453573Y-75579271D02*
X5272144Y-75579271D01*
X6421192Y-75579271D02*
X6300240Y-75518795D01*
X6300240Y-75518795D02*
X6239763Y-75397842D01*
X6239763Y-75397842D02*
X6239763Y-74309271D01*
X7388811Y-75518795D02*
X7267859Y-75579271D01*
X7267859Y-75579271D02*
X7025954Y-75579271D01*
X7025954Y-75579271D02*
X6905001Y-75518795D01*
X6905001Y-75518795D02*
X6844525Y-75397842D01*
X6844525Y-75397842D02*
X6844525Y-74914033D01*
X6844525Y-74914033D02*
X6905001Y-74793080D01*
X6905001Y-74793080D02*
X7025954Y-74732604D01*
X7025954Y-74732604D02*
X7267859Y-74732604D01*
X7267859Y-74732604D02*
X7388811Y-74793080D01*
X7388811Y-74793080D02*
X7449287Y-74914033D01*
X7449287Y-74914033D02*
X7449287Y-75034985D01*
X7449287Y-75034985D02*
X6844525Y-75155937D01*
X7691192Y-75700223D02*
X8658811Y-75700223D01*
X8840239Y-74309271D02*
X9626430Y-74309271D01*
X9626430Y-74309271D02*
X9203096Y-74793080D01*
X9203096Y-74793080D02*
X9384525Y-74793080D01*
X9384525Y-74793080D02*
X9505477Y-74853556D01*
X9505477Y-74853556D02*
X9565953Y-74914033D01*
X9565953Y-74914033D02*
X9626430Y-75034985D01*
X9626430Y-75034985D02*
X9626430Y-75337366D01*
X9626430Y-75337366D02*
X9565953Y-75458318D01*
X9565953Y-75458318D02*
X9505477Y-75518795D01*
X9505477Y-75518795D02*
X9384525Y-75579271D01*
X9384525Y-75579271D02*
X9021668Y-75579271D01*
X9021668Y-75579271D02*
X8900715Y-75518795D01*
X8900715Y-75518795D02*
X8840239Y-75458318D01*
X10170715Y-75458318D02*
X10231192Y-75518795D01*
X10231192Y-75518795D02*
X10170715Y-75579271D01*
X10170715Y-75579271D02*
X10110239Y-75518795D01*
X10110239Y-75518795D02*
X10170715Y-75458318D01*
X10170715Y-75458318D02*
X10170715Y-75579271D01*
X10715001Y-74430223D02*
X10775477Y-74369747D01*
X10775477Y-74369747D02*
X10896430Y-74309271D01*
X10896430Y-74309271D02*
X11198811Y-74309271D01*
X11198811Y-74309271D02*
X11319763Y-74369747D01*
X11319763Y-74369747D02*
X11380239Y-74430223D01*
X11380239Y-74430223D02*
X11440716Y-74551175D01*
X11440716Y-74551175D02*
X11440716Y-74672128D01*
X11440716Y-74672128D02*
X11380239Y-74853556D01*
X11380239Y-74853556D02*
X10654525Y-75579271D01*
X10654525Y-75579271D02*
X11440716Y-75579271D01*
X11985001Y-75579271D02*
X11985001Y-74732604D01*
X11985001Y-74853556D02*
X12045478Y-74793080D01*
X12045478Y-74793080D02*
X12166430Y-74732604D01*
X12166430Y-74732604D02*
X12347859Y-74732604D01*
X12347859Y-74732604D02*
X12468811Y-74793080D01*
X12468811Y-74793080D02*
X12529287Y-74914033D01*
X12529287Y-74914033D02*
X12529287Y-75579271D01*
X12529287Y-74914033D02*
X12589763Y-74793080D01*
X12589763Y-74793080D02*
X12710716Y-74732604D01*
X12710716Y-74732604D02*
X12892144Y-74732604D01*
X12892144Y-74732604D02*
X13013097Y-74793080D01*
X13013097Y-74793080D02*
X13073573Y-74914033D01*
X13073573Y-74914033D02*
X13073573Y-75579271D01*
X13678334Y-75579271D02*
X13678334Y-74732604D01*
X13678334Y-74853556D02*
X13738811Y-74793080D01*
X13738811Y-74793080D02*
X13859763Y-74732604D01*
X13859763Y-74732604D02*
X14041192Y-74732604D01*
X14041192Y-74732604D02*
X14162144Y-74793080D01*
X14162144Y-74793080D02*
X14222620Y-74914033D01*
X14222620Y-74914033D02*
X14222620Y-75579271D01*
X14222620Y-74914033D02*
X14283096Y-74793080D01*
X14283096Y-74793080D02*
X14404049Y-74732604D01*
X14404049Y-74732604D02*
X14585477Y-74732604D01*
X14585477Y-74732604D02*
X14706430Y-74793080D01*
X14706430Y-74793080D02*
X14766906Y-74914033D01*
X14766906Y-74914033D02*
X14766906Y-75579271D01*
X-4766905Y-5579271D02*
X-4766905Y-4309271D01*
X-4766905Y-4309271D02*
X-4343571Y-5216414D01*
X-4343571Y-5216414D02*
X-3920238Y-4309271D01*
X-3920238Y-4309271D02*
X-3920238Y-5579271D01*
X-3134047Y-5579271D02*
X-3254999Y-5518795D01*
X-3254999Y-5518795D02*
X-3315476Y-5458318D01*
X-3315476Y-5458318D02*
X-3375952Y-5337366D01*
X-3375952Y-5337366D02*
X-3375952Y-4974509D01*
X-3375952Y-4974509D02*
X-3315476Y-4853556D01*
X-3315476Y-4853556D02*
X-3254999Y-4793080D01*
X-3254999Y-4793080D02*
X-3134047Y-4732604D01*
X-3134047Y-4732604D02*
X-2952618Y-4732604D01*
X-2952618Y-4732604D02*
X-2831666Y-4793080D01*
X-2831666Y-4793080D02*
X-2771190Y-4853556D01*
X-2771190Y-4853556D02*
X-2710714Y-4974509D01*
X-2710714Y-4974509D02*
X-2710714Y-5337366D01*
X-2710714Y-5337366D02*
X-2771190Y-5458318D01*
X-2771190Y-5458318D02*
X-2831666Y-5518795D01*
X-2831666Y-5518795D02*
X-2952618Y-5579271D01*
X-2952618Y-5579271D02*
X-3134047Y-5579271D01*
X-1622142Y-4732604D02*
X-1622142Y-5579271D01*
X-2166428Y-4732604D02*
X-2166428Y-5397842D01*
X-2166428Y-5397842D02*
X-2105951Y-5518795D01*
X-2105951Y-5518795D02*
X-1984999Y-5579271D01*
X-1984999Y-5579271D02*
X-1803570Y-5579271D01*
X-1803570Y-5579271D02*
X-1682618Y-5518795D01*
X-1682618Y-5518795D02*
X-1622142Y-5458318D01*
X-1017380Y-4732604D02*
X-1017380Y-5579271D01*
X-1017380Y-4853556D02*
X-956903Y-4793080D01*
X-956903Y-4793080D02*
X-835951Y-4732604D01*
X-835951Y-4732604D02*
X-654522Y-4732604D01*
X-654522Y-4732604D02*
X-533570Y-4793080D01*
X-533570Y-4793080D02*
X-473094Y-4914033D01*
X-473094Y-4914033D02*
X-473094Y-5579271D01*
X-49760Y-4732604D02*
X434048Y-4732604D01*
X131667Y-4309271D02*
X131667Y-5397842D01*
X131667Y-5397842D02*
X192144Y-5518795D01*
X192144Y-5518795D02*
X313096Y-5579271D01*
X313096Y-5579271D02*
X434048Y-5579271D01*
X857381Y-5579271D02*
X857381Y-4732604D01*
X857381Y-4309271D02*
X796905Y-4369747D01*
X796905Y-4369747D02*
X857381Y-4430223D01*
X857381Y-4430223D02*
X917858Y-4369747D01*
X917858Y-4369747D02*
X857381Y-4309271D01*
X857381Y-4309271D02*
X857381Y-4430223D01*
X1462143Y-4732604D02*
X1462143Y-5579271D01*
X1462143Y-4853556D02*
X1522620Y-4793080D01*
X1522620Y-4793080D02*
X1643572Y-4732604D01*
X1643572Y-4732604D02*
X1825001Y-4732604D01*
X1825001Y-4732604D02*
X1945953Y-4793080D01*
X1945953Y-4793080D02*
X2006429Y-4914033D01*
X2006429Y-4914033D02*
X2006429Y-5579271D01*
X3155477Y-4732604D02*
X3155477Y-5760699D01*
X3155477Y-5760699D02*
X3095001Y-5881652D01*
X3095001Y-5881652D02*
X3034525Y-5942128D01*
X3034525Y-5942128D02*
X2913572Y-6002604D01*
X2913572Y-6002604D02*
X2732144Y-6002604D01*
X2732144Y-6002604D02*
X2611191Y-5942128D01*
X3155477Y-5518795D02*
X3034525Y-5579271D01*
X3034525Y-5579271D02*
X2792620Y-5579271D01*
X2792620Y-5579271D02*
X2671668Y-5518795D01*
X2671668Y-5518795D02*
X2611191Y-5458318D01*
X2611191Y-5458318D02*
X2550715Y-5337366D01*
X2550715Y-5337366D02*
X2550715Y-4974509D01*
X2550715Y-4974509D02*
X2611191Y-4853556D01*
X2611191Y-4853556D02*
X2671668Y-4793080D01*
X2671668Y-4793080D02*
X2792620Y-4732604D01*
X2792620Y-4732604D02*
X3034525Y-4732604D01*
X3034525Y-4732604D02*
X3155477Y-4793080D01*
X3760239Y-5579271D02*
X3760239Y-4309271D01*
X3760239Y-4914033D02*
X4485954Y-4914033D01*
X4485954Y-5579271D02*
X4485954Y-4309271D01*
X5272144Y-5579271D02*
X5151192Y-5518795D01*
X5151192Y-5518795D02*
X5090715Y-5458318D01*
X5090715Y-5458318D02*
X5030239Y-5337366D01*
X5030239Y-5337366D02*
X5030239Y-4974509D01*
X5030239Y-4974509D02*
X5090715Y-4853556D01*
X5090715Y-4853556D02*
X5151192Y-4793080D01*
X5151192Y-4793080D02*
X5272144Y-4732604D01*
X5272144Y-4732604D02*
X5453573Y-4732604D01*
X5453573Y-4732604D02*
X5574525Y-4793080D01*
X5574525Y-4793080D02*
X5635001Y-4853556D01*
X5635001Y-4853556D02*
X5695477Y-4974509D01*
X5695477Y-4974509D02*
X5695477Y-5337366D01*
X5695477Y-5337366D02*
X5635001Y-5458318D01*
X5635001Y-5458318D02*
X5574525Y-5518795D01*
X5574525Y-5518795D02*
X5453573Y-5579271D01*
X5453573Y-5579271D02*
X5272144Y-5579271D01*
X6421192Y-5579271D02*
X6300240Y-5518795D01*
X6300240Y-5518795D02*
X6239763Y-5397842D01*
X6239763Y-5397842D02*
X6239763Y-4309271D01*
X7388811Y-5518795D02*
X7267859Y-5579271D01*
X7267859Y-5579271D02*
X7025954Y-5579271D01*
X7025954Y-5579271D02*
X6905001Y-5518795D01*
X6905001Y-5518795D02*
X6844525Y-5397842D01*
X6844525Y-5397842D02*
X6844525Y-4914033D01*
X6844525Y-4914033D02*
X6905001Y-4793080D01*
X6905001Y-4793080D02*
X7025954Y-4732604D01*
X7025954Y-4732604D02*
X7267859Y-4732604D01*
X7267859Y-4732604D02*
X7388811Y-4793080D01*
X7388811Y-4793080D02*
X7449287Y-4914033D01*
X7449287Y-4914033D02*
X7449287Y-5034985D01*
X7449287Y-5034985D02*
X6844525Y-5155937D01*
X7691192Y-5700223D02*
X8658811Y-5700223D01*
X8840239Y-4309271D02*
X9626430Y-4309271D01*
X9626430Y-4309271D02*
X9203096Y-4793080D01*
X9203096Y-4793080D02*
X9384525Y-4793080D01*
X9384525Y-4793080D02*
X9505477Y-4853556D01*
X9505477Y-4853556D02*
X9565953Y-4914033D01*
X9565953Y-4914033D02*
X9626430Y-5034985D01*
X9626430Y-5034985D02*
X9626430Y-5337366D01*
X9626430Y-5337366D02*
X9565953Y-5458318D01*
X9565953Y-5458318D02*
X9505477Y-5518795D01*
X9505477Y-5518795D02*
X9384525Y-5579271D01*
X9384525Y-5579271D02*
X9021668Y-5579271D01*
X9021668Y-5579271D02*
X8900715Y-5518795D01*
X8900715Y-5518795D02*
X8840239Y-5458318D01*
X10170715Y-5458318D02*
X10231192Y-5518795D01*
X10231192Y-5518795D02*
X10170715Y-5579271D01*
X10170715Y-5579271D02*
X10110239Y-5518795D01*
X10110239Y-5518795D02*
X10170715Y-5458318D01*
X10170715Y-5458318D02*
X10170715Y-5579271D01*
X10715001Y-4430223D02*
X10775477Y-4369747D01*
X10775477Y-4369747D02*
X10896430Y-4309271D01*
X10896430Y-4309271D02*
X11198811Y-4309271D01*
X11198811Y-4309271D02*
X11319763Y-4369747D01*
X11319763Y-4369747D02*
X11380239Y-4430223D01*
X11380239Y-4430223D02*
X11440716Y-4551175D01*
X11440716Y-4551175D02*
X11440716Y-4672128D01*
X11440716Y-4672128D02*
X11380239Y-4853556D01*
X11380239Y-4853556D02*
X10654525Y-5579271D01*
X10654525Y-5579271D02*
X11440716Y-5579271D01*
X11985001Y-5579271D02*
X11985001Y-4732604D01*
X11985001Y-4853556D02*
X12045478Y-4793080D01*
X12045478Y-4793080D02*
X12166430Y-4732604D01*
X12166430Y-4732604D02*
X12347859Y-4732604D01*
X12347859Y-4732604D02*
X12468811Y-4793080D01*
X12468811Y-4793080D02*
X12529287Y-4914033D01*
X12529287Y-4914033D02*
X12529287Y-5579271D01*
X12529287Y-4914033D02*
X12589763Y-4793080D01*
X12589763Y-4793080D02*
X12710716Y-4732604D01*
X12710716Y-4732604D02*
X12892144Y-4732604D01*
X12892144Y-4732604D02*
X13013097Y-4793080D01*
X13013097Y-4793080D02*
X13073573Y-4914033D01*
X13073573Y-4914033D02*
X13073573Y-5579271D01*
X13678334Y-5579271D02*
X13678334Y-4732604D01*
X13678334Y-4853556D02*
X13738811Y-4793080D01*
X13738811Y-4793080D02*
X13859763Y-4732604D01*
X13859763Y-4732604D02*
X14041192Y-4732604D01*
X14041192Y-4732604D02*
X14162144Y-4793080D01*
X14162144Y-4793080D02*
X14222620Y-4914033D01*
X14222620Y-4914033D02*
X14222620Y-5579271D01*
X14222620Y-4914033D02*
X14283096Y-4793080D01*
X14283096Y-4793080D02*
X14404049Y-4732604D01*
X14404049Y-4732604D02*
X14585477Y-4732604D01*
X14585477Y-4732604D02*
X14706430Y-4793080D01*
X14706430Y-4793080D02*
X14766906Y-4914033D01*
X14766906Y-4914033D02*
X14766906Y-5579271D01*
D10*
X25498570Y-60961009D02*
X25641427Y-61008628D01*
X25641427Y-61008628D02*
X25689046Y-61056247D01*
X25689046Y-61056247D02*
X25736665Y-61151485D01*
X25736665Y-61151485D02*
X25736665Y-61294342D01*
X25736665Y-61294342D02*
X25689046Y-61389580D01*
X25689046Y-61389580D02*
X25641427Y-61437200D01*
X25641427Y-61437200D02*
X25546189Y-61484819D01*
X25546189Y-61484819D02*
X25165237Y-61484819D01*
X25165237Y-61484819D02*
X25165237Y-60484819D01*
X25165237Y-60484819D02*
X25498570Y-60484819D01*
X25498570Y-60484819D02*
X25593808Y-60532438D01*
X25593808Y-60532438D02*
X25641427Y-60580057D01*
X25641427Y-60580057D02*
X25689046Y-60675295D01*
X25689046Y-60675295D02*
X25689046Y-60770533D01*
X25689046Y-60770533D02*
X25641427Y-60865771D01*
X25641427Y-60865771D02*
X25593808Y-60913390D01*
X25593808Y-60913390D02*
X25498570Y-60961009D01*
X25498570Y-60961009D02*
X25165237Y-60961009D01*
X26308094Y-61484819D02*
X26212856Y-61437200D01*
X26212856Y-61437200D02*
X26165237Y-61341961D01*
X26165237Y-61341961D02*
X26165237Y-60484819D01*
X27117618Y-60818152D02*
X27117618Y-61484819D01*
X26689047Y-60818152D02*
X26689047Y-61341961D01*
X26689047Y-61341961D02*
X26736666Y-61437200D01*
X26736666Y-61437200D02*
X26831904Y-61484819D01*
X26831904Y-61484819D02*
X26974761Y-61484819D01*
X26974761Y-61484819D02*
X27069999Y-61437200D01*
X27069999Y-61437200D02*
X27117618Y-61389580D01*
X27974761Y-61437200D02*
X27879523Y-61484819D01*
X27879523Y-61484819D02*
X27689047Y-61484819D01*
X27689047Y-61484819D02*
X27593809Y-61437200D01*
X27593809Y-61437200D02*
X27546190Y-61341961D01*
X27546190Y-61341961D02*
X27546190Y-60961009D01*
X27546190Y-60961009D02*
X27593809Y-60865771D01*
X27593809Y-60865771D02*
X27689047Y-60818152D01*
X27689047Y-60818152D02*
X27879523Y-60818152D01*
X27879523Y-60818152D02*
X27974761Y-60865771D01*
X27974761Y-60865771D02*
X28022380Y-60961009D01*
X28022380Y-60961009D02*
X28022380Y-61056247D01*
X28022380Y-61056247D02*
X27546190Y-61151485D01*
X28450952Y-60818152D02*
X28450952Y-61818152D01*
X28450952Y-60865771D02*
X28546190Y-60818152D01*
X28546190Y-60818152D02*
X28736666Y-60818152D01*
X28736666Y-60818152D02*
X28831904Y-60865771D01*
X28831904Y-60865771D02*
X28879523Y-60913390D01*
X28879523Y-60913390D02*
X28927142Y-61008628D01*
X28927142Y-61008628D02*
X28927142Y-61294342D01*
X28927142Y-61294342D02*
X28879523Y-61389580D01*
X28879523Y-61389580D02*
X28831904Y-61437200D01*
X28831904Y-61437200D02*
X28736666Y-61484819D01*
X28736666Y-61484819D02*
X28546190Y-61484819D01*
X28546190Y-61484819D02*
X28450952Y-61437200D01*
X29355714Y-61484819D02*
X29355714Y-60818152D01*
X29355714Y-60484819D02*
X29308095Y-60532438D01*
X29308095Y-60532438D02*
X29355714Y-60580057D01*
X29355714Y-60580057D02*
X29403333Y-60532438D01*
X29403333Y-60532438D02*
X29355714Y-60484819D01*
X29355714Y-60484819D02*
X29355714Y-60580057D01*
X29974761Y-61484819D02*
X29879523Y-61437200D01*
X29879523Y-61437200D02*
X29831904Y-61341961D01*
X29831904Y-61341961D02*
X29831904Y-60484819D01*
X30498571Y-61484819D02*
X30403333Y-61437200D01*
X30403333Y-61437200D02*
X30355714Y-61341961D01*
X30355714Y-61341961D02*
X30355714Y-60484819D01*
X30641429Y-61580057D02*
X31403333Y-61580057D01*
X32117619Y-61484819D02*
X31641429Y-61484819D01*
X31641429Y-61484819D02*
X31641429Y-60484819D01*
X28024819Y-35844285D02*
X28739104Y-35844285D01*
X28739104Y-35844285D02*
X28881961Y-35891904D01*
X28881961Y-35891904D02*
X28977200Y-35987142D01*
X28977200Y-35987142D02*
X29024819Y-36129999D01*
X29024819Y-36129999D02*
X29024819Y-36225237D01*
X29120057Y-35606190D02*
X29120057Y-34844285D01*
X28501009Y-34272856D02*
X28548628Y-34129999D01*
X28548628Y-34129999D02*
X28596247Y-34082380D01*
X28596247Y-34082380D02*
X28691485Y-34034761D01*
X28691485Y-34034761D02*
X28834342Y-34034761D01*
X28834342Y-34034761D02*
X28929580Y-34082380D01*
X28929580Y-34082380D02*
X28977200Y-34129999D01*
X28977200Y-34129999D02*
X29024819Y-34225237D01*
X29024819Y-34225237D02*
X29024819Y-34606189D01*
X29024819Y-34606189D02*
X28024819Y-34606189D01*
X28024819Y-34606189D02*
X28024819Y-34272856D01*
X28024819Y-34272856D02*
X28072438Y-34177618D01*
X28072438Y-34177618D02*
X28120057Y-34129999D01*
X28120057Y-34129999D02*
X28215295Y-34082380D01*
X28215295Y-34082380D02*
X28310533Y-34082380D01*
X28310533Y-34082380D02*
X28405771Y-34129999D01*
X28405771Y-34129999D02*
X28453390Y-34177618D01*
X28453390Y-34177618D02*
X28501009Y-34272856D01*
X28501009Y-34272856D02*
X28501009Y-34606189D01*
X29024819Y-33606189D02*
X28024819Y-33606189D01*
X28024819Y-33606189D02*
X28024819Y-33225237D01*
X28024819Y-33225237D02*
X28072438Y-33129999D01*
X28072438Y-33129999D02*
X28120057Y-33082380D01*
X28120057Y-33082380D02*
X28215295Y-33034761D01*
X28215295Y-33034761D02*
X28358152Y-33034761D01*
X28358152Y-33034761D02*
X28453390Y-33082380D01*
X28453390Y-33082380D02*
X28501009Y-33129999D01*
X28501009Y-33129999D02*
X28548628Y-33225237D01*
X28548628Y-33225237D02*
X28548628Y-33606189D01*
X29024819Y-32082380D02*
X29024819Y-32653808D01*
X29024819Y-32368094D02*
X28024819Y-32368094D01*
X28024819Y-32368094D02*
X28167676Y-32463332D01*
X28167676Y-32463332D02*
X28262914Y-32558570D01*
X28262914Y-32558570D02*
X28310533Y-32653808D01*
X13702380Y-56504819D02*
X13130952Y-56504819D01*
X13416666Y-56504819D02*
X13416666Y-55504819D01*
X13416666Y-55504819D02*
X13321428Y-55647676D01*
X13321428Y-55647676D02*
X13226190Y-55742914D01*
X13226190Y-55742914D02*
X13130952Y-55790533D01*
X14321428Y-55504819D02*
X14416666Y-55504819D01*
X14416666Y-55504819D02*
X14511904Y-55552438D01*
X14511904Y-55552438D02*
X14559523Y-55600057D01*
X14559523Y-55600057D02*
X14607142Y-55695295D01*
X14607142Y-55695295D02*
X14654761Y-55885771D01*
X14654761Y-55885771D02*
X14654761Y-56123866D01*
X14654761Y-56123866D02*
X14607142Y-56314342D01*
X14607142Y-56314342D02*
X14559523Y-56409580D01*
X14559523Y-56409580D02*
X14511904Y-56457200D01*
X14511904Y-56457200D02*
X14416666Y-56504819D01*
X14416666Y-56504819D02*
X14321428Y-56504819D01*
X14321428Y-56504819D02*
X14226190Y-56457200D01*
X14226190Y-56457200D02*
X14178571Y-56409580D01*
X14178571Y-56409580D02*
X14130952Y-56314342D01*
X14130952Y-56314342D02*
X14083333Y-56123866D01*
X14083333Y-56123866D02*
X14083333Y-55885771D01*
X14083333Y-55885771D02*
X14130952Y-55695295D01*
X14130952Y-55695295D02*
X14178571Y-55600057D01*
X14178571Y-55600057D02*
X14226190Y-55552438D01*
X14226190Y-55552438D02*
X14321428Y-55504819D01*
X15273809Y-55504819D02*
X15369047Y-55504819D01*
X15369047Y-55504819D02*
X15464285Y-55552438D01*
X15464285Y-55552438D02*
X15511904Y-55600057D01*
X15511904Y-55600057D02*
X15559523Y-55695295D01*
X15559523Y-55695295D02*
X15607142Y-55885771D01*
X15607142Y-55885771D02*
X15607142Y-56123866D01*
X15607142Y-56123866D02*
X15559523Y-56314342D01*
X15559523Y-56314342D02*
X15511904Y-56409580D01*
X15511904Y-56409580D02*
X15464285Y-56457200D01*
X15464285Y-56457200D02*
X15369047Y-56504819D01*
X15369047Y-56504819D02*
X15273809Y-56504819D01*
X15273809Y-56504819D02*
X15178571Y-56457200D01*
X15178571Y-56457200D02*
X15130952Y-56409580D01*
X15130952Y-56409580D02*
X15083333Y-56314342D01*
X15083333Y-56314342D02*
X15035714Y-56123866D01*
X15035714Y-56123866D02*
X15035714Y-55885771D01*
X15035714Y-55885771D02*
X15083333Y-55695295D01*
X15083333Y-55695295D02*
X15130952Y-55600057D01*
X15130952Y-55600057D02*
X15178571Y-55552438D01*
X15178571Y-55552438D02*
X15273809Y-55504819D01*
X16035714Y-55838152D02*
X16035714Y-56504819D01*
X16035714Y-55933390D02*
X16083333Y-55885771D01*
X16083333Y-55885771D02*
X16178571Y-55838152D01*
X16178571Y-55838152D02*
X16321428Y-55838152D01*
X16321428Y-55838152D02*
X16416666Y-55885771D01*
X16416666Y-55885771D02*
X16464285Y-55981009D01*
X16464285Y-55981009D02*
X16464285Y-56504819D01*
X17273809Y-55981009D02*
X16940476Y-55981009D01*
X16940476Y-56504819D02*
X16940476Y-55504819D01*
X16940476Y-55504819D02*
X17416666Y-55504819D01*
D13*
X14335714Y-54215748D02*
X14307142Y-54244320D01*
X14307142Y-54244320D02*
X14221428Y-54272891D01*
X14221428Y-54272891D02*
X14164285Y-54272891D01*
X14164285Y-54272891D02*
X14078571Y-54244320D01*
X14078571Y-54244320D02*
X14021428Y-54187177D01*
X14021428Y-54187177D02*
X13992857Y-54130034D01*
X13992857Y-54130034D02*
X13964285Y-54015748D01*
X13964285Y-54015748D02*
X13964285Y-53930034D01*
X13964285Y-53930034D02*
X13992857Y-53815748D01*
X13992857Y-53815748D02*
X14021428Y-53758605D01*
X14021428Y-53758605D02*
X14078571Y-53701462D01*
X14078571Y-53701462D02*
X14164285Y-53672891D01*
X14164285Y-53672891D02*
X14221428Y-53672891D01*
X14221428Y-53672891D02*
X14307142Y-53701462D01*
X14307142Y-53701462D02*
X14335714Y-53730034D01*
X14450000Y-54330034D02*
X14907142Y-54330034D01*
X15050000Y-54272891D02*
X15050000Y-53672891D01*
X15050000Y-53672891D02*
X15192857Y-53672891D01*
X15192857Y-53672891D02*
X15278571Y-53701462D01*
X15278571Y-53701462D02*
X15335714Y-53758605D01*
X15335714Y-53758605D02*
X15364285Y-53815748D01*
X15364285Y-53815748D02*
X15392857Y-53930034D01*
X15392857Y-53930034D02*
X15392857Y-54015748D01*
X15392857Y-54015748D02*
X15364285Y-54130034D01*
X15364285Y-54130034D02*
X15335714Y-54187177D01*
X15335714Y-54187177D02*
X15278571Y-54244320D01*
X15278571Y-54244320D02*
X15192857Y-54272891D01*
X15192857Y-54272891D02*
X15050000Y-54272891D01*
X15650000Y-53958605D02*
X15850000Y-53958605D01*
X15935714Y-54272891D02*
X15650000Y-54272891D01*
X15650000Y-54272891D02*
X15650000Y-53672891D01*
X15650000Y-53672891D02*
X15935714Y-53672891D01*
X16535714Y-54215748D02*
X16507142Y-54244320D01*
X16507142Y-54244320D02*
X16421428Y-54272891D01*
X16421428Y-54272891D02*
X16364285Y-54272891D01*
X16364285Y-54272891D02*
X16278571Y-54244320D01*
X16278571Y-54244320D02*
X16221428Y-54187177D01*
X16221428Y-54187177D02*
X16192857Y-54130034D01*
X16192857Y-54130034D02*
X16164285Y-54015748D01*
X16164285Y-54015748D02*
X16164285Y-53930034D01*
X16164285Y-53930034D02*
X16192857Y-53815748D01*
X16192857Y-53815748D02*
X16221428Y-53758605D01*
X16221428Y-53758605D02*
X16278571Y-53701462D01*
X16278571Y-53701462D02*
X16364285Y-53672891D01*
X16364285Y-53672891D02*
X16421428Y-53672891D01*
X16421428Y-53672891D02*
X16507142Y-53701462D01*
X16507142Y-53701462D02*
X16535714Y-53730034D01*
D10*
X6937142Y-48924819D02*
X6365714Y-48924819D01*
X6651428Y-48924819D02*
X6651428Y-47924819D01*
X6651428Y-47924819D02*
X6556190Y-48067676D01*
X6556190Y-48067676D02*
X6460952Y-48162914D01*
X6460952Y-48162914D02*
X6365714Y-48210533D01*
X7365714Y-48924819D02*
X7365714Y-47924819D01*
X7365714Y-47924819D02*
X7937142Y-48924819D01*
X7937142Y-48924819D02*
X7937142Y-47924819D01*
X8889523Y-47924819D02*
X8413333Y-47924819D01*
X8413333Y-47924819D02*
X8365714Y-48401009D01*
X8365714Y-48401009D02*
X8413333Y-48353390D01*
X8413333Y-48353390D02*
X8508571Y-48305771D01*
X8508571Y-48305771D02*
X8746666Y-48305771D01*
X8746666Y-48305771D02*
X8841904Y-48353390D01*
X8841904Y-48353390D02*
X8889523Y-48401009D01*
X8889523Y-48401009D02*
X8937142Y-48496247D01*
X8937142Y-48496247D02*
X8937142Y-48734342D01*
X8937142Y-48734342D02*
X8889523Y-48829580D01*
X8889523Y-48829580D02*
X8841904Y-48877200D01*
X8841904Y-48877200D02*
X8746666Y-48924819D01*
X8746666Y-48924819D02*
X8508571Y-48924819D01*
X8508571Y-48924819D02*
X8413333Y-48877200D01*
X8413333Y-48877200D02*
X8365714Y-48829580D01*
X9508571Y-48353390D02*
X9413333Y-48305771D01*
X9413333Y-48305771D02*
X9365714Y-48258152D01*
X9365714Y-48258152D02*
X9318095Y-48162914D01*
X9318095Y-48162914D02*
X9318095Y-48115295D01*
X9318095Y-48115295D02*
X9365714Y-48020057D01*
X9365714Y-48020057D02*
X9413333Y-47972438D01*
X9413333Y-47972438D02*
X9508571Y-47924819D01*
X9508571Y-47924819D02*
X9699047Y-47924819D01*
X9699047Y-47924819D02*
X9794285Y-47972438D01*
X9794285Y-47972438D02*
X9841904Y-48020057D01*
X9841904Y-48020057D02*
X9889523Y-48115295D01*
X9889523Y-48115295D02*
X9889523Y-48162914D01*
X9889523Y-48162914D02*
X9841904Y-48258152D01*
X9841904Y-48258152D02*
X9794285Y-48305771D01*
X9794285Y-48305771D02*
X9699047Y-48353390D01*
X9699047Y-48353390D02*
X9508571Y-48353390D01*
X9508571Y-48353390D02*
X9413333Y-48401009D01*
X9413333Y-48401009D02*
X9365714Y-48448628D01*
X9365714Y-48448628D02*
X9318095Y-48543866D01*
X9318095Y-48543866D02*
X9318095Y-48734342D01*
X9318095Y-48734342D02*
X9365714Y-48829580D01*
X9365714Y-48829580D02*
X9413333Y-48877200D01*
X9413333Y-48877200D02*
X9508571Y-48924819D01*
X9508571Y-48924819D02*
X9699047Y-48924819D01*
X9699047Y-48924819D02*
X9794285Y-48877200D01*
X9794285Y-48877200D02*
X9841904Y-48829580D01*
X9841904Y-48829580D02*
X9889523Y-48734342D01*
X9889523Y-48734342D02*
X9889523Y-48543866D01*
X9889523Y-48543866D02*
X9841904Y-48448628D01*
X9841904Y-48448628D02*
X9794285Y-48401009D01*
X9794285Y-48401009D02*
X9699047Y-48353390D01*
X10841904Y-48924819D02*
X10270476Y-48924819D01*
X10556190Y-48924819D02*
X10556190Y-47924819D01*
X10556190Y-47924819D02*
X10460952Y-48067676D01*
X10460952Y-48067676D02*
X10365714Y-48162914D01*
X10365714Y-48162914D02*
X10270476Y-48210533D01*
X11318095Y-48924819D02*
X11508571Y-48924819D01*
X11508571Y-48924819D02*
X11603809Y-48877200D01*
X11603809Y-48877200D02*
X11651428Y-48829580D01*
X11651428Y-48829580D02*
X11746666Y-48686723D01*
X11746666Y-48686723D02*
X11794285Y-48496247D01*
X11794285Y-48496247D02*
X11794285Y-48115295D01*
X11794285Y-48115295D02*
X11746666Y-48020057D01*
X11746666Y-48020057D02*
X11699047Y-47972438D01*
X11699047Y-47972438D02*
X11603809Y-47924819D01*
X11603809Y-47924819D02*
X11413333Y-47924819D01*
X11413333Y-47924819D02*
X11318095Y-47972438D01*
X11318095Y-47972438D02*
X11270476Y-48020057D01*
X11270476Y-48020057D02*
X11222857Y-48115295D01*
X11222857Y-48115295D02*
X11222857Y-48353390D01*
X11222857Y-48353390D02*
X11270476Y-48448628D01*
X11270476Y-48448628D02*
X11318095Y-48496247D01*
X11318095Y-48496247D02*
X11413333Y-48543866D01*
X11413333Y-48543866D02*
X11603809Y-48543866D01*
X11603809Y-48543866D02*
X11699047Y-48496247D01*
X11699047Y-48496247D02*
X11746666Y-48448628D01*
X11746666Y-48448628D02*
X11794285Y-48353390D01*
X3738095Y-44354819D02*
X3738095Y-43354819D01*
X4309523Y-44354819D02*
X3880952Y-43783390D01*
X4309523Y-43354819D02*
X3738095Y-43926247D01*
X7255714Y-46454819D02*
X7255714Y-45454819D01*
X7255714Y-45454819D02*
X7493809Y-45454819D01*
X7493809Y-45454819D02*
X7636666Y-45502438D01*
X7636666Y-45502438D02*
X7731904Y-45597676D01*
X7731904Y-45597676D02*
X7779523Y-45692914D01*
X7779523Y-45692914D02*
X7827142Y-45883390D01*
X7827142Y-45883390D02*
X7827142Y-46026247D01*
X7827142Y-46026247D02*
X7779523Y-46216723D01*
X7779523Y-46216723D02*
X7731904Y-46311961D01*
X7731904Y-46311961D02*
X7636666Y-46407200D01*
X7636666Y-46407200D02*
X7493809Y-46454819D01*
X7493809Y-46454819D02*
X7255714Y-46454819D01*
X8017619Y-46550057D02*
X8779523Y-46550057D01*
X9017619Y-46454819D02*
X9017619Y-45454819D01*
X9017619Y-45454819D02*
X9398571Y-45454819D01*
X9398571Y-45454819D02*
X9493809Y-45502438D01*
X9493809Y-45502438D02*
X9541428Y-45550057D01*
X9541428Y-45550057D02*
X9589047Y-45645295D01*
X9589047Y-45645295D02*
X9589047Y-45788152D01*
X9589047Y-45788152D02*
X9541428Y-45883390D01*
X9541428Y-45883390D02*
X9493809Y-45931009D01*
X9493809Y-45931009D02*
X9398571Y-45978628D01*
X9398571Y-45978628D02*
X9017619Y-45978628D01*
X9922381Y-45454819D02*
X10160476Y-46454819D01*
X10160476Y-46454819D02*
X10350952Y-45740533D01*
X10350952Y-45740533D02*
X10541428Y-46454819D01*
X10541428Y-46454819D02*
X10779524Y-45454819D01*
X11731904Y-46454819D02*
X11398571Y-45978628D01*
X11160476Y-46454819D02*
X11160476Y-45454819D01*
X11160476Y-45454819D02*
X11541428Y-45454819D01*
X11541428Y-45454819D02*
X11636666Y-45502438D01*
X11636666Y-45502438D02*
X11684285Y-45550057D01*
X11684285Y-45550057D02*
X11731904Y-45645295D01*
X11731904Y-45645295D02*
X11731904Y-45788152D01*
X11731904Y-45788152D02*
X11684285Y-45883390D01*
X11684285Y-45883390D02*
X11636666Y-45931009D01*
X11636666Y-45931009D02*
X11541428Y-45978628D01*
X11541428Y-45978628D02*
X11160476Y-45978628D01*
D12*
X65233094Y-5579271D02*
X65233094Y-4309271D01*
X65233094Y-4309271D02*
X65656428Y-5216414D01*
X65656428Y-5216414D02*
X66079761Y-4309271D01*
X66079761Y-4309271D02*
X66079761Y-5579271D01*
X66865952Y-5579271D02*
X66745000Y-5518795D01*
X66745000Y-5518795D02*
X66684523Y-5458318D01*
X66684523Y-5458318D02*
X66624047Y-5337366D01*
X66624047Y-5337366D02*
X66624047Y-4974509D01*
X66624047Y-4974509D02*
X66684523Y-4853556D01*
X66684523Y-4853556D02*
X66745000Y-4793080D01*
X66745000Y-4793080D02*
X66865952Y-4732604D01*
X66865952Y-4732604D02*
X67047381Y-4732604D01*
X67047381Y-4732604D02*
X67168333Y-4793080D01*
X67168333Y-4793080D02*
X67228809Y-4853556D01*
X67228809Y-4853556D02*
X67289285Y-4974509D01*
X67289285Y-4974509D02*
X67289285Y-5337366D01*
X67289285Y-5337366D02*
X67228809Y-5458318D01*
X67228809Y-5458318D02*
X67168333Y-5518795D01*
X67168333Y-5518795D02*
X67047381Y-5579271D01*
X67047381Y-5579271D02*
X66865952Y-5579271D01*
X68377857Y-4732604D02*
X68377857Y-5579271D01*
X67833571Y-4732604D02*
X67833571Y-5397842D01*
X67833571Y-5397842D02*
X67894048Y-5518795D01*
X67894048Y-5518795D02*
X68015000Y-5579271D01*
X68015000Y-5579271D02*
X68196429Y-5579271D01*
X68196429Y-5579271D02*
X68317381Y-5518795D01*
X68317381Y-5518795D02*
X68377857Y-5458318D01*
X68982619Y-4732604D02*
X68982619Y-5579271D01*
X68982619Y-4853556D02*
X69043096Y-4793080D01*
X69043096Y-4793080D02*
X69164048Y-4732604D01*
X69164048Y-4732604D02*
X69345477Y-4732604D01*
X69345477Y-4732604D02*
X69466429Y-4793080D01*
X69466429Y-4793080D02*
X69526905Y-4914033D01*
X69526905Y-4914033D02*
X69526905Y-5579271D01*
X69950239Y-4732604D02*
X70434048Y-4732604D01*
X70131667Y-4309271D02*
X70131667Y-5397842D01*
X70131667Y-5397842D02*
X70192144Y-5518795D01*
X70192144Y-5518795D02*
X70313096Y-5579271D01*
X70313096Y-5579271D02*
X70434048Y-5579271D01*
X70857381Y-5579271D02*
X70857381Y-4732604D01*
X70857381Y-4309271D02*
X70796905Y-4369747D01*
X70796905Y-4369747D02*
X70857381Y-4430223D01*
X70857381Y-4430223D02*
X70917858Y-4369747D01*
X70917858Y-4369747D02*
X70857381Y-4309271D01*
X70857381Y-4309271D02*
X70857381Y-4430223D01*
X71462143Y-4732604D02*
X71462143Y-5579271D01*
X71462143Y-4853556D02*
X71522620Y-4793080D01*
X71522620Y-4793080D02*
X71643572Y-4732604D01*
X71643572Y-4732604D02*
X71825001Y-4732604D01*
X71825001Y-4732604D02*
X71945953Y-4793080D01*
X71945953Y-4793080D02*
X72006429Y-4914033D01*
X72006429Y-4914033D02*
X72006429Y-5579271D01*
X73155477Y-4732604D02*
X73155477Y-5760699D01*
X73155477Y-5760699D02*
X73095001Y-5881652D01*
X73095001Y-5881652D02*
X73034525Y-5942128D01*
X73034525Y-5942128D02*
X72913572Y-6002604D01*
X72913572Y-6002604D02*
X72732144Y-6002604D01*
X72732144Y-6002604D02*
X72611191Y-5942128D01*
X73155477Y-5518795D02*
X73034525Y-5579271D01*
X73034525Y-5579271D02*
X72792620Y-5579271D01*
X72792620Y-5579271D02*
X72671668Y-5518795D01*
X72671668Y-5518795D02*
X72611191Y-5458318D01*
X72611191Y-5458318D02*
X72550715Y-5337366D01*
X72550715Y-5337366D02*
X72550715Y-4974509D01*
X72550715Y-4974509D02*
X72611191Y-4853556D01*
X72611191Y-4853556D02*
X72671668Y-4793080D01*
X72671668Y-4793080D02*
X72792620Y-4732604D01*
X72792620Y-4732604D02*
X73034525Y-4732604D01*
X73034525Y-4732604D02*
X73155477Y-4793080D01*
X73760239Y-5579271D02*
X73760239Y-4309271D01*
X73760239Y-4914033D02*
X74485954Y-4914033D01*
X74485954Y-5579271D02*
X74485954Y-4309271D01*
X75272144Y-5579271D02*
X75151192Y-5518795D01*
X75151192Y-5518795D02*
X75090715Y-5458318D01*
X75090715Y-5458318D02*
X75030239Y-5337366D01*
X75030239Y-5337366D02*
X75030239Y-4974509D01*
X75030239Y-4974509D02*
X75090715Y-4853556D01*
X75090715Y-4853556D02*
X75151192Y-4793080D01*
X75151192Y-4793080D02*
X75272144Y-4732604D01*
X75272144Y-4732604D02*
X75453573Y-4732604D01*
X75453573Y-4732604D02*
X75574525Y-4793080D01*
X75574525Y-4793080D02*
X75635001Y-4853556D01*
X75635001Y-4853556D02*
X75695477Y-4974509D01*
X75695477Y-4974509D02*
X75695477Y-5337366D01*
X75695477Y-5337366D02*
X75635001Y-5458318D01*
X75635001Y-5458318D02*
X75574525Y-5518795D01*
X75574525Y-5518795D02*
X75453573Y-5579271D01*
X75453573Y-5579271D02*
X75272144Y-5579271D01*
X76421192Y-5579271D02*
X76300240Y-5518795D01*
X76300240Y-5518795D02*
X76239763Y-5397842D01*
X76239763Y-5397842D02*
X76239763Y-4309271D01*
X77388811Y-5518795D02*
X77267859Y-5579271D01*
X77267859Y-5579271D02*
X77025954Y-5579271D01*
X77025954Y-5579271D02*
X76905001Y-5518795D01*
X76905001Y-5518795D02*
X76844525Y-5397842D01*
X76844525Y-5397842D02*
X76844525Y-4914033D01*
X76844525Y-4914033D02*
X76905001Y-4793080D01*
X76905001Y-4793080D02*
X77025954Y-4732604D01*
X77025954Y-4732604D02*
X77267859Y-4732604D01*
X77267859Y-4732604D02*
X77388811Y-4793080D01*
X77388811Y-4793080D02*
X77449287Y-4914033D01*
X77449287Y-4914033D02*
X77449287Y-5034985D01*
X77449287Y-5034985D02*
X76844525Y-5155937D01*
X77691192Y-5700223D02*
X78658811Y-5700223D01*
X78840239Y-4309271D02*
X79626430Y-4309271D01*
X79626430Y-4309271D02*
X79203096Y-4793080D01*
X79203096Y-4793080D02*
X79384525Y-4793080D01*
X79384525Y-4793080D02*
X79505477Y-4853556D01*
X79505477Y-4853556D02*
X79565953Y-4914033D01*
X79565953Y-4914033D02*
X79626430Y-5034985D01*
X79626430Y-5034985D02*
X79626430Y-5337366D01*
X79626430Y-5337366D02*
X79565953Y-5458318D01*
X79565953Y-5458318D02*
X79505477Y-5518795D01*
X79505477Y-5518795D02*
X79384525Y-5579271D01*
X79384525Y-5579271D02*
X79021668Y-5579271D01*
X79021668Y-5579271D02*
X78900715Y-5518795D01*
X78900715Y-5518795D02*
X78840239Y-5458318D01*
X80170715Y-5458318D02*
X80231192Y-5518795D01*
X80231192Y-5518795D02*
X80170715Y-5579271D01*
X80170715Y-5579271D02*
X80110239Y-5518795D01*
X80110239Y-5518795D02*
X80170715Y-5458318D01*
X80170715Y-5458318D02*
X80170715Y-5579271D01*
X80715001Y-4430223D02*
X80775477Y-4369747D01*
X80775477Y-4369747D02*
X80896430Y-4309271D01*
X80896430Y-4309271D02*
X81198811Y-4309271D01*
X81198811Y-4309271D02*
X81319763Y-4369747D01*
X81319763Y-4369747D02*
X81380239Y-4430223D01*
X81380239Y-4430223D02*
X81440716Y-4551175D01*
X81440716Y-4551175D02*
X81440716Y-4672128D01*
X81440716Y-4672128D02*
X81380239Y-4853556D01*
X81380239Y-4853556D02*
X80654525Y-5579271D01*
X80654525Y-5579271D02*
X81440716Y-5579271D01*
X81985001Y-5579271D02*
X81985001Y-4732604D01*
X81985001Y-4853556D02*
X82045478Y-4793080D01*
X82045478Y-4793080D02*
X82166430Y-4732604D01*
X82166430Y-4732604D02*
X82347859Y-4732604D01*
X82347859Y-4732604D02*
X82468811Y-4793080D01*
X82468811Y-4793080D02*
X82529287Y-4914033D01*
X82529287Y-4914033D02*
X82529287Y-5579271D01*
X82529287Y-4914033D02*
X82589763Y-4793080D01*
X82589763Y-4793080D02*
X82710716Y-4732604D01*
X82710716Y-4732604D02*
X82892144Y-4732604D01*
X82892144Y-4732604D02*
X83013097Y-4793080D01*
X83013097Y-4793080D02*
X83073573Y-4914033D01*
X83073573Y-4914033D02*
X83073573Y-5579271D01*
X83678334Y-5579271D02*
X83678334Y-4732604D01*
X83678334Y-4853556D02*
X83738811Y-4793080D01*
X83738811Y-4793080D02*
X83859763Y-4732604D01*
X83859763Y-4732604D02*
X84041192Y-4732604D01*
X84041192Y-4732604D02*
X84162144Y-4793080D01*
X84162144Y-4793080D02*
X84222620Y-4914033D01*
X84222620Y-4914033D02*
X84222620Y-5579271D01*
X84222620Y-4914033D02*
X84283096Y-4793080D01*
X84283096Y-4793080D02*
X84404049Y-4732604D01*
X84404049Y-4732604D02*
X84585477Y-4732604D01*
X84585477Y-4732604D02*
X84706430Y-4793080D01*
X84706430Y-4793080D02*
X84766906Y-4914033D01*
X84766906Y-4914033D02*
X84766906Y-5579271D01*
D10*
X2230476Y-41651009D02*
X2373333Y-41698628D01*
X2373333Y-41698628D02*
X2420952Y-41746247D01*
X2420952Y-41746247D02*
X2468571Y-41841485D01*
X2468571Y-41841485D02*
X2468571Y-41984342D01*
X2468571Y-41984342D02*
X2420952Y-42079580D01*
X2420952Y-42079580D02*
X2373333Y-42127200D01*
X2373333Y-42127200D02*
X2278095Y-42174819D01*
X2278095Y-42174819D02*
X1897143Y-42174819D01*
X1897143Y-42174819D02*
X1897143Y-41174819D01*
X1897143Y-41174819D02*
X2230476Y-41174819D01*
X2230476Y-41174819D02*
X2325714Y-41222438D01*
X2325714Y-41222438D02*
X2373333Y-41270057D01*
X2373333Y-41270057D02*
X2420952Y-41365295D01*
X2420952Y-41365295D02*
X2420952Y-41460533D01*
X2420952Y-41460533D02*
X2373333Y-41555771D01*
X2373333Y-41555771D02*
X2325714Y-41603390D01*
X2325714Y-41603390D02*
X2230476Y-41651009D01*
X2230476Y-41651009D02*
X1897143Y-41651009D01*
X2897143Y-41651009D02*
X3230476Y-41651009D01*
X3373333Y-42174819D02*
X2897143Y-42174819D01*
X2897143Y-42174819D02*
X2897143Y-41174819D01*
X2897143Y-41174819D02*
X3373333Y-41174819D01*
X4373333Y-42079580D02*
X4325714Y-42127200D01*
X4325714Y-42127200D02*
X4182857Y-42174819D01*
X4182857Y-42174819D02*
X4087619Y-42174819D01*
X4087619Y-42174819D02*
X3944762Y-42127200D01*
X3944762Y-42127200D02*
X3849524Y-42031961D01*
X3849524Y-42031961D02*
X3801905Y-41936723D01*
X3801905Y-41936723D02*
X3754286Y-41746247D01*
X3754286Y-41746247D02*
X3754286Y-41603390D01*
X3754286Y-41603390D02*
X3801905Y-41412914D01*
X3801905Y-41412914D02*
X3849524Y-41317676D01*
X3849524Y-41317676D02*
X3944762Y-41222438D01*
X3944762Y-41222438D02*
X4087619Y-41174819D01*
X4087619Y-41174819D02*
X4182857Y-41174819D01*
X4182857Y-41174819D02*
X4325714Y-41222438D01*
X4325714Y-41222438D02*
X4373333Y-41270057D01*
X4563810Y-42270057D02*
X5325714Y-42270057D01*
X6040000Y-41174819D02*
X5563810Y-41174819D01*
X5563810Y-41174819D02*
X5516191Y-41651009D01*
X5516191Y-41651009D02*
X5563810Y-41603390D01*
X5563810Y-41603390D02*
X5659048Y-41555771D01*
X5659048Y-41555771D02*
X5897143Y-41555771D01*
X5897143Y-41555771D02*
X5992381Y-41603390D01*
X5992381Y-41603390D02*
X6040000Y-41651009D01*
X6040000Y-41651009D02*
X6087619Y-41746247D01*
X6087619Y-41746247D02*
X6087619Y-41984342D01*
X6087619Y-41984342D02*
X6040000Y-42079580D01*
X6040000Y-42079580D02*
X5992381Y-42127200D01*
X5992381Y-42127200D02*
X5897143Y-42174819D01*
X5897143Y-42174819D02*
X5659048Y-42174819D01*
X5659048Y-42174819D02*
X5563810Y-42127200D01*
X5563810Y-42127200D02*
X5516191Y-42079580D01*
X6373334Y-41174819D02*
X6706667Y-42174819D01*
X6706667Y-42174819D02*
X7040000Y-41174819D01*
X7135239Y-42270057D02*
X7897143Y-42270057D01*
X8135239Y-42174819D02*
X8135239Y-41174819D01*
X8611429Y-42174819D02*
X8611429Y-41174819D01*
X8611429Y-41174819D02*
X9182857Y-42174819D01*
X9182857Y-42174819D02*
X9182857Y-41174819D01*
X3730476Y-38654819D02*
X3730476Y-39369104D01*
X3730476Y-39369104D02*
X3682857Y-39511961D01*
X3682857Y-39511961D02*
X3587619Y-39607200D01*
X3587619Y-39607200D02*
X3444762Y-39654819D01*
X3444762Y-39654819D02*
X3349524Y-39654819D01*
X3968572Y-39750057D02*
X4730476Y-39750057D01*
X4968572Y-39654819D02*
X4968572Y-38654819D01*
X4968572Y-38654819D02*
X5349524Y-38654819D01*
X5349524Y-38654819D02*
X5444762Y-38702438D01*
X5444762Y-38702438D02*
X5492381Y-38750057D01*
X5492381Y-38750057D02*
X5540000Y-38845295D01*
X5540000Y-38845295D02*
X5540000Y-38988152D01*
X5540000Y-38988152D02*
X5492381Y-39083390D01*
X5492381Y-39083390D02*
X5444762Y-39131009D01*
X5444762Y-39131009D02*
X5349524Y-39178628D01*
X5349524Y-39178628D02*
X4968572Y-39178628D01*
X5873334Y-38654819D02*
X6111429Y-39654819D01*
X6111429Y-39654819D02*
X6301905Y-38940533D01*
X6301905Y-38940533D02*
X6492381Y-39654819D01*
X6492381Y-39654819D02*
X6730477Y-38654819D01*
X7682857Y-39654819D02*
X7349524Y-39178628D01*
X7111429Y-39654819D02*
X7111429Y-38654819D01*
X7111429Y-38654819D02*
X7492381Y-38654819D01*
X7492381Y-38654819D02*
X7587619Y-38702438D01*
X7587619Y-38702438D02*
X7635238Y-38750057D01*
X7635238Y-38750057D02*
X7682857Y-38845295D01*
X7682857Y-38845295D02*
X7682857Y-38988152D01*
X7682857Y-38988152D02*
X7635238Y-39083390D01*
X7635238Y-39083390D02*
X7587619Y-39131009D01*
X7587619Y-39131009D02*
X7492381Y-39178628D01*
X7492381Y-39178628D02*
X7111429Y-39178628D01*
X8380952Y-69391009D02*
X8714285Y-69391009D01*
X8857142Y-69914819D02*
X8380952Y-69914819D01*
X8380952Y-69914819D02*
X8380952Y-68914819D01*
X8380952Y-68914819D02*
X8857142Y-68914819D01*
X9238095Y-69867200D02*
X9380952Y-69914819D01*
X9380952Y-69914819D02*
X9619047Y-69914819D01*
X9619047Y-69914819D02*
X9714285Y-69867200D01*
X9714285Y-69867200D02*
X9761904Y-69819580D01*
X9761904Y-69819580D02*
X9809523Y-69724342D01*
X9809523Y-69724342D02*
X9809523Y-69629104D01*
X9809523Y-69629104D02*
X9761904Y-69533866D01*
X9761904Y-69533866D02*
X9714285Y-69486247D01*
X9714285Y-69486247D02*
X9619047Y-69438628D01*
X9619047Y-69438628D02*
X9428571Y-69391009D01*
X9428571Y-69391009D02*
X9333333Y-69343390D01*
X9333333Y-69343390D02*
X9285714Y-69295771D01*
X9285714Y-69295771D02*
X9238095Y-69200533D01*
X9238095Y-69200533D02*
X9238095Y-69105295D01*
X9238095Y-69105295D02*
X9285714Y-69010057D01*
X9285714Y-69010057D02*
X9333333Y-68962438D01*
X9333333Y-68962438D02*
X9428571Y-68914819D01*
X9428571Y-68914819D02*
X9666666Y-68914819D01*
X9666666Y-68914819D02*
X9809523Y-68962438D01*
X10809523Y-69819580D02*
X10761904Y-69867200D01*
X10761904Y-69867200D02*
X10619047Y-69914819D01*
X10619047Y-69914819D02*
X10523809Y-69914819D01*
X10523809Y-69914819D02*
X10380952Y-69867200D01*
X10380952Y-69867200D02*
X10285714Y-69771961D01*
X10285714Y-69771961D02*
X10238095Y-69676723D01*
X10238095Y-69676723D02*
X10190476Y-69486247D01*
X10190476Y-69486247D02*
X10190476Y-69343390D01*
X10190476Y-69343390D02*
X10238095Y-69152914D01*
X10238095Y-69152914D02*
X10285714Y-69057676D01*
X10285714Y-69057676D02*
X10380952Y-68962438D01*
X10380952Y-68962438D02*
X10523809Y-68914819D01*
X10523809Y-68914819D02*
X10619047Y-68914819D01*
X10619047Y-68914819D02*
X10761904Y-68962438D01*
X10761904Y-68962438D02*
X10809523Y-69010057D01*
X11000000Y-70010057D02*
X11761904Y-70010057D01*
X12000000Y-69914819D02*
X12000000Y-68914819D01*
X12000000Y-68914819D02*
X12333333Y-69629104D01*
X12333333Y-69629104D02*
X12666666Y-68914819D01*
X12666666Y-68914819D02*
X12666666Y-69914819D01*
X13047619Y-68914819D02*
X13666666Y-68914819D01*
X13666666Y-68914819D02*
X13333333Y-69295771D01*
X13333333Y-69295771D02*
X13476190Y-69295771D01*
X13476190Y-69295771D02*
X13571428Y-69343390D01*
X13571428Y-69343390D02*
X13619047Y-69391009D01*
X13619047Y-69391009D02*
X13666666Y-69486247D01*
X13666666Y-69486247D02*
X13666666Y-69724342D01*
X13666666Y-69724342D02*
X13619047Y-69819580D01*
X13619047Y-69819580D02*
X13571428Y-69867200D01*
X13571428Y-69867200D02*
X13476190Y-69914819D01*
X13476190Y-69914819D02*
X13190476Y-69914819D01*
X13190476Y-69914819D02*
X13095238Y-69867200D01*
X13095238Y-69867200D02*
X13047619Y-69819580D01*
X10454819Y-65825714D02*
X11169104Y-65825714D01*
X11169104Y-65825714D02*
X11311961Y-65873333D01*
X11311961Y-65873333D02*
X11407200Y-65968571D01*
X11407200Y-65968571D02*
X11454819Y-66111428D01*
X11454819Y-66111428D02*
X11454819Y-66206666D01*
X11550057Y-65587619D02*
X11550057Y-64825714D01*
X11454819Y-64587618D02*
X10454819Y-64587618D01*
X10454819Y-64587618D02*
X11169104Y-64254285D01*
X11169104Y-64254285D02*
X10454819Y-63920952D01*
X10454819Y-63920952D02*
X11454819Y-63920952D01*
X10454819Y-63539999D02*
X10454819Y-62920952D01*
X10454819Y-62920952D02*
X10835771Y-63254285D01*
X10835771Y-63254285D02*
X10835771Y-63111428D01*
X10835771Y-63111428D02*
X10883390Y-63016190D01*
X10883390Y-63016190D02*
X10931009Y-62968571D01*
X10931009Y-62968571D02*
X11026247Y-62920952D01*
X11026247Y-62920952D02*
X11264342Y-62920952D01*
X11264342Y-62920952D02*
X11359580Y-62968571D01*
X11359580Y-62968571D02*
X11407200Y-63016190D01*
X11407200Y-63016190D02*
X11454819Y-63111428D01*
X11454819Y-63111428D02*
X11454819Y-63397142D01*
X11454819Y-63397142D02*
X11407200Y-63492380D01*
X11407200Y-63492380D02*
X11359580Y-63539999D01*
X18071428Y-50851009D02*
X18214285Y-50898628D01*
X18214285Y-50898628D02*
X18261904Y-50946247D01*
X18261904Y-50946247D02*
X18309523Y-51041485D01*
X18309523Y-51041485D02*
X18309523Y-51184342D01*
X18309523Y-51184342D02*
X18261904Y-51279580D01*
X18261904Y-51279580D02*
X18214285Y-51327200D01*
X18214285Y-51327200D02*
X18119047Y-51374819D01*
X18119047Y-51374819D02*
X17738095Y-51374819D01*
X17738095Y-51374819D02*
X17738095Y-50374819D01*
X17738095Y-50374819D02*
X18071428Y-50374819D01*
X18071428Y-50374819D02*
X18166666Y-50422438D01*
X18166666Y-50422438D02*
X18214285Y-50470057D01*
X18214285Y-50470057D02*
X18261904Y-50565295D01*
X18261904Y-50565295D02*
X18261904Y-50660533D01*
X18261904Y-50660533D02*
X18214285Y-50755771D01*
X18214285Y-50755771D02*
X18166666Y-50803390D01*
X18166666Y-50803390D02*
X18071428Y-50851009D01*
X18071428Y-50851009D02*
X17738095Y-50851009D01*
X19166666Y-50708152D02*
X19166666Y-51374819D01*
X18738095Y-50708152D02*
X18738095Y-51231961D01*
X18738095Y-51231961D02*
X18785714Y-51327200D01*
X18785714Y-51327200D02*
X18880952Y-51374819D01*
X18880952Y-51374819D02*
X19023809Y-51374819D01*
X19023809Y-51374819D02*
X19119047Y-51327200D01*
X19119047Y-51327200D02*
X19166666Y-51279580D01*
X19547619Y-50708152D02*
X20071428Y-50708152D01*
X20071428Y-50708152D02*
X19547619Y-51374819D01*
X19547619Y-51374819D02*
X20071428Y-51374819D01*
X20357143Y-50708152D02*
X20880952Y-50708152D01*
X20880952Y-50708152D02*
X20357143Y-51374819D01*
X20357143Y-51374819D02*
X20880952Y-51374819D01*
X21642857Y-51327200D02*
X21547619Y-51374819D01*
X21547619Y-51374819D02*
X21357143Y-51374819D01*
X21357143Y-51374819D02*
X21261905Y-51327200D01*
X21261905Y-51327200D02*
X21214286Y-51231961D01*
X21214286Y-51231961D02*
X21214286Y-50851009D01*
X21214286Y-50851009D02*
X21261905Y-50755771D01*
X21261905Y-50755771D02*
X21357143Y-50708152D01*
X21357143Y-50708152D02*
X21547619Y-50708152D01*
X21547619Y-50708152D02*
X21642857Y-50755771D01*
X21642857Y-50755771D02*
X21690476Y-50851009D01*
X21690476Y-50851009D02*
X21690476Y-50946247D01*
X21690476Y-50946247D02*
X21214286Y-51041485D01*
X22119048Y-51374819D02*
X22119048Y-50708152D01*
X22119048Y-50898628D02*
X22166667Y-50803390D01*
X22166667Y-50803390D02*
X22214286Y-50755771D01*
X22214286Y-50755771D02*
X22309524Y-50708152D01*
X22309524Y-50708152D02*
X22404762Y-50708152D01*
X19931009Y-47674761D02*
X19978628Y-47531904D01*
X19978628Y-47531904D02*
X20026247Y-47484285D01*
X20026247Y-47484285D02*
X20121485Y-47436666D01*
X20121485Y-47436666D02*
X20264342Y-47436666D01*
X20264342Y-47436666D02*
X20359580Y-47484285D01*
X20359580Y-47484285D02*
X20407200Y-47531904D01*
X20407200Y-47531904D02*
X20454819Y-47627142D01*
X20454819Y-47627142D02*
X20454819Y-48008094D01*
X20454819Y-48008094D02*
X19454819Y-48008094D01*
X19454819Y-48008094D02*
X19454819Y-47674761D01*
X19454819Y-47674761D02*
X19502438Y-47579523D01*
X19502438Y-47579523D02*
X19550057Y-47531904D01*
X19550057Y-47531904D02*
X19645295Y-47484285D01*
X19645295Y-47484285D02*
X19740533Y-47484285D01*
X19740533Y-47484285D02*
X19835771Y-47531904D01*
X19835771Y-47531904D02*
X19883390Y-47579523D01*
X19883390Y-47579523D02*
X19931009Y-47674761D01*
X19931009Y-47674761D02*
X19931009Y-48008094D01*
X19454819Y-47103332D02*
X19454819Y-46436666D01*
X19454819Y-46436666D02*
X20454819Y-47103332D01*
X20454819Y-47103332D02*
X20454819Y-46436666D01*
X58524286Y-27824819D02*
X59143333Y-27824819D01*
X59143333Y-27824819D02*
X58810000Y-28205771D01*
X58810000Y-28205771D02*
X58952857Y-28205771D01*
X58952857Y-28205771D02*
X59048095Y-28253390D01*
X59048095Y-28253390D02*
X59095714Y-28301009D01*
X59095714Y-28301009D02*
X59143333Y-28396247D01*
X59143333Y-28396247D02*
X59143333Y-28634342D01*
X59143333Y-28634342D02*
X59095714Y-28729580D01*
X59095714Y-28729580D02*
X59048095Y-28777200D01*
X59048095Y-28777200D02*
X58952857Y-28824819D01*
X58952857Y-28824819D02*
X58667143Y-28824819D01*
X58667143Y-28824819D02*
X58571905Y-28777200D01*
X58571905Y-28777200D02*
X58524286Y-28729580D01*
X59476667Y-27824819D02*
X60095714Y-27824819D01*
X60095714Y-27824819D02*
X59762381Y-28205771D01*
X59762381Y-28205771D02*
X59905238Y-28205771D01*
X59905238Y-28205771D02*
X60000476Y-28253390D01*
X60000476Y-28253390D02*
X60048095Y-28301009D01*
X60048095Y-28301009D02*
X60095714Y-28396247D01*
X60095714Y-28396247D02*
X60095714Y-28634342D01*
X60095714Y-28634342D02*
X60048095Y-28729580D01*
X60048095Y-28729580D02*
X60000476Y-28777200D01*
X60000476Y-28777200D02*
X59905238Y-28824819D01*
X59905238Y-28824819D02*
X59619524Y-28824819D01*
X59619524Y-28824819D02*
X59524286Y-28777200D01*
X59524286Y-28777200D02*
X59476667Y-28729580D01*
X60714762Y-27824819D02*
X60810000Y-27824819D01*
X60810000Y-27824819D02*
X60905238Y-27872438D01*
X60905238Y-27872438D02*
X60952857Y-27920057D01*
X60952857Y-27920057D02*
X61000476Y-28015295D01*
X61000476Y-28015295D02*
X61048095Y-28205771D01*
X61048095Y-28205771D02*
X61048095Y-28443866D01*
X61048095Y-28443866D02*
X61000476Y-28634342D01*
X61000476Y-28634342D02*
X60952857Y-28729580D01*
X60952857Y-28729580D02*
X60905238Y-28777200D01*
X60905238Y-28777200D02*
X60810000Y-28824819D01*
X60810000Y-28824819D02*
X60714762Y-28824819D01*
X60714762Y-28824819D02*
X60619524Y-28777200D01*
X60619524Y-28777200D02*
X60571905Y-28729580D01*
X60571905Y-28729580D02*
X60524286Y-28634342D01*
X60524286Y-28634342D02*
X60476667Y-28443866D01*
X60476667Y-28443866D02*
X60476667Y-28205771D01*
X60476667Y-28205771D02*
X60524286Y-28015295D01*
X60524286Y-28015295D02*
X60571905Y-27920057D01*
X60571905Y-27920057D02*
X60619524Y-27872438D01*
X60619524Y-27872438D02*
X60714762Y-27824819D01*
X58381428Y-26454819D02*
X58048095Y-25978628D01*
X57810000Y-26454819D02*
X57810000Y-25454819D01*
X57810000Y-25454819D02*
X58190952Y-25454819D01*
X58190952Y-25454819D02*
X58286190Y-25502438D01*
X58286190Y-25502438D02*
X58333809Y-25550057D01*
X58333809Y-25550057D02*
X58381428Y-25645295D01*
X58381428Y-25645295D02*
X58381428Y-25788152D01*
X58381428Y-25788152D02*
X58333809Y-25883390D01*
X58333809Y-25883390D02*
X58286190Y-25931009D01*
X58286190Y-25931009D02*
X58190952Y-25978628D01*
X58190952Y-25978628D02*
X57810000Y-25978628D01*
X58571905Y-26550057D02*
X59333809Y-26550057D01*
X60048095Y-26454819D02*
X59571905Y-26454819D01*
X59571905Y-26454819D02*
X59571905Y-25454819D01*
X60381429Y-25931009D02*
X60714762Y-25931009D01*
X60857619Y-26454819D02*
X60381429Y-26454819D01*
X60381429Y-26454819D02*
X60381429Y-25454819D01*
X60381429Y-25454819D02*
X60857619Y-25454819D01*
X61286191Y-26454819D02*
X61286191Y-25454819D01*
X61286191Y-25454819D02*
X61524286Y-25454819D01*
X61524286Y-25454819D02*
X61667143Y-25502438D01*
X61667143Y-25502438D02*
X61762381Y-25597676D01*
X61762381Y-25597676D02*
X61810000Y-25692914D01*
X61810000Y-25692914D02*
X61857619Y-25883390D01*
X61857619Y-25883390D02*
X61857619Y-26026247D01*
X61857619Y-26026247D02*
X61810000Y-26216723D01*
X61810000Y-26216723D02*
X61762381Y-26311961D01*
X61762381Y-26311961D02*
X61667143Y-26407200D01*
X61667143Y-26407200D02*
X61524286Y-26454819D01*
X61524286Y-26454819D02*
X61286191Y-26454819D01*
X37785714Y-72052438D02*
X37690476Y-72004819D01*
X37690476Y-72004819D02*
X37547619Y-72004819D01*
X37547619Y-72004819D02*
X37404762Y-72052438D01*
X37404762Y-72052438D02*
X37309524Y-72147676D01*
X37309524Y-72147676D02*
X37261905Y-72242914D01*
X37261905Y-72242914D02*
X37214286Y-72433390D01*
X37214286Y-72433390D02*
X37214286Y-72576247D01*
X37214286Y-72576247D02*
X37261905Y-72766723D01*
X37261905Y-72766723D02*
X37309524Y-72861961D01*
X37309524Y-72861961D02*
X37404762Y-72957200D01*
X37404762Y-72957200D02*
X37547619Y-73004819D01*
X37547619Y-73004819D02*
X37642857Y-73004819D01*
X37642857Y-73004819D02*
X37785714Y-72957200D01*
X37785714Y-72957200D02*
X37833333Y-72909580D01*
X37833333Y-72909580D02*
X37833333Y-72576247D01*
X37833333Y-72576247D02*
X37642857Y-72576247D01*
X38452381Y-72528628D02*
X38452381Y-73004819D01*
X38119048Y-72004819D02*
X38452381Y-72528628D01*
X38452381Y-72528628D02*
X38785714Y-72004819D01*
X39119048Y-72623866D02*
X39880953Y-72623866D01*
X40833333Y-72004819D02*
X40357143Y-72004819D01*
X40357143Y-72004819D02*
X40309524Y-72481009D01*
X40309524Y-72481009D02*
X40357143Y-72433390D01*
X40357143Y-72433390D02*
X40452381Y-72385771D01*
X40452381Y-72385771D02*
X40690476Y-72385771D01*
X40690476Y-72385771D02*
X40785714Y-72433390D01*
X40785714Y-72433390D02*
X40833333Y-72481009D01*
X40833333Y-72481009D02*
X40880952Y-72576247D01*
X40880952Y-72576247D02*
X40880952Y-72814342D01*
X40880952Y-72814342D02*
X40833333Y-72909580D01*
X40833333Y-72909580D02*
X40785714Y-72957200D01*
X40785714Y-72957200D02*
X40690476Y-73004819D01*
X40690476Y-73004819D02*
X40452381Y-73004819D01*
X40452381Y-73004819D02*
X40357143Y-72957200D01*
X40357143Y-72957200D02*
X40309524Y-72909580D01*
X41261905Y-72100057D02*
X41309524Y-72052438D01*
X41309524Y-72052438D02*
X41404762Y-72004819D01*
X41404762Y-72004819D02*
X41642857Y-72004819D01*
X41642857Y-72004819D02*
X41738095Y-72052438D01*
X41738095Y-72052438D02*
X41785714Y-72100057D01*
X41785714Y-72100057D02*
X41833333Y-72195295D01*
X41833333Y-72195295D02*
X41833333Y-72290533D01*
X41833333Y-72290533D02*
X41785714Y-72433390D01*
X41785714Y-72433390D02*
X41214286Y-73004819D01*
X41214286Y-73004819D02*
X41833333Y-73004819D01*
X42785714Y-73004819D02*
X42214286Y-73004819D01*
X42500000Y-73004819D02*
X42500000Y-72004819D01*
X42500000Y-72004819D02*
X42404762Y-72147676D01*
X42404762Y-72147676D02*
X42309524Y-72242914D01*
X42309524Y-72242914D02*
X42214286Y-72290533D01*
X39454819Y-62461428D02*
X40169104Y-62461428D01*
X40169104Y-62461428D02*
X40311961Y-62509047D01*
X40311961Y-62509047D02*
X40407200Y-62604285D01*
X40407200Y-62604285D02*
X40454819Y-62747142D01*
X40454819Y-62747142D02*
X40454819Y-62842380D01*
X40550057Y-62223333D02*
X40550057Y-61461428D01*
X40454819Y-61223332D02*
X39454819Y-61223332D01*
X40454819Y-60747142D02*
X39454819Y-60747142D01*
X39454819Y-60747142D02*
X40169104Y-60413809D01*
X40169104Y-60413809D02*
X39454819Y-60080476D01*
X39454819Y-60080476D02*
X40454819Y-60080476D01*
X39454819Y-59604285D02*
X40264342Y-59604285D01*
X40264342Y-59604285D02*
X40359580Y-59556666D01*
X40359580Y-59556666D02*
X40407200Y-59509047D01*
X40407200Y-59509047D02*
X40454819Y-59413809D01*
X40454819Y-59413809D02*
X40454819Y-59223333D01*
X40454819Y-59223333D02*
X40407200Y-59128095D01*
X40407200Y-59128095D02*
X40359580Y-59080476D01*
X40359580Y-59080476D02*
X40264342Y-59032857D01*
X40264342Y-59032857D02*
X39454819Y-59032857D01*
X66380952Y-16391009D02*
X66714285Y-16391009D01*
X66857142Y-16914819D02*
X66380952Y-16914819D01*
X66380952Y-16914819D02*
X66380952Y-15914819D01*
X66380952Y-15914819D02*
X66857142Y-15914819D01*
X67238095Y-16867200D02*
X67380952Y-16914819D01*
X67380952Y-16914819D02*
X67619047Y-16914819D01*
X67619047Y-16914819D02*
X67714285Y-16867200D01*
X67714285Y-16867200D02*
X67761904Y-16819580D01*
X67761904Y-16819580D02*
X67809523Y-16724342D01*
X67809523Y-16724342D02*
X67809523Y-16629104D01*
X67809523Y-16629104D02*
X67761904Y-16533866D01*
X67761904Y-16533866D02*
X67714285Y-16486247D01*
X67714285Y-16486247D02*
X67619047Y-16438628D01*
X67619047Y-16438628D02*
X67428571Y-16391009D01*
X67428571Y-16391009D02*
X67333333Y-16343390D01*
X67333333Y-16343390D02*
X67285714Y-16295771D01*
X67285714Y-16295771D02*
X67238095Y-16200533D01*
X67238095Y-16200533D02*
X67238095Y-16105295D01*
X67238095Y-16105295D02*
X67285714Y-16010057D01*
X67285714Y-16010057D02*
X67333333Y-15962438D01*
X67333333Y-15962438D02*
X67428571Y-15914819D01*
X67428571Y-15914819D02*
X67666666Y-15914819D01*
X67666666Y-15914819D02*
X67809523Y-15962438D01*
X68809523Y-16819580D02*
X68761904Y-16867200D01*
X68761904Y-16867200D02*
X68619047Y-16914819D01*
X68619047Y-16914819D02*
X68523809Y-16914819D01*
X68523809Y-16914819D02*
X68380952Y-16867200D01*
X68380952Y-16867200D02*
X68285714Y-16771961D01*
X68285714Y-16771961D02*
X68238095Y-16676723D01*
X68238095Y-16676723D02*
X68190476Y-16486247D01*
X68190476Y-16486247D02*
X68190476Y-16343390D01*
X68190476Y-16343390D02*
X68238095Y-16152914D01*
X68238095Y-16152914D02*
X68285714Y-16057676D01*
X68285714Y-16057676D02*
X68380952Y-15962438D01*
X68380952Y-15962438D02*
X68523809Y-15914819D01*
X68523809Y-15914819D02*
X68619047Y-15914819D01*
X68619047Y-15914819D02*
X68761904Y-15962438D01*
X68761904Y-15962438D02*
X68809523Y-16010057D01*
X69000000Y-17010057D02*
X69761904Y-17010057D01*
X70000000Y-16914819D02*
X70000000Y-15914819D01*
X70000000Y-15914819D02*
X70333333Y-16629104D01*
X70333333Y-16629104D02*
X70666666Y-15914819D01*
X70666666Y-15914819D02*
X70666666Y-16914819D01*
X71666666Y-16914819D02*
X71095238Y-16914819D01*
X71380952Y-16914819D02*
X71380952Y-15914819D01*
X71380952Y-15914819D02*
X71285714Y-16057676D01*
X71285714Y-16057676D02*
X71190476Y-16152914D01*
X71190476Y-16152914D02*
X71095238Y-16200533D01*
X68454819Y-12825714D02*
X69169104Y-12825714D01*
X69169104Y-12825714D02*
X69311961Y-12873333D01*
X69311961Y-12873333D02*
X69407200Y-12968571D01*
X69407200Y-12968571D02*
X69454819Y-13111428D01*
X69454819Y-13111428D02*
X69454819Y-13206666D01*
X69550057Y-12587619D02*
X69550057Y-11825714D01*
X69454819Y-11587618D02*
X68454819Y-11587618D01*
X68454819Y-11587618D02*
X69169104Y-11254285D01*
X69169104Y-11254285D02*
X68454819Y-10920952D01*
X68454819Y-10920952D02*
X69454819Y-10920952D01*
X69454819Y-9920952D02*
X69454819Y-10492380D01*
X69454819Y-10206666D02*
X68454819Y-10206666D01*
X68454819Y-10206666D02*
X68597676Y-10301904D01*
X68597676Y-10301904D02*
X68692914Y-10397142D01*
X68692914Y-10397142D02*
X68740533Y-10492380D01*
X58881428Y-16158152D02*
X58881428Y-16824819D01*
X58643333Y-15777200D02*
X58405238Y-16491485D01*
X58405238Y-16491485D02*
X59024285Y-16491485D01*
X59405238Y-16729580D02*
X59452857Y-16777200D01*
X59452857Y-16777200D02*
X59405238Y-16824819D01*
X59405238Y-16824819D02*
X59357619Y-16777200D01*
X59357619Y-16777200D02*
X59405238Y-16729580D01*
X59405238Y-16729580D02*
X59405238Y-16824819D01*
X59786190Y-15824819D02*
X60452856Y-15824819D01*
X60452856Y-15824819D02*
X60024285Y-16824819D01*
X60833809Y-16824819D02*
X60833809Y-15824819D01*
X60929047Y-16443866D02*
X61214761Y-16824819D01*
X61214761Y-16158152D02*
X60833809Y-16539104D01*
X58357618Y-14454819D02*
X58024285Y-13978628D01*
X57786190Y-14454819D02*
X57786190Y-13454819D01*
X57786190Y-13454819D02*
X58167142Y-13454819D01*
X58167142Y-13454819D02*
X58262380Y-13502438D01*
X58262380Y-13502438D02*
X58309999Y-13550057D01*
X58309999Y-13550057D02*
X58357618Y-13645295D01*
X58357618Y-13645295D02*
X58357618Y-13788152D01*
X58357618Y-13788152D02*
X58309999Y-13883390D01*
X58309999Y-13883390D02*
X58262380Y-13931009D01*
X58262380Y-13931009D02*
X58167142Y-13978628D01*
X58167142Y-13978628D02*
X57786190Y-13978628D01*
X58548095Y-14550057D02*
X59309999Y-14550057D01*
X59500476Y-14407200D02*
X59643333Y-14454819D01*
X59643333Y-14454819D02*
X59881428Y-14454819D01*
X59881428Y-14454819D02*
X59976666Y-14407200D01*
X59976666Y-14407200D02*
X60024285Y-14359580D01*
X60024285Y-14359580D02*
X60071904Y-14264342D01*
X60071904Y-14264342D02*
X60071904Y-14169104D01*
X60071904Y-14169104D02*
X60024285Y-14073866D01*
X60024285Y-14073866D02*
X59976666Y-14026247D01*
X59976666Y-14026247D02*
X59881428Y-13978628D01*
X59881428Y-13978628D02*
X59690952Y-13931009D01*
X59690952Y-13931009D02*
X59595714Y-13883390D01*
X59595714Y-13883390D02*
X59548095Y-13835771D01*
X59548095Y-13835771D02*
X59500476Y-13740533D01*
X59500476Y-13740533D02*
X59500476Y-13645295D01*
X59500476Y-13645295D02*
X59548095Y-13550057D01*
X59548095Y-13550057D02*
X59595714Y-13502438D01*
X59595714Y-13502438D02*
X59690952Y-13454819D01*
X59690952Y-13454819D02*
X59929047Y-13454819D01*
X59929047Y-13454819D02*
X60071904Y-13502438D01*
X61071904Y-14359580D02*
X61024285Y-14407200D01*
X61024285Y-14407200D02*
X60881428Y-14454819D01*
X60881428Y-14454819D02*
X60786190Y-14454819D01*
X60786190Y-14454819D02*
X60643333Y-14407200D01*
X60643333Y-14407200D02*
X60548095Y-14311961D01*
X60548095Y-14311961D02*
X60500476Y-14216723D01*
X60500476Y-14216723D02*
X60452857Y-14026247D01*
X60452857Y-14026247D02*
X60452857Y-13883390D01*
X60452857Y-13883390D02*
X60500476Y-13692914D01*
X60500476Y-13692914D02*
X60548095Y-13597676D01*
X60548095Y-13597676D02*
X60643333Y-13502438D01*
X60643333Y-13502438D02*
X60786190Y-13454819D01*
X60786190Y-13454819D02*
X60881428Y-13454819D01*
X60881428Y-13454819D02*
X61024285Y-13502438D01*
X61024285Y-13502438D02*
X61071904Y-13550057D01*
X61976666Y-14454819D02*
X61500476Y-14454819D01*
X61500476Y-14454819D02*
X61500476Y-13454819D01*
%TO.C,LED1*%
D14*
X54770000Y-30530306D02*
X54770000Y-33469694D01*
X54770000Y-30530306D02*
G75*
G02*
X54770000Y-33469694I2500000J-1469694D01*
G01*
X59770000Y-32000000D02*
G75*
G02*
X54770000Y-32000000I-2500000J0D01*
G01*
X54770000Y-32000000D02*
G75*
G02*
X59770000Y-32000000I2500000J0D01*
G01*
%TO.C,J_M2*%
X67730000Y-61365000D02*
X68365000Y-60730000D01*
X67730000Y-68350000D02*
X67730000Y-61365000D01*
X68365000Y-60730000D02*
X70270000Y-60730000D01*
X70270000Y-60730000D02*
X70270000Y-68350000D01*
X70270000Y-68350000D02*
X67730000Y-68350000D01*
%TO.C,J_BP2*%
X50160000Y-8730000D02*
X52065000Y-8730000D01*
X50160000Y-59530000D02*
X50160000Y-8730000D01*
X52065000Y-8730000D02*
X52700000Y-9365000D01*
X52700000Y-9365000D02*
X52700000Y-59530000D01*
X52700000Y-59530000D02*
X50160000Y-59530000D01*
%TO.C,J_RX*%
X71730000Y-29365000D02*
X72365000Y-28730000D01*
X71730000Y-43970000D02*
X71730000Y-29365000D01*
X72365000Y-28730000D02*
X74270000Y-28730000D01*
X74270000Y-28730000D02*
X74270000Y-43970000D01*
X74270000Y-43970000D02*
X71730000Y-43970000D01*
%TO.C,J_M4*%
X9730000Y-8365000D02*
X10365000Y-7730000D01*
X9730000Y-15350000D02*
X9730000Y-8365000D01*
X10365000Y-7730000D02*
X12270000Y-7730000D01*
X12270000Y-7730000D02*
X12270000Y-15350000D01*
X12270000Y-15350000D02*
X9730000Y-15350000D01*
%TO.C,R_SDA*%
X56000000Y-20000000D02*
X56660000Y-20000000D01*
X63620000Y-20000000D02*
X62960000Y-20000000D01*
X56660000Y-18750000D02*
X62960000Y-18750000D01*
X62960000Y-21250000D01*
X56660000Y-21250000D01*
X56660000Y-18750000D01*
%TO.C,C_BULK*%
X3323241Y-52252500D02*
X4123241Y-52252500D01*
X3723241Y-51852500D02*
X3723241Y-52652500D01*
X10750000Y-54000000D02*
G75*
G02*
X2750000Y-54000000I-4000000J0D01*
G01*
X2750000Y-54000000D02*
G75*
G02*
X10750000Y-54000000I4000000J0D01*
G01*
%TO.C,J_BP1*%
X27300000Y-8730000D02*
X29205000Y-8730000D01*
X27300000Y-59530000D02*
X27300000Y-8730000D01*
X29205000Y-8730000D02*
X29840000Y-9365000D01*
X29840000Y-9365000D02*
X29840000Y-59530000D01*
X29840000Y-59530000D02*
X27300000Y-59530000D01*
%TO.C,C_DEC*%
X13750000Y-53200000D02*
X16750000Y-53200000D01*
X16750000Y-54800000D01*
X13750000Y-54800000D01*
X13750000Y-53200000D01*
%TO.C,D_PWR*%
X4000000Y-46000000D02*
X6480000Y-46000000D01*
X7160000Y-44650000D02*
X7160000Y-47350000D01*
X7260000Y-44650000D02*
X7260000Y-47350000D01*
X7360000Y-44650000D02*
X7360000Y-47350000D01*
X14160000Y-46000000D02*
X11680000Y-46000000D01*
X6480000Y-44650000D02*
X11680000Y-44650000D01*
X11680000Y-47350000D01*
X6480000Y-47350000D01*
X6480000Y-44650000D01*
%TO.C,J_PWR*%
X460000Y-30800000D02*
X10620000Y-30800000D01*
X460000Y-33700000D02*
X10620000Y-33700000D01*
X460000Y-38600000D02*
X10620000Y-38600000D01*
X460000Y-40100000D02*
X460000Y-30800000D01*
X460000Y-40100000D02*
X10620000Y-40100000D01*
X960000Y-40600000D02*
X460000Y-40100000D01*
X3955000Y-34862000D02*
X1862000Y-36955000D01*
X4138000Y-35045000D02*
X2045000Y-37138000D01*
X9035000Y-34862000D02*
X6942000Y-36955000D01*
X9218000Y-35045000D02*
X7125000Y-37138000D01*
X10620000Y-30800000D02*
X10620000Y-40600000D01*
X10620000Y-40600000D02*
X960000Y-40600000D01*
X4500000Y-36000000D02*
G75*
G02*
X1500000Y-36000000I-1500000J0D01*
G01*
X1500000Y-36000000D02*
G75*
G02*
X4500000Y-36000000I1500000J0D01*
G01*
X9580000Y-36000000D02*
G75*
G02*
X6580000Y-36000000I-1500000J0D01*
G01*
X6580000Y-36000000D02*
G75*
G02*
X9580000Y-36000000I1500000J0D01*
G01*
%TO.C,J_M3*%
X9730000Y-61365000D02*
X10365000Y-60730000D01*
X9730000Y-68350000D02*
X9730000Y-61365000D01*
X10365000Y-60730000D02*
X12270000Y-60730000D01*
X12270000Y-60730000D02*
X12270000Y-68350000D01*
X12270000Y-68350000D02*
X9730000Y-68350000D01*
%TO.C,BZ*%
X18730000Y-45365000D02*
X19365000Y-44730000D01*
X18730000Y-49810000D02*
X18730000Y-45365000D01*
X19365000Y-44730000D02*
X21270000Y-44730000D01*
X21270000Y-44730000D02*
X21270000Y-49810000D01*
X21270000Y-49810000D02*
X18730000Y-49810000D01*
%TO.C,R_LED*%
X56000000Y-26000000D02*
X56660000Y-26000000D01*
X63620000Y-26000000D02*
X62960000Y-26000000D01*
X56660000Y-24750000D02*
X62960000Y-24750000D01*
X62960000Y-27250000D01*
X56660000Y-27250000D01*
X56660000Y-24750000D01*
%TO.C,J_IMU*%
X38730000Y-50730000D02*
X40635000Y-50730000D01*
X38730000Y-71050000D02*
X38730000Y-50730000D01*
X40635000Y-50730000D02*
X41270000Y-51365000D01*
X41270000Y-51365000D02*
X41270000Y-71050000D01*
X41270000Y-71050000D02*
X38730000Y-71050000D01*
%TO.C,J_M1*%
X67730000Y-8365000D02*
X68365000Y-7730000D01*
X67730000Y-15350000D02*
X67730000Y-8365000D01*
X68365000Y-7730000D02*
X70270000Y-7730000D01*
X70270000Y-7730000D02*
X70270000Y-15350000D01*
X70270000Y-15350000D02*
X67730000Y-15350000D01*
%TO.C,R_SCL*%
X56000000Y-14000000D02*
X56660000Y-14000000D01*
X63620000Y-14000000D02*
X62960000Y-14000000D01*
X56660000Y-12750000D02*
X62960000Y-12750000D01*
X62960000Y-15250000D01*
X56660000Y-15250000D01*
X56660000Y-12750000D01*
%TD*%
M02*
