%TF.GenerationSoftware,KiCad,Pcbnew,10.0.4*%
%TF.CreationDate,2026-07-29T22:39:24+02:00*%
%TF.ProjectId,Bluepill-QuadFC-Carrier,426c7565-7069-46c6-9c2d-517561644643,rev?*%
%TF.SameCoordinates,Original*%
%TF.FileFunction,Copper,L1,Top*%
%TF.FilePolarity,Positive*%
%FSLAX46Y46*%
G04 Gerber Fmt 4.6, Leading zero omitted, Abs format (unit mm)*
G04 Created by KiCad (PCBNEW 10.0.4) date 2026-07-29 22:39:24*
%MOMM*%
%LPD*%
G01*
G04 APERTURE LIST*
G04 Aperture macros list*
%AMRoundRect*
0 Rectangle with rounded corners*
0 $1 Rounding radius*
0 $2 $3 $4 $5 $6 $7 $8 $9 X,Y pos of 4 corners*
0 Add a 4 corners polygon primitive as box body*
4,1,4,$2,$3,$4,$5,$6,$7,$8,$9,$2,$3,0*
0 Add four circle primitives for the rounded corners*
1,1,$1+$1,$2,$3*
1,1,$1+$1,$4,$5*
1,1,$1+$1,$6,$7*
1,1,$1+$1,$8,$9*
0 Add four rect primitives between the rounded corners*
20,1,$1+$1,$2,$3,$4,$5,0*
20,1,$1+$1,$4,$5,$6,$7,0*
20,1,$1+$1,$6,$7,$8,$9,0*
20,1,$1+$1,$8,$9,$2,$3,0*%
G04 Aperture macros list end*
%TA.AperFunction,ComponentPad*%
%ADD10R,1.800000X1.800000*%
%TD*%
%TA.AperFunction,ComponentPad*%
%ADD11C,1.800000*%
%TD*%
%TA.AperFunction,ComponentPad*%
%ADD12R,1.700000X1.700000*%
%TD*%
%TA.AperFunction,ComponentPad*%
%ADD13C,1.700000*%
%TD*%
%TA.AperFunction,ComponentPad*%
%ADD14C,1.600000*%
%TD*%
%TA.AperFunction,ComponentPad*%
%ADD15RoundRect,0.250000X-0.550000X-0.550000X0.550000X-0.550000X0.550000X0.550000X-0.550000X0.550000X0*%
%TD*%
%TA.AperFunction,ComponentPad*%
%ADD16RoundRect,0.249999X-0.850001X-0.850001X0.850001X-0.850001X0.850001X0.850001X-0.850001X0.850001X0*%
%TD*%
%TA.AperFunction,ComponentPad*%
%ADD17C,2.200000*%
%TD*%
%TA.AperFunction,ComponentPad*%
%ADD18RoundRect,0.250000X-1.050000X-1.050000X1.050000X-1.050000X1.050000X1.050000X-1.050000X1.050000X0*%
%TD*%
%TA.AperFunction,ComponentPad*%
%ADD19C,2.600000*%
%TD*%
%TA.AperFunction,ViaPad*%
%ADD20C,0.600000*%
%TD*%
%TA.AperFunction,Conductor*%
%ADD21C,0.400000*%
%TD*%
G04 APERTURE END LIST*
D10*
%TO.P,LED1,1*%
%TO.N,GND*%
X56000000Y-32000000D03*
D11*
%TO.P,LED1,2*%
%TO.N,LED_A*%
X58540000Y-32000000D03*
%TD*%
D12*
%TO.P,J_M2,1*%
%TO.N,M2_PWM*%
X69000000Y-62000000D03*
D13*
%TO.P,J_M2,2*%
%TO.N,+5V*%
X69000000Y-64540000D03*
%TO.P,J_M2,3*%
%TO.N,GND*%
X69000000Y-67080000D03*
%TD*%
D12*
%TO.P,J_BP2,1*%
%TO.N,+5V*%
X51430000Y-10000000D03*
D13*
%TO.P,J_BP2,2*%
%TO.N,GND*%
X51430000Y-12540000D03*
%TO.P,J_BP2,3*%
%TO.N,+3V3*%
X51430000Y-15080000D03*
%TO.P,J_BP2,4*%
%TO.N,N/C*%
X51430000Y-17620000D03*
%TO.P,J_BP2,5*%
X51430000Y-20160000D03*
%TO.P,J_BP2,6*%
X51430000Y-22700000D03*
%TO.P,J_BP2,7*%
X51430000Y-25240000D03*
%TO.P,J_BP2,8*%
%TO.N,BUZZER*%
X51430000Y-27780000D03*
%TO.P,J_BP2,9*%
%TO.N,N/C*%
X51430000Y-30320000D03*
%TO.P,J_BP2,10*%
X51430000Y-32860000D03*
%TO.P,J_BP2,11*%
X51430000Y-35400000D03*
%TO.P,J_BP2,12*%
X51430000Y-37940000D03*
%TO.P,J_BP2,13*%
X51430000Y-40480000D03*
%TO.P,J_BP2,14*%
X51430000Y-43020000D03*
%TO.P,J_BP2,15*%
X51430000Y-45560000D03*
%TO.P,J_BP2,16*%
%TO.N,IMU_INT*%
X51430000Y-48100000D03*
%TO.P,J_BP2,17*%
%TO.N,SCL*%
X51430000Y-50640000D03*
%TO.P,J_BP2,18*%
%TO.N,SDA*%
X51430000Y-53180000D03*
%TO.P,J_BP2,19*%
%TO.N,N/C*%
X51430000Y-55720000D03*
%TO.P,J_BP2,20*%
X51430000Y-58260000D03*
%TD*%
D12*
%TO.P,J_RX,1*%
%TO.N,RX_CH1*%
X73000000Y-30000000D03*
D13*
%TO.P,J_RX,2*%
%TO.N,RX_CH2*%
X73000000Y-32540000D03*
%TO.P,J_RX,3*%
%TO.N,RX_CH3*%
X73000000Y-35080000D03*
%TO.P,J_RX,4*%
%TO.N,RX_CH4*%
X73000000Y-37620000D03*
%TO.P,J_RX,5*%
%TO.N,+5V*%
X73000000Y-40160000D03*
%TO.P,J_RX,6*%
%TO.N,GND*%
X73000000Y-42700000D03*
%TD*%
D12*
%TO.P,J_M4,1*%
%TO.N,M4_PWM*%
X11000000Y-9000000D03*
D13*
%TO.P,J_M4,2*%
%TO.N,+5V*%
X11000000Y-11540000D03*
%TO.P,J_M4,3*%
%TO.N,GND*%
X11000000Y-14080000D03*
%TD*%
D14*
%TO.P,R_SDA,1*%
%TO.N,SDA*%
X56000000Y-20000000D03*
%TO.P,R_SDA,2*%
%TO.N,+3V3*%
X63620000Y-20000000D03*
%TD*%
D15*
%TO.P,C_BULK,1*%
%TO.N,+5V*%
X5000000Y-54000000D03*
D14*
%TO.P,C_BULK,2*%
%TO.N,GND*%
X8500000Y-54000000D03*
%TD*%
D12*
%TO.P,J_BP1,1*%
%TO.N,N/C*%
X28570000Y-10000000D03*
D13*
%TO.P,J_BP1,2*%
%TO.N,LED_CTRL*%
X28570000Y-12540000D03*
%TO.P,J_BP1,3*%
%TO.N,N/C*%
X28570000Y-15080000D03*
%TO.P,J_BP1,4*%
X28570000Y-17620000D03*
%TO.P,J_BP1,5*%
%TO.N,M1_PWM*%
X28570000Y-20160000D03*
%TO.P,J_BP1,6*%
%TO.N,M2_PWM*%
X28570000Y-22700000D03*
%TO.P,J_BP1,7*%
%TO.N,M3_PWM*%
X28570000Y-25240000D03*
%TO.P,J_BP1,8*%
%TO.N,M4_PWM*%
X28570000Y-27780000D03*
%TO.P,J_BP1,9*%
%TO.N,N/C*%
X28570000Y-30320000D03*
%TO.P,J_BP1,10*%
X28570000Y-32860000D03*
%TO.P,J_BP1,11*%
X28570000Y-35400000D03*
%TO.P,J_BP1,12*%
X28570000Y-37940000D03*
%TO.P,J_BP1,13*%
%TO.N,RX_CH1*%
X28570000Y-40480000D03*
%TO.P,J_BP1,14*%
%TO.N,RX_CH2*%
X28570000Y-43020000D03*
%TO.P,J_BP1,15*%
%TO.N,RX_CH3*%
X28570000Y-45560000D03*
%TO.P,J_BP1,16*%
%TO.N,RX_CH4*%
X28570000Y-48100000D03*
%TO.P,J_BP1,17*%
%TO.N,N/C*%
X28570000Y-50640000D03*
%TO.P,J_BP1,18*%
%TO.N,+3V3*%
X28570000Y-53180000D03*
%TO.P,J_BP1,19*%
%TO.N,GND*%
X28570000Y-55720000D03*
%TO.P,J_BP1,20*%
X28570000Y-58260000D03*
%TD*%
D14*
%TO.P,C_DEC,1*%
%TO.N,+5V*%
X14000000Y-54000000D03*
%TO.P,C_DEC,2*%
%TO.N,GND*%
X16500000Y-54000000D03*
%TD*%
D16*
%TO.P,D_PWR,1*%
%TO.N,+5V*%
X4000000Y-46000000D03*
D17*
%TO.P,D_PWR,2*%
%TO.N,+5V_IN*%
X14160000Y-46000000D03*
%TD*%
D18*
%TO.P,J_PWR,1*%
%TO.N,+5V_IN*%
X3000000Y-36000000D03*
D19*
%TO.P,J_PWR,2*%
%TO.N,GND*%
X8080000Y-36000000D03*
%TD*%
D12*
%TO.P,J_M3,1*%
%TO.N,M3_PWM*%
X11000000Y-62000000D03*
D13*
%TO.P,J_M3,2*%
%TO.N,+5V*%
X11000000Y-64540000D03*
%TO.P,J_M3,3*%
%TO.N,GND*%
X11000000Y-67080000D03*
%TD*%
D12*
%TO.P,BZ,1*%
%TO.N,BUZZER*%
X20000000Y-46000000D03*
D13*
%TO.P,BZ,2*%
%TO.N,GND*%
X20000000Y-48540000D03*
%TD*%
D14*
%TO.P,R_LED,1*%
%TO.N,LED_CTRL*%
X56000000Y-26000000D03*
%TO.P,R_LED,2*%
%TO.N,LED_A*%
X63620000Y-26000000D03*
%TD*%
D12*
%TO.P,J_IMU,1*%
%TO.N,+5V*%
X40000000Y-52000000D03*
D13*
%TO.P,J_IMU,2*%
%TO.N,GND*%
X40000000Y-54540000D03*
%TO.P,J_IMU,3*%
%TO.N,SCL*%
X40000000Y-57080000D03*
%TO.P,J_IMU,4*%
%TO.N,SDA*%
X40000000Y-59620000D03*
%TO.P,J_IMU,5*%
%TO.N,N/C*%
X40000000Y-62160000D03*
%TO.P,J_IMU,6*%
X40000000Y-64700000D03*
%TO.P,J_IMU,7*%
%TO.N,GND*%
X40000000Y-67240000D03*
%TO.P,J_IMU,8*%
%TO.N,IMU_INT*%
X40000000Y-69780000D03*
%TD*%
D12*
%TO.P,J_M1,1*%
%TO.N,M1_PWM*%
X69000000Y-9000000D03*
D13*
%TO.P,J_M1,2*%
%TO.N,+5V*%
X69000000Y-11540000D03*
%TO.P,J_M1,3*%
%TO.N,GND*%
X69000000Y-14080000D03*
%TD*%
D14*
%TO.P,R_SCL,1*%
%TO.N,SCL*%
X56000000Y-14000000D03*
%TO.P,R_SCL,2*%
%TO.N,+3V3*%
X63620000Y-14000000D03*
%TD*%
D20*
%TO.N,M2_PWM*%
X30901300Y-49160100D03*
%TO.N,SCL*%
X46326700Y-51227800D03*
%TO.N,SDA*%
X46580500Y-58637800D03*
%TO.N,RX_CH1*%
X42782900Y-36841300D03*
%TO.N,RX_CH2*%
X49104900Y-55051700D03*
%TO.N,M3_PWM*%
X10296400Y-28118000D03*
%TD*%
%TO.N,LED_A*%
D21*
X58540000Y-32000000D02*
X63620000Y-26920000D01*
X63620000Y-26920000D02*
X63620000Y-26000000D01*
%TO.N,M2_PWM*%
X30901300Y-25031300D02*
X30901300Y-49160100D01*
X28570000Y-22700000D02*
X30901300Y-25031300D01*
%TO.N,+3V3*%
X45495000Y-36255000D02*
X45495000Y-21015000D01*
X45495000Y-21015000D02*
X51430000Y-15080000D01*
X28570000Y-53180000D02*
X45495000Y-36255000D01*
X63620000Y-14000000D02*
X63620000Y-20000000D01*
%TO.N,BUZZER*%
X46444300Y-32765700D02*
X51430000Y-27780000D01*
X28013900Y-59616600D02*
X29168600Y-59616600D01*
X46444300Y-42340900D02*
X46444300Y-32765700D01*
X29168600Y-59616600D02*
X46444300Y-42340900D01*
X21351700Y-47351700D02*
X21351700Y-52954400D01*
X21351700Y-52954400D02*
X28013900Y-59616600D01*
X20000000Y-46000000D02*
X21351700Y-47351700D01*
%TO.N,IMU_INT*%
X42547200Y-57538200D02*
X42547200Y-67232800D01*
X42547200Y-67232800D02*
X40000000Y-69780000D01*
X51430000Y-48655400D02*
X42547200Y-57538200D01*
X51430000Y-48100000D02*
X51430000Y-48655400D01*
%TO.N,SCL*%
X53840100Y-48229900D02*
X51430000Y-50640000D01*
X40474500Y-57080000D02*
X46326700Y-51227800D01*
X56000000Y-14000000D02*
X53840100Y-16159900D01*
X40000000Y-57080000D02*
X40474500Y-57080000D01*
X53840100Y-16159900D02*
X53840100Y-48229900D01*
%TO.N,SDA*%
X54593000Y-50017000D02*
X51430000Y-53180000D01*
X56000000Y-20000000D02*
X54593000Y-21407000D01*
X54593000Y-21407000D02*
X54593000Y-50017000D01*
X46580500Y-58637800D02*
X46580500Y-56428700D01*
X49829200Y-53180000D02*
X51430000Y-53180000D01*
X46580500Y-56428700D02*
X49829200Y-53180000D01*
%TO.N,RX_CH1*%
X73000000Y-30000000D02*
X71648300Y-30000000D01*
X57635900Y-13748700D02*
X52535500Y-8648300D01*
X71648300Y-30000000D02*
X57635900Y-15987600D01*
X52535500Y-8648300D02*
X50306900Y-8648300D01*
X57635900Y-15987600D02*
X57635900Y-13748700D01*
X50306900Y-8648300D02*
X42782900Y-16172300D01*
X42782900Y-16172300D02*
X42782900Y-36841300D01*
%TO.N,RX_CH2*%
X61948300Y-43591700D02*
X73000000Y-32540000D01*
X52004300Y-59637300D02*
X61948300Y-49693300D01*
X50880000Y-59637300D02*
X52004300Y-59637300D01*
X61948300Y-49693300D02*
X61948300Y-43591700D01*
X49104900Y-55051700D02*
X49104900Y-57862200D01*
X49104900Y-57862200D02*
X50880000Y-59637300D01*
%TO.N,M4_PWM*%
X14855500Y-14065500D02*
X14855500Y-12855500D01*
X28570000Y-27780000D02*
X14855500Y-14065500D01*
X14855500Y-12855500D02*
X11000000Y-9000000D01*
%TO.N,M3_PWM*%
X11000000Y-28821600D02*
X10296400Y-28118000D01*
X11000000Y-62000000D02*
X11000000Y-28821600D01*
%TD*%
M02*
